<svg xmlns="http://www.w3.org/2000/svg" xmlns:xlink="http://www.w3.org/1999/xlink" viewBox="0 0 818.25 262.23"><defs><style>.cls-1{fill:none;}.cls-2{isolation:isolate;}.cls-3,.cls-4,.cls-5{fill:#afacd5;}.cls-23,.cls-3{opacity:0.2;}.cls-5,.cls-64{opacity:0.4;}.cls-23,.cls-39,.cls-5,.cls-60,.cls-61,.cls-62,.cls-64{mix-blend-mode:multiply;}.cls-6{opacity:0.7;}.cls-7{fill:#9795c8;}.cls-8{fill:#7575b6;}.cls-9{fill:#8484bf;}.cls-10{fill:#f89e1b;}.cls-11{clip-path:url(#clip-path);}.cls-12{fill:#e18526;}.cls-13{fill:#f9c51d;}.cls-14{clip-path:url(#clip-path-2);}.cls-15{clip-path:url(#clip-path-3);}.cls-16{clip-path:url(#clip-path-4);}.cls-17{clip-path:url(#clip-path-5);}.cls-18{clip-path:url(#clip-path-6);}.cls-19{clip-path:url(#clip-path-7);}.cls-20{clip-path:url(#clip-path-8);}.cls-21{clip-path:url(#clip-path-9);}.cls-22{clip-path:url(#clip-path-10);}.cls-24{clip-path:url(#clip-path-11);}.cls-25{clip-path:url(#clip-path-12);}.cls-26{clip-path:url(#clip-path-13);}.cls-27{clip-path:url(#clip-path-14);}.cls-28{clip-path:url(#clip-path-15);}.cls-29{clip-path:url(#clip-path-16);}.cls-30{clip-path:url(#clip-path-17);}.cls-31,.cls-61{fill:#fbaf28;}.cls-32{clip-path:url(#clip-path-18);}.cls-33{clip-path:url(#clip-path-19);}.cls-34{clip-path:url(#clip-path-20);}.cls-35{clip-path:url(#clip-path-21);}.cls-36{clip-path:url(#clip-path-22);}.cls-37{clip-path:url(#clip-path-23);}.cls-38{clip-path:url(#clip-path-24);}.cls-39{fill:#b58f5b;}.cls-39,.cls-60,.cls-61,.cls-62,.cls-65{opacity:0.5;}.cls-40{clip-path:url(#clip-path-25);}.cls-41,.cls-64,.cls-65{fill:#ffd353;}.cls-42{fill:#fce372;}.cls-43{fill:#ffe0bc;}.cls-44{fill:#ec9b80;}.cls-45{fill:#3a3a3a;}.cls-46{fill:#403e98;}.cls-47{fill:#6b65ac;}.cls-48{fill:#2b1f55;}.cls-49,.cls-60{fill:#5d5ca8;}.cls-50{clip-path:url(#clip-path-26);}.cls-51{clip-path:url(#clip-path-27);}.cls-52{clip-path:url(#clip-path-28);}.cls-53{fill:#d8826c;}.cls-54{fill:#fcbe65;}.cls-55{fill:#f9cf4d;}.cls-56{fill:#f8ad84;}.cls-57{fill:#594a60;}.cls-58{fill:#2e2f83;}.cls-59{fill:#f19c77;}.cls-62{fill:#ecbd59;}.cls-63{fill:#f6bb33;}.cls-65{mix-blend-mode:screen;}.cls-66{font-size:47.35px;font-family:Forza-Bold, Forza;font-weight:700;}.cls-66,.cls-70{fill:#fff;}.cls-67{fill:#2e3087;}.cls-68{fill:#3a3694;}.cls-69{fill:#f3a94a;}</style><clipPath id="clip-path"><path class="cls-1" d="M514.82,224v3.69c0,1.28-6.83,2.32-15.26,2.32s-15.25-1-15.25-2.32V224Z"/></clipPath><clipPath id="clip-path-2"><path class="cls-1" d="M517,219.86v3.68c0,1.28-6.82,2.32-15.25,2.32s-15.25-1-15.25-2.32v-3.68Z"/></clipPath><clipPath id="clip-path-3"><path class="cls-1" d="M514.55,215.66v3.69c0,1.28-6.83,2.32-15.25,2.32s-15.26-1-15.26-2.32v-3.69Z"/></clipPath><clipPath id="clip-path-4"><path class="cls-1" d="M633.68,218.64v3.69c0,1.28-6.83,2.31-15.25,2.31s-15.25-1-15.25-2.31v-3.69Z"/></clipPath><clipPath id="clip-path-5"><path class="cls-1" d="M635.89,214.47v3.69c0,1.28-6.83,2.32-15.25,2.32s-15.26-1-15.26-2.32v-3.69Z"/></clipPath><clipPath id="clip-path-6"><path class="cls-1" d="M633.41,210.28V214c0,1.28-6.83,2.31-15.25,2.31s-15.25-1-15.25-2.31v-3.69Z"/></clipPath><clipPath id="clip-path-7"><path class="cls-1" d="M632.34,206v3.69c0,1.28-6.83,2.31-15.26,2.31s-15.25-1-15.25-2.31V206Z"/></clipPath><clipPath id="clip-path-8"><path class="cls-1" d="M636,201.84v3.69c0,1.28-6.83,2.31-15.26,2.31s-15.25-1-15.25-2.31v-3.69Z"/></clipPath><clipPath id="clip-path-9"><path class="cls-1" d="M633,197.64v3.69c0,1.28-6.83,2.32-15.25,2.32s-15.25-1-15.25-2.32v-3.69Z"/></clipPath><clipPath id="clip-path-10"><path class="cls-1" d="M635.67,193.45v3.69c0,1.28-6.82,2.31-15.25,2.31s-15.25-1-15.25-2.31v-3.69Z"/></clipPath><clipPath id="clip-path-11"><path d="M633.68,218.64v3.69c0,1.28-6.83,2.31-15.25,2.31s-15.25-1-15.25-2.31v-3.69Z"/></clipPath><clipPath id="clip-path-12"><path d="M635.89,214.47v3.69c0,1.28-6.83,2.32-15.25,2.32s-15.26-1-15.26-2.32v-3.69Z"/></clipPath><clipPath id="clip-path-13"><path d="M633.41,210.28V214c0,1.28-6.83,2.31-15.25,2.31s-15.25-1-15.25-2.31v-3.69Z"/></clipPath><clipPath id="clip-path-14"><path d="M632.34,206v3.69c0,1.28-6.83,2.31-15.26,2.31s-15.25-1-15.25-2.31V206Z"/></clipPath><clipPath id="clip-path-15"><path d="M636,201.84v3.69c0,1.28-6.83,2.31-15.26,2.31s-15.25-1-15.25-2.31v-3.69Z"/></clipPath><clipPath id="clip-path-16"><path d="M633,197.64v3.69c0,1.28-6.83,2.32-15.25,2.32s-15.25-1-15.25-2.32v-3.69Z"/></clipPath><clipPath id="clip-path-17"><path d="M635.67,193.45v3.69c0,1.28-6.82,2.31-15.25,2.31s-15.25-1-15.25-2.31v-3.69Z"/></clipPath><clipPath id="clip-path-18"><path class="cls-1" d="M620.52,220.66v3.69c0,1.28,6.83,2.31,15.26,2.31s15.25-1,15.25-2.31v-3.69Z"/></clipPath><clipPath id="clip-path-19"><path class="cls-1" d="M618.32,216.49v3.69c0,1.28,6.82,2.32,15.25,2.32s15.25-1,15.25-2.32v-3.69Z"/></clipPath><clipPath id="clip-path-20"><path class="cls-1" d="M620.79,212.3V216c0,1.27,6.83,2.31,15.25,2.31s15.26-1,15.26-2.31V212.3Z"/></clipPath><clipPath id="clip-path-21"><path class="cls-1" d="M621.87,208.05v3.69c0,1.28,6.82,2.31,15.25,2.31s15.25-1,15.25-2.31v-3.69Z"/></clipPath><clipPath id="clip-path-22"><path class="cls-1" d="M618.23,203.86v3.69c0,1.27,6.82,2.31,15.25,2.31s15.25-1,15.25-2.31v-3.69Z"/></clipPath><clipPath id="clip-path-23"><path class="cls-1" d="M621.17,199.66v3.69c0,1.28,6.83,2.32,15.25,2.32s15.25-1,15.25-2.32v-3.69Z"/></clipPath><clipPath id="clip-path-24"><path class="cls-1" d="M618.53,195.47v3.69c0,1.28,6.83,2.31,15.25,2.31s15.25-1,15.25-2.31v-3.69Z"/></clipPath><clipPath id="clip-path-25"><path class="cls-1" d="M641.61,199.13l2.95-.68L652,230.93l-2.95.71c-7.85,1.8-15.89-4-18-13S633.75,200.94,641.61,199.13Z"/></clipPath><clipPath id="clip-path-26"><path class="cls-1" d="M702,142.28l0,2c0,.7-3.75,1.18-8.34,1.08s-8.3-.75-8.28-1.45l0-2Z"/></clipPath><clipPath id="clip-path-27"><path class="cls-1" d="M700.4,140l0,2c0,.7-3.74,1.18-8.33,1.08s-8.3-.75-8.28-1.45l0-2Z"/></clipPath><clipPath id="clip-path-28"><path class="cls-1" d="M701.89,137.71l0,2c0,.7-3.74,1.18-8.33,1.08s-8.3-.75-8.28-1.45l0-2Z"/></clipPath></defs><title>Asset 4</title><g class="cls-2"><g id="Layer_2" data-name="Layer 2"><g id="Layer_3" data-name="Layer 3"><rect class="cls-3" y="74.42" width="818.25" height="108.36"/><path class="cls-4" d="M527,215.06a1.15,1.15,0,0,0,0,.43,3,3,0,0,1-.2-.93,65.74,65.74,0,0,0-3.16-7.06c-.24-.46-.5-.92-.75-1.38-1.18-.33-3.93-.38-4.67-.56a15.4,15.4,0,0,1-4.78-1.69c-.55-.37-1.91-1.69-1.32-2.46s3.4.59,4.07,1a45.8,45.8,0,0,0,4.4,2.52,14.58,14.58,0,0,1,2.13.93,56.12,56.12,0,0,0-3.78-5.85c-1.14-.35-4-.4-4.73-.59a15.35,15.35,0,0,1-4.79-1.68c-.54-.38-1.9-1.69-1.31-2.47s3.4.59,4.07,1a48.12,48.12,0,0,0,4.4,2.53,14.74,14.74,0,0,1,2.11.91,52,52,0,0,0-4.79-5.58,50.21,50.21,0,0,0-3.75-3.4c-1.33.17-3.11.59-3.71.6a15.13,15.13,0,0,1-5.07-.37c-.62-.22-2.27-1.13-1.91-2s3.44-.32,4.18-.14a47.25,47.25,0,0,0,4.91,1.28l.91.1a50,50,0,0,0-5.63-3.85c-.54.17-1.13.24-1.69.36A38,38,0,0,0,498,188c-.62.2-3.15,1-3.57.14s1-1.63,1.51-1.85a12.89,12.89,0,0,1,4.29-.62c.48,0,1.88.19,3,.28-.94-.53-1.88-1-2.84-1.51a47.39,47.39,0,0,0-4.72-2,10.24,10.24,0,0,1-2.07.49,38.2,38.2,0,0,0-4.11,1.39c-.62.2-3.15,1-3.56.13s1-1.62,1.5-1.85a12.93,12.93,0,0,1,4.29-.62c.56,0,2.36.27,3.51.3a44.87,44.87,0,0,0-6.58-1.74,15.47,15.47,0,0,1-1.8.35,38,38,0,0,0-4.13,1.31c-.63.19-3.17.91-3.57.06s1-1.6,1.54-1.81a13,13,0,0,1,4.3-.55c.18,0,.48,0,.84.07,1.17,0,2.34.11,3.51.25l.1,0-.09,0a40.07,40.07,0,0,1,4.73.85A15.72,15.72,0,0,1,492.8,180a36.45,36.45,0,0,0-3.59-2.43c-.53-.38-2.68-1.92-2.26-2.76s1.89-.2,2.38.08a12.92,12.92,0,0,1,3.09,3c.41.49,1.46,2.53,2.16,3.33a43.1,43.1,0,0,1,4.31,1.36,10.78,10.78,0,0,1-1.37-1.56,42.22,42.22,0,0,0-3.17-2.95c-.47-.45-2.36-2.31-1.81-3.07s1.89.1,2.34.45a13,13,0,0,1,2.58,3.47c.36.59,1.15,3,1.73,3.79.57.22,1.14.45,1.7.69a44.73,44.73,0,0,1,6.69,3.66c-.12-.4-.22-.8-.35-1.2a38.71,38.71,0,0,0-1.79-3.94c-.26-.6-1.29-3-.49-3.54s1.71.82,2,1.31a13.16,13.16,0,0,1,1.05,4.21c.08.54,0,2.3,0,3.46A46.53,46.53,0,0,1,513.8,192c-.18-.46-.34-.92-.54-1.33a33.55,33.55,0,0,0-1.57-3,19.7,19.7,0,0,0-3.28-4.21.92.92,0,0,1,.79-1.58l.1,0c1.45.34,2.31,1.78,3,3.1.51,1,3.34,6.44,2.68,8.14a50.34,50.34,0,0,1,5.4,6.53c-.43-1.33-1.18-2.53-1.74-3.81-.26-.6-1.28-3.05-.48-3.54s1.71.82,2,1.31a12.9,12.9,0,0,1,1,4.21c.07.49,0,1.95,0,3.08a53.1,53.1,0,0,1,3.32,5.88c0-.28,0-.56,0-.84a39.35,39.35,0,0,0-.75-4.27c-.1-.64-.49-3.26.41-3.54s1.45,1.22,1.6,1.77a13.12,13.12,0,0,1,0,4.33c-.06.55-.61,2.23-.82,3.36q1.08,2.34,1.94,4.77c0-1.28-.3-2.55-.4-3.83,0-.65-.23-3.29.69-3.5s1.35,1.33,1.45,1.89a13.11,13.11,0,0,1-.37,4.31c-.09.44-.54,1.59-.88,2.6,1,3.08,4.37,5.76,4.81,8.94C531.46,220,528,217.71,527,215.06Z"/><path class="cls-5" d="M685.17,229c0,3-48.71,5-108.75,4.56-26.06-.21-50-.86-68.7-1.78-15.23-1.24-21-1.24-28.46-2-1.8-.16,1.53.17,0,0-7.36-.79-11.51-1.65-11.5-2.52,0-3,48.71-5,108.75-4.56S685.2,226,685.17,229Z"/><path class="cls-4" d="M551.66,209.31c0,.05-.21-4.53-7.1-8.59-7-4.34-21.57-2.81-23.68-7.31-2.21-4.82,7-4.23,10.76-8.1s5-5.75-.54-6.52-8.87-.95-9.12-5.49-9.14-1.84-13.85-4.92-2.58-7.73,6.25-8c8.69-.05,8.92-1.5,6.34-2.68s-10.25-3-7.18-5.56,8.1-.76,5.36-3.55-8.89-4.6-6.13-8,10.36-3.6,15.18,4.63,6.28,10.49,10.51,11.16,7.72-3.91,12.84-2.39,4.43,6.4,1.64,9.74-7.56,9.95-4.31,12.57,6.48-1.74,10.77-2.75c4.77-1.12,10.48,2.67,6.35,9.53-4.32,6.77-11.25,12.32-10.51,27.35C554.05,210,552.86,209.65,551.66,209.31Z"/><g class="cls-6"><path class="cls-7" d="M553.7,210.16a.24.24,0,0,1-.29-.18c-14.8-51.26-36.47-69.07-36.69-69.25a.26.26,0,0,1,.32-.4c.22.18,22,18.09,36.86,69.51a.26.26,0,0,1-.17.32Z"/></g><g class="cls-6"><path class="cls-7" d="M530.08,156.57a.29.29,0,0,1-.18,0,28.52,28.52,0,0,0-14.53-3.27.26.26,0,0,1-.28-.24.25.25,0,0,1,.23-.28,29.15,29.15,0,0,1,14.84,3.34.26.26,0,0,1-.08.48Z"/></g><g class="cls-6"><path class="cls-7" d="M538.57,171.13a.24.24,0,0,1-.2,0,.26.26,0,0,1-.06-.36,102.5,102.5,0,0,1,13.15-14.49.27.27,0,0,1,.37,0,.28.28,0,0,1,0,.37A102,102,0,0,0,538.73,171,.25.25,0,0,1,538.57,171.13Z"/></g><g class="cls-6"><path class="cls-7" d="M536.86,167.88h-.12c-12.42-3.57-25.81-2.44-25.94-2.42a.27.27,0,0,1-.28-.24.25.25,0,0,1,.24-.28c.13,0,13.61-1.15,26.12,2.44a.26.26,0,0,1,.18.32A.25.25,0,0,1,536.86,167.88Z"/></g><g class="cls-6"><path class="cls-7" d="M548.47,194.05h-.13c-8.57-3-22.41-2.22-22.55-2.21a.27.27,0,0,1-.28-.24.26.26,0,0,1,.25-.27c.14,0,14.08-.81,22.75,2.23a.26.26,0,0,1,.16.33A.27.27,0,0,1,548.47,194.05Z"/></g><g class="cls-6"><path class="cls-7" d="M549.73,197.59a.25.25,0,0,1-.12,0,.25.25,0,0,1-.18-.31c2.8-10.59,11.92-19.56,12-19.65a.25.25,0,0,1,.36,0,.27.27,0,0,1,0,.37c-.09.09-9.12,9-11.88,19.41A.27.27,0,0,1,549.73,197.59Z"/></g><path class="cls-8" d="M540.14,200.68s.47-18.64-14.21-20.35-9.39,19.48-3.09,26.42c0,0-8.16-9.6-13.59-3.12s9.82,13.92,9.82,13.92-12.21-4.14-15.59-1.33c-4.36,3.61,2.06,8,2.06,8s-11.35-4.36-8.59,5l62.77-.18Z"/><path class="cls-4" d="M616.82,197.54a.69.69,0,0,1,.11.3,2,2,0,0,0-.11-.69,48.17,48.17,0,0,1,.2-5.64c0-.38.09-.76.13-1.14.71-.54,2.56-1.3,3-1.63a10.82,10.82,0,0,0,2.79-2.42c.27-.4.82-1.66.21-2s-2.14,1.31-2.49,1.74a33.74,33.74,0,0,1-2.3,2.88,12.24,12.24,0,0,0-1.19,1.2,42.24,42.24,0,0,1,1-5c.68-.54,2.59-1.33,3.05-1.65a11.2,11.2,0,0,0,2.79-2.43c.26-.4.82-1.65.21-2s-2.14,1.31-2.5,1.74a33.78,33.78,0,0,1-2.29,2.89,10.12,10.12,0,0,0-1.18,1.18,37.34,37.34,0,0,1,1.72-5.07,33.69,33.69,0,0,1,1.61-3.31c1-.24,2.27-.43,2.68-.58a11.05,11.05,0,0,0,3.33-1.61c.37-.31,1.24-1.38.74-1.89s-2.42.7-2.87,1a33.44,33.44,0,0,1-3,2.18c-.19.11-.39.21-.59.31a36.62,36.62,0,0,1,2.77-4.12,10.7,10.7,0,0,0,1.24-.21,30.25,30.25,0,0,1,3.16-.15c.48,0,2.41-.17,2.46-.86s-1.12-.84-1.53-.85a9.22,9.22,0,0,0-3.08.72c-.34.11-1.23.63-2,1,.49-.61,1-1.21,1.51-1.78A32.64,32.64,0,0,1,629.1,167a8.06,8.06,0,0,0,1.53-.22,27.93,27.93,0,0,1,3.17-.16c.48,0,2.41-.17,2.46-.86s-1.12-.84-1.53-.85a9.61,9.61,0,0,0-3.08.72c-.39.13-1.53.81-2.3,1.14a33.08,33.08,0,0,1,4-2.94,11.61,11.61,0,0,0,1.31-.24,27.81,27.81,0,0,1,3.17-.21c.47,0,2.4-.23,2.44-.91s-1.14-.82-1.55-.83a9.65,9.65,0,0,0-3.06.78c-.13,0-.32.15-.55.27-.79.33-1.56.7-2.32,1.11h0a28.39,28.39,0,0,0-3,1.84c.22-.35.38-.75.57-1.13a28.49,28.49,0,0,1,1.77-2.61c.26-.39,1.29-2,.78-2.48s-1.34.38-1.59.7a9.26,9.26,0,0,0-1.27,2.89c-.14.44-.3,2.11-.55,2.84A29.56,29.56,0,0,0,627,168a7.46,7.46,0,0,0,.5-1.42,30.77,30.77,0,0,1,1.34-2.85c.2-.44,1-2.2.39-2.58s-1.26.57-1.47.93a9.68,9.68,0,0,0-.8,3.05c-.08.5.05,2.35-.13,3-.32.3-.65.61-1,.92a32.32,32.32,0,0,0-3.54,4.28c0-.31-.06-.61-.09-.91a27.83,27.83,0,0,1,.13-3.16c0-.48,0-2.41-.63-2.54s-.94,1-1,1.43a9.39,9.39,0,0,0,.44,3.14c.09.39.65,1.55.92,2.36a32.12,32.12,0,0,0-2.64,4.68c0-.36,0-.72,0-1.05.05-.83.12-1.66.24-2.49a14.23,14.23,0,0,1,1.07-3.73.68.68,0,0,0-1-.86l-.07,0a3.78,3.78,0,0,0-1.16,2.91c-.08.81-.5,5.26.42,6.25a35.81,35.81,0,0,0-1.88,5.87c-.07-1,.11-2,.13-3.05,0-.48,0-2.41-.64-2.54s-.93,1-1,1.43a9.39,9.39,0,0,0,.44,3.14c.09.35.55,1.32.83,2.1a36.39,36.39,0,0,0-.63,4.88c-.08-.2-.15-.39-.22-.58a27.11,27.11,0,0,1-.66-3.1c-.11-.47-.57-2.35-1.26-2.3s-.65,1.22-.59,1.63a9.47,9.47,0,0,0,1.21,2.93c.19.36,1,1.36,1.48,2.07-.06,1.25-.06,2.51,0,3.76-.34-.88-.51-1.81-.79-2.71-.14-.46-.75-2.3-1.43-2.2s-.55,1.27-.46,1.67a9.4,9.4,0,0,0,1.44,2.84c.17.27.8.93,1.3,1.53.18,2.36-1.38,5.08-.8,7.36C615.13,202.07,616.88,199.61,616.82,197.54Z"/><path class="cls-4" d="M596.83,209.65c.06,0-1.49-4.28,3.4-10.61,4.91-6.63,19-10.62,19.27-15.58.27-5.29-8.07-1.32-13-3.52s-6.79-3.48-1.92-6.26,7.88-4.17,6.43-8.48,7.8-5.1,11-9.72-.47-8.13-8.77-5.11c-8.09,3.18-8.84,1.92-6.89-.14s8.41-6.6,4.61-7.82-7.8,2.3-6.3-1.31,6.55-7.57,2.73-9.71-11,.51-12.38,10-1.94,12.06-5.61,14.26-8.63-.77-12.82,2.54-1.73,7.59,2.09,9.66,10.72,6.43,8.68,10.07-6.67.79-11,1.45c-4.84.72-8.74,6.36-2.35,11.2,6.52,4.69,15,7.27,19.91,21.49C594.88,211.21,595.85,210.42,596.83,209.65Z"/><g class="cls-6"><path class="cls-7" d="M595.25,211.2a.25.25,0,0,0,.21-.27c-5.3-53.1,8.22-77.68,8.35-77.92a.27.27,0,0,0-.09-.36.26.26,0,0,0-.35.1c-.14.25-13.74,25-8.42,78.23a.26.26,0,0,0,.28.23Z"/></g><g class="cls-6"><path class="cls-7" d="M597.29,152.67a.24.24,0,0,0,.15-.09,28.61,28.61,0,0,1,12.28-8.44.26.26,0,0,0,.17-.32.24.24,0,0,0-.32-.17A29.12,29.12,0,0,0,597,152.26a.26.26,0,0,0,0,.36A.23.23,0,0,0,597.29,152.67Z"/></g><g class="cls-6"><path class="cls-7" d="M594.81,169.34a.25.25,0,0,0,.17-.11.26.26,0,0,0-.08-.36,102.4,102.4,0,0,0-17.59-8.58.26.26,0,0,0-.33.16.26.26,0,0,0,.15.33,102,102,0,0,1,17.49,8.52A.27.27,0,0,0,594.81,169.34Z"/></g><g class="cls-6"><path class="cls-7" d="M595.19,165.69a.16.16,0,0,0,.11-.05c10.21-7.92,23.06-11.84,23.19-11.87a.27.27,0,0,0,.17-.33.25.25,0,0,0-.32-.17c-.13,0-13.07,4-23.35,12a.25.25,0,0,0,.2.45Z"/></g><g class="cls-6"><path class="cls-7" d="M594.12,194.3a.23.23,0,0,0,.12-.06c6.84-6,20-10.38,20.13-10.42a.26.26,0,0,0,.16-.33.26.26,0,0,0-.33-.16c-.13,0-13.38,4.48-20.3,10.52a.26.26,0,0,0,0,.36A.24.24,0,0,0,594.12,194.3Z"/></g><g class="cls-6"><path class="cls-7" d="M594.27,198.05l.11,0a.26.26,0,0,0,0-.36c-6.53-8.8-18.33-13.74-18.45-13.79a.26.26,0,0,0-.2.48c.12,0,11.8,4.94,18.24,13.61A.23.23,0,0,0,594.27,198.05Z"/></g><path class="cls-9" d="M598.27,196.12s-.46-18.64,14.22-20.35,9.38,19.48,3.09,26.42c0,0,8.15-9.6,13.59-3.12S619.35,213,619.35,213s12.2-4.14,15.58-1.33c4.36,3.61-3.9,8.87-3.9,8.87s13.2-5.26,10.43,4.11l-62.77-.18Z"/><path class="cls-10" d="M514.82,224v3.69c0,1.28-6.83,2.32-15.26,2.32s-15.25-1-15.25-2.32V224Z"/><g class="cls-11"><rect class="cls-12" x="513.76" y="222.49" width="0.72" height="8.46"/><rect class="cls-12" x="511.89" y="222.49" width="0.72" height="8.46"/><rect class="cls-12" x="509.75" y="222.49" width="0.72" height="8.46"/><rect class="cls-12" x="507.08" y="222.49" width="0.72" height="8.46"/><rect class="cls-12" x="504.15" y="222.49" width="0.72" height="8.46"/><rect class="cls-12" x="500.95" y="222.49" width="0.72" height="8.46"/><rect class="cls-12" x="484.65" y="222.49" width="0.72" height="8.46"/><rect class="cls-12" x="486.52" y="222.49" width="0.72" height="8.46"/><rect class="cls-12" x="488.66" y="222.49" width="0.72" height="8.46"/><rect class="cls-12" x="491.32" y="222.49" width="0.72" height="8.46"/><rect class="cls-12" x="494.26" y="222.49" width="0.72" height="8.46"/><rect class="cls-12" x="497.45" y="222.49" width="0.72" height="8.46"/></g><path class="cls-13" d="M484.31,224c0,1.28,6.83,2.32,15.25,2.32s15.26-1,15.26-2.32-6.83-2.31-15.26-2.31S484.31,222.67,484.31,224Z"/><path class="cls-10" d="M487.44,223.71c0,.59,5.43,1.07,12.12,1.07s12.13-.48,12.13-1.07-5.43-1.08-12.13-1.08S487.44,223.12,487.44,223.71Z"/><path class="cls-12" d="M511.17,224c-1.51-.44-6.14-.76-11.61-.76s-10.09.32-11.6.76c-.34-.1-.52-.2-.52-.31,0-.59,5.43-1.08,12.12-1.08s12.13.49,12.13,1.08C511.69,223.82,511.51,223.92,511.17,224Z"/><path class="cls-10" d="M517,219.86v3.68c0,1.28-6.82,2.32-15.25,2.32s-15.25-1-15.25-2.32v-3.68Z"/><g class="cls-14"><rect class="cls-12" x="515.97" y="218.32" width="0.72" height="8.46"/><rect class="cls-12" x="514.1" y="218.32" width="0.72" height="8.46"/><rect class="cls-12" x="511.96" y="218.32" width="0.72" height="8.46"/><rect class="cls-12" x="509.29" y="218.32" width="0.72" height="8.46"/><rect class="cls-12" x="506.36" y="218.32" width="0.72" height="8.46"/><rect class="cls-12" x="503.16" y="218.32" width="0.72" height="8.46"/><rect class="cls-12" x="486.86" y="218.32" width="0.72" height="8.46"/><rect class="cls-12" x="488.73" y="218.32" width="0.72" height="8.46"/><rect class="cls-12" x="490.87" y="218.32" width="0.72" height="8.46"/><rect class="cls-12" x="493.53" y="218.32" width="0.72" height="8.46"/><rect class="cls-12" x="496.46" y="218.32" width="0.72" height="8.46"/><rect class="cls-12" x="499.66" y="218.32" width="0.72" height="8.46"/></g><path class="cls-13" d="M486.52,219.79c0,1.27,6.83,2.31,15.25,2.31s15.25-1,15.25-2.31-6.82-2.32-15.25-2.32S486.52,218.51,486.52,219.79Z"/><path class="cls-10" d="M489.65,219.54c0,.6,5.43,1.08,12.12,1.08s12.13-.48,12.13-1.08-5.43-1.07-12.13-1.07S489.65,219,489.65,219.54Z"/><path class="cls-12" d="M513.38,219.86c-1.52-.45-6.14-.77-11.61-.77s-10.09.32-11.6.77c-.34-.1-.52-.21-.52-.32,0-.59,5.43-1.07,12.12-1.07s12.13.48,12.13,1.07C513.9,219.65,513.71,219.76,513.38,219.86Z"/><path class="cls-10" d="M514.55,215.66v3.69c0,1.28-6.83,2.32-15.25,2.32s-15.26-1-15.26-2.32v-3.69Z"/><g class="cls-15"><rect class="cls-12" x="513.49" y="214.13" width="0.72" height="8.46"/><rect class="cls-12" x="511.62" y="214.13" width="0.72" height="8.46"/><rect class="cls-12" x="509.48" y="214.13" width="0.72" height="8.46"/><rect class="cls-12" x="506.81" y="214.13" width="0.72" height="8.46"/><rect class="cls-12" x="503.88" y="214.13" width="0.72" height="8.46"/><rect class="cls-12" x="500.69" y="214.13" width="0.72" height="8.46"/><rect class="cls-12" x="484.38" y="214.13" width="0.72" height="8.46"/><rect class="cls-12" x="486.25" y="214.13" width="0.72" height="8.46"/><rect class="cls-12" x="488.39" y="214.13" width="0.72" height="8.46"/><rect class="cls-12" x="491.05" y="214.13" width="0.72" height="8.46"/><rect class="cls-12" x="493.99" y="214.13" width="0.72" height="8.46"/><rect class="cls-12" x="497.18" y="214.13" width="0.72" height="8.46"/></g><path class="cls-13" d="M484,215.59c0,1.28,6.83,2.32,15.26,2.32s15.25-1,15.25-2.32-6.83-2.31-15.25-2.31S484,214.31,484,215.59Z"/><path class="cls-10" d="M487.17,215.35c0,.59,5.43,1.07,12.13,1.07s12.12-.48,12.12-1.07-5.43-1.08-12.12-1.08S487.17,214.75,487.17,215.35Z"/><path class="cls-12" d="M510.9,215.66c-1.51-.44-6.14-.76-11.6-.76s-10.1.32-11.61.76c-.34-.1-.52-.2-.52-.31,0-.6,5.43-1.08,12.13-1.08s12.12.48,12.12,1.08C511.42,215.46,511.24,215.56,510.9,215.66Z"/><path class="cls-10" d="M633.68,218.64v3.69c0,1.28-6.83,2.31-15.25,2.31s-15.25-1-15.25-2.31v-3.69Z"/><g class="cls-16"><rect class="cls-12" x="632.62" y="217.11" width="0.72" height="8.46"/><rect class="cls-12" x="630.75" y="217.11" width="0.72" height="8.46"/><rect class="cls-12" x="628.61" y="217.11" width="0.72" height="8.46"/><rect class="cls-12" x="625.95" y="217.11" width="0.72" height="8.46"/><rect class="cls-12" x="623.01" y="217.11" width="0.72" height="8.46"/><rect class="cls-12" x="619.82" y="217.11" width="0.72" height="8.46"/><rect class="cls-12" x="603.51" y="217.11" width="0.72" height="8.46"/><rect class="cls-12" x="605.38" y="217.11" width="0.72" height="8.46"/><rect class="cls-12" x="607.52" y="217.11" width="0.72" height="8.46"/><rect class="cls-12" x="610.19" y="217.11" width="0.72" height="8.46"/><rect class="cls-12" x="613.12" y="217.11" width="0.72" height="8.46"/><rect class="cls-12" x="616.31" y="217.11" width="0.72" height="8.46"/></g><path class="cls-13" d="M603.18,218.57c0,1.28,6.82,2.32,15.25,2.32s15.25-1,15.25-2.32-6.83-2.32-15.25-2.32S603.18,217.29,603.18,218.57Z"/><ellipse class="cls-10" cx="618.43" cy="218.33" rx="12.12" ry="1.07"/><path class="cls-12" d="M630,218.64c-1.51-.44-6.13-.76-11.6-.76s-10.09.32-11.61.76c-.33-.1-.52-.21-.52-.31,0-.6,5.43-1.08,12.13-1.08s12.12.48,12.12,1.08C630.55,218.43,630.37,218.54,630,218.64Z"/><path class="cls-10" d="M635.89,214.47v3.69c0,1.28-6.83,2.32-15.25,2.32s-15.26-1-15.26-2.32v-3.69Z"/><g class="cls-17"><rect class="cls-12" x="634.83" y="212.94" width="0.72" height="8.46"/><rect class="cls-12" x="632.96" y="212.94" width="0.72" height="8.46"/><rect class="cls-12" x="630.82" y="212.94" width="0.72" height="8.46"/><rect class="cls-12" x="628.15" y="212.94" width="0.72" height="8.46"/><rect class="cls-12" x="625.22" y="212.94" width="0.72" height="8.46"/><rect class="cls-12" x="622.03" y="212.94" width="0.72" height="8.46"/><rect class="cls-12" x="605.72" y="212.94" width="0.72" height="8.46"/><rect class="cls-12" x="607.59" y="212.94" width="0.72" height="8.46"/><rect class="cls-12" x="609.73" y="212.94" width="0.72" height="8.46"/><rect class="cls-12" x="612.39" y="212.94" width="0.72" height="8.46"/><rect class="cls-12" x="615.33" y="212.94" width="0.72" height="8.46"/><rect class="cls-12" x="618.52" y="212.94" width="0.72" height="8.46"/></g><path class="cls-13" d="M605.38,214.4c0,1.28,6.83,2.32,15.26,2.32s15.25-1,15.25-2.32-6.83-2.31-15.25-2.31S605.38,213.12,605.38,214.4Z"/><path class="cls-10" d="M608.51,214.16c0,.59,5.43,1.07,12.13,1.07s12.12-.48,12.12-1.07-5.43-1.08-12.12-1.08S608.51,213.57,608.51,214.16Z"/><path class="cls-12" d="M632.24,214.47c-1.51-.44-6.14-.76-11.6-.76s-10.1.32-11.61.76c-.34-.1-.52-.2-.52-.31,0-.59,5.43-1.08,12.13-1.08s12.12.49,12.12,1.08C632.76,214.27,632.58,214.37,632.24,214.47Z"/><path class="cls-10" d="M633.41,210.28V214c0,1.28-6.83,2.31-15.25,2.31s-15.25-1-15.25-2.31v-3.69Z"/><g class="cls-18"><rect class="cls-12" x="632.35" y="208.75" width="0.72" height="8.46"/><rect class="cls-12" x="630.48" y="208.75" width="0.72" height="8.46"/><rect class="cls-12" x="628.34" y="208.75" width="0.72" height="8.46"/><rect class="cls-12" x="625.68" y="208.75" width="0.72" height="8.46"/><rect class="cls-12" x="622.74" y="208.75" width="0.72" height="8.46"/><rect class="cls-12" x="619.55" y="208.75" width="0.72" height="8.46"/><rect class="cls-12" x="603.24" y="208.75" width="0.72" height="8.46"/><rect class="cls-12" x="605.11" y="208.75" width="0.72" height="8.46"/><rect class="cls-12" x="607.25" y="208.75" width="0.72" height="8.46"/><rect class="cls-12" x="609.92" y="208.75" width="0.72" height="8.46"/><rect class="cls-12" x="612.85" y="208.75" width="0.72" height="8.46"/><rect class="cls-12" x="616.04" y="208.75" width="0.72" height="8.46"/></g><path class="cls-13" d="M602.91,210.21c0,1.28,6.82,2.31,15.25,2.31s15.25-1,15.25-2.31-6.83-2.32-15.25-2.32S602.91,208.93,602.91,210.21Z"/><path class="cls-10" d="M606,210c0,.59,5.43,1.07,12.13,1.07s12.12-.48,12.12-1.07-5.43-1.08-12.12-1.08S606,209.37,606,210Z"/><path class="cls-12" d="M629.76,210.28c-1.51-.44-6.13-.76-11.6-.76s-10.09.32-11.6.76c-.34-.1-.53-.21-.53-.31,0-.6,5.43-1.08,12.13-1.08s12.12.48,12.12,1.08C630.28,210.07,630.1,210.18,629.76,210.28Z"/><path class="cls-10" d="M632.34,206v3.69c0,1.28-6.83,2.31-15.26,2.31s-15.25-1-15.25-2.31V206Z"/><g class="cls-19"><rect class="cls-12" x="631.28" y="204.5" width="0.72" height="8.46"/><rect class="cls-12" x="629.41" y="204.5" width="0.72" height="8.46"/><rect class="cls-12" x="627.27" y="204.5" width="0.72" height="8.46"/><rect class="cls-12" x="624.6" y="204.5" width="0.72" height="8.46"/><rect class="cls-12" x="621.67" y="204.5" width="0.72" height="8.46"/><rect class="cls-12" x="618.47" y="204.5" width="0.72" height="8.46"/><rect class="cls-12" x="602.17" y="204.5" width="0.72" height="8.46"/><rect class="cls-12" x="604.04" y="204.5" width="0.72" height="8.46"/><rect class="cls-12" x="606.18" y="204.5" width="0.72" height="8.46"/><rect class="cls-12" x="608.84" y="204.5" width="0.72" height="8.46"/><rect class="cls-12" x="611.78" y="204.5" width="0.72" height="8.46"/><rect class="cls-12" x="614.97" y="204.5" width="0.72" height="8.46"/></g><path class="cls-13" d="M601.83,206c0,1.28,6.83,2.32,15.25,2.32s15.26-1,15.26-2.32-6.83-2.31-15.26-2.31S601.83,204.68,601.83,206Z"/><path class="cls-10" d="M605,205.72c0,.59,5.43,1.07,12.12,1.07s12.13-.48,12.13-1.07-5.43-1.08-12.13-1.08S605,205.12,605,205.72Z"/><path class="cls-12" d="M628.69,206c-1.51-.44-6.14-.76-11.61-.76s-10.09.32-11.6.76c-.34-.1-.52-.2-.52-.31,0-.6,5.43-1.08,12.12-1.08s12.13.48,12.13,1.08C629.21,205.83,629,205.93,628.69,206Z"/><path class="cls-10" d="M636,201.84v3.69c0,1.28-6.83,2.31-15.26,2.31s-15.25-1-15.25-2.31v-3.69Z"/><g class="cls-20"><rect class="cls-12" x="634.92" y="200.31" width="0.72" height="8.46"/><rect class="cls-12" x="633.05" y="200.31" width="0.72" height="8.46"/><rect class="cls-12" x="630.91" y="200.31" width="0.72" height="8.46"/><rect class="cls-12" x="628.24" y="200.31" width="0.72" height="8.46"/><rect class="cls-12" x="625.31" y="200.31" width="0.72" height="8.46"/><rect class="cls-12" x="622.11" y="200.31" width="0.72" height="8.46"/><rect class="cls-12" x="605.81" y="200.31" width="0.72" height="8.46"/><rect class="cls-12" x="607.68" y="200.31" width="0.72" height="8.46"/><rect class="cls-12" x="609.82" y="200.31" width="0.72" height="8.46"/><rect class="cls-12" x="612.48" y="200.31" width="0.72" height="8.46"/><rect class="cls-12" x="615.42" y="200.31" width="0.72" height="8.46"/><rect class="cls-12" x="618.61" y="200.31" width="0.72" height="8.46"/></g><path class="cls-13" d="M605.47,201.77c0,1.28,6.83,2.31,15.25,2.31s15.26-1,15.26-2.31-6.83-2.32-15.26-2.32S605.47,200.49,605.47,201.77Z"/><path class="cls-10" d="M608.6,201.53c0,.59,5.43,1.07,12.12,1.07s12.13-.48,12.13-1.07-5.43-1.08-12.13-1.08S608.6,200.93,608.6,201.53Z"/><path class="cls-12" d="M632.33,201.84c-1.51-.44-6.14-.76-11.61-.76s-10.09.32-11.6.76c-.34-.1-.52-.21-.52-.31,0-.6,5.43-1.08,12.12-1.08s12.13.48,12.13,1.08C632.85,201.63,632.66,201.74,632.33,201.84Z"/><path class="cls-10" d="M633,197.64v3.69c0,1.28-6.83,2.32-15.25,2.32s-15.25-1-15.25-2.32v-3.69Z"/><g class="cls-21"><rect class="cls-12" x="631.98" y="196.11" width="0.72" height="8.46"/><rect class="cls-12" x="630.1" y="196.11" width="0.72" height="8.46"/><rect class="cls-12" x="627.97" y="196.11" width="0.72" height="8.46"/><rect class="cls-12" x="625.3" y="196.11" width="0.72" height="8.46"/><rect class="cls-12" x="622.37" y="196.11" width="0.72" height="8.46"/><rect class="cls-12" x="619.17" y="196.11" width="0.72" height="8.46"/><rect class="cls-12" x="602.86" y="196.11" width="0.72" height="8.46"/><rect class="cls-12" x="604.74" y="196.11" width="0.72" height="8.46"/><rect class="cls-12" x="606.87" y="196.11" width="0.72" height="8.46"/><rect class="cls-12" x="609.54" y="196.11" width="0.72" height="8.46"/><rect class="cls-12" x="612.47" y="196.11" width="0.72" height="8.46"/><rect class="cls-12" x="615.67" y="196.11" width="0.72" height="8.46"/></g><path class="cls-13" d="M602.53,197.57c0,1.28,6.83,2.32,15.25,2.32s15.25-1,15.25-2.32-6.83-2.31-15.25-2.31S602.53,196.3,602.53,197.57Z"/><ellipse class="cls-10" cx="617.78" cy="197.33" rx="12.12" ry="1.07"/><path class="cls-12" d="M629.38,197.64c-1.51-.44-6.13-.76-11.6-.76s-10.09.32-11.6.76c-.34-.1-.52-.2-.52-.31,0-.59,5.42-1.07,12.12-1.07s12.13.48,12.13,1.07C629.91,197.44,629.72,197.54,629.38,197.64Z"/><path class="cls-10" d="M635.67,193.45v3.69c0,1.28-6.82,2.31-15.25,2.31s-15.25-1-15.25-2.31v-3.69Z"/><g class="cls-22"><rect class="cls-12" x="634.62" y="191.92" width="0.72" height="8.46"/><rect class="cls-12" x="632.75" y="191.92" width="0.72" height="8.46"/><rect class="cls-12" x="630.61" y="191.92" width="0.72" height="8.46"/><rect class="cls-12" x="627.94" y="191.92" width="0.72" height="8.46"/><rect class="cls-12" x="625.01" y="191.92" width="0.72" height="8.46"/><rect class="cls-12" x="621.81" y="191.92" width="0.72" height="8.46"/><rect class="cls-12" x="605.51" y="191.92" width="0.72" height="8.46"/><rect class="cls-12" x="607.38" y="191.92" width="0.72" height="8.46"/><rect class="cls-12" x="609.51" y="191.92" width="0.72" height="8.46"/><rect class="cls-12" x="612.18" y="191.92" width="0.72" height="8.46"/><rect class="cls-12" x="615.11" y="191.92" width="0.72" height="8.46"/><rect class="cls-12" x="618.31" y="191.92" width="0.72" height="8.46"/></g><path class="cls-13" d="M605.17,193.38c0,1.28,6.83,2.32,15.25,2.32s15.25-1,15.25-2.32-6.82-2.32-15.25-2.32S605.17,192.1,605.17,193.38Z"/><path class="cls-10" d="M608.3,193.14c0,.59,5.43,1.07,12.12,1.07s12.13-.48,12.13-1.07-5.43-1.08-12.13-1.08S608.3,192.54,608.3,193.14Z"/><path class="cls-12" d="M632,193.45c-1.51-.44-6.13-.76-11.6-.76s-10.09.32-11.6.76c-.34-.1-.52-.2-.52-.31,0-.6,5.43-1.08,12.12-1.08s12.13.48,12.13,1.08C632.55,193.25,632.36,193.35,632,193.45Z"/><g class="cls-23"><path d="M633.68,218.64v3.69c0,1.28-6.83,2.31-15.25,2.31s-15.25-1-15.25-2.31v-3.69Z"/><path d="M633.68,218.64v3.69c0,1.28-6.83,2.31-15.25,2.31s-15.25-1-15.25-2.31v-3.69Z"/><g class="cls-24"><rect x="632.62" y="217.11" width="0.72" height="8.46"/><rect x="630.75" y="217.11" width="0.72" height="8.46"/><rect x="628.61" y="217.11" width="0.72" height="8.46"/><rect x="625.95" y="217.11" width="0.72" height="8.46"/><rect x="623.01" y="217.11" width="0.72" height="8.46"/><rect x="619.82" y="217.11" width="0.72" height="8.46"/><rect x="603.51" y="217.11" width="0.72" height="8.46"/><rect x="605.38" y="217.11" width="0.72" height="8.46"/><rect x="607.52" y="217.11" width="0.72" height="8.46"/><rect x="610.19" y="217.11" width="0.72" height="8.46"/><rect x="613.12" y="217.11" width="0.72" height="8.46"/><rect x="616.31" y="217.11" width="0.72" height="8.46"/></g><path d="M603.18,218.57c0,1.28,6.82,2.32,15.25,2.32s15.25-1,15.25-2.32-6.83-2.32-15.25-2.32S603.18,217.29,603.18,218.57Z"/><ellipse cx="618.43" cy="218.33" rx="12.12" ry="1.07"/><path d="M630,218.64c-1.51-.44-6.13-.76-11.6-.76s-10.09.32-11.61.76c-.33-.1-.52-.21-.52-.31,0-.6,5.43-1.08,12.13-1.08s12.12.48,12.12,1.08C630.55,218.43,630.37,218.54,630,218.64Z"/><path d="M635.89,214.47v3.69c0,1.28-6.83,2.32-15.25,2.32s-15.26-1-15.26-2.32v-3.69Z"/><path d="M635.89,214.47v3.69c0,1.28-6.83,2.32-15.25,2.32s-15.26-1-15.26-2.32v-3.69Z"/><g class="cls-25"><rect x="634.83" y="212.94" width="0.72" height="8.46"/><rect x="632.96" y="212.94" width="0.72" height="8.46"/><rect x="630.82" y="212.94" width="0.72" height="8.46"/><rect x="628.15" y="212.94" width="0.72" height="8.46"/><rect x="625.22" y="212.94" width="0.72" height="8.46"/><rect x="622.03" y="212.94" width="0.72" height="8.46"/><rect x="605.72" y="212.94" width="0.72" height="8.46"/><rect x="607.59" y="212.94" width="0.72" height="8.46"/><rect x="609.73" y="212.94" width="0.72" height="8.46"/><rect x="612.39" y="212.94" width="0.72" height="8.46"/><rect x="615.33" y="212.94" width="0.72" height="8.46"/><rect x="618.52" y="212.94" width="0.72" height="8.46"/></g><path d="M605.38,214.4c0,1.28,6.83,2.32,15.26,2.32s15.25-1,15.25-2.32-6.83-2.31-15.25-2.31S605.38,213.12,605.38,214.4Z"/><path d="M608.51,214.16c0,.59,5.43,1.07,12.13,1.07s12.12-.48,12.12-1.07-5.43-1.08-12.12-1.08S608.51,213.57,608.51,214.16Z"/><path d="M632.24,214.47c-1.51-.44-6.14-.76-11.6-.76s-10.1.32-11.61.76c-.34-.1-.52-.2-.52-.31,0-.59,5.43-1.08,12.13-1.08s12.12.49,12.12,1.08C632.76,214.27,632.58,214.37,632.24,214.47Z"/><path d="M633.41,210.28V214c0,1.28-6.83,2.31-15.25,2.31s-15.25-1-15.25-2.31v-3.69Z"/><path d="M633.41,210.28V214c0,1.28-6.83,2.31-15.25,2.31s-15.25-1-15.25-2.31v-3.69Z"/><g class="cls-26"><rect x="632.35" y="208.75" width="0.72" height="8.46"/><rect x="630.48" y="208.75" width="0.72" height="8.46"/><rect x="628.34" y="208.75" width="0.72" height="8.46"/><rect x="625.68" y="208.75" width="0.72" height="8.46"/><rect x="622.74" y="208.75" width="0.72" height="8.46"/><rect x="619.55" y="208.75" width="0.72" height="8.46"/><rect x="603.24" y="208.75" width="0.72" height="8.46"/><rect x="605.11" y="208.75" width="0.72" height="8.46"/><rect x="607.25" y="208.75" width="0.72" height="8.46"/><rect x="609.92" y="208.75" width="0.72" height="8.46"/><rect x="612.85" y="208.75" width="0.72" height="8.46"/><rect x="616.04" y="208.75" width="0.72" height="8.46"/></g><path d="M602.91,210.21c0,1.28,6.82,2.31,15.25,2.31s15.25-1,15.25-2.31-6.83-2.32-15.25-2.32S602.91,208.93,602.91,210.21Z"/><path d="M606,210c0,.59,5.43,1.07,12.13,1.07s12.12-.48,12.12-1.07-5.43-1.08-12.12-1.08S606,209.37,606,210Z"/><path d="M629.76,210.28c-1.51-.44-6.13-.76-11.6-.76s-10.09.32-11.6.76c-.34-.1-.53-.21-.53-.31,0-.6,5.43-1.08,12.13-1.08s12.12.48,12.12,1.08C630.28,210.07,630.1,210.18,629.76,210.28Z"/><path d="M632.34,206v3.69c0,1.28-6.83,2.31-15.26,2.31s-15.25-1-15.25-2.31V206Z"/><path d="M632.34,206v3.69c0,1.28-6.83,2.31-15.26,2.31s-15.25-1-15.25-2.31V206Z"/><g class="cls-27"><rect x="631.28" y="204.5" width="0.72" height="8.46"/><rect x="629.41" y="204.5" width="0.72" height="8.46"/><rect x="627.27" y="204.5" width="0.72" height="8.46"/><rect x="624.6" y="204.5" width="0.72" height="8.46"/><rect x="621.67" y="204.5" width="0.72" height="8.46"/><rect x="618.47" y="204.5" width="0.72" height="8.46"/><rect x="602.17" y="204.5" width="0.72" height="8.46"/><rect x="604.04" y="204.5" width="0.72" height="8.46"/><rect x="606.18" y="204.5" width="0.72" height="8.46"/><rect x="608.84" y="204.5" width="0.72" height="8.46"/><rect x="611.78" y="204.5" width="0.72" height="8.46"/><rect x="614.97" y="204.5" width="0.72" height="8.46"/></g><path d="M601.83,206c0,1.28,6.83,2.32,15.25,2.32s15.26-1,15.26-2.32-6.83-2.31-15.26-2.31S601.83,204.68,601.83,206Z"/><path d="M605,205.72c0,.59,5.43,1.07,12.12,1.07s12.13-.48,12.13-1.07-5.43-1.08-12.13-1.08S605,205.12,605,205.72Z"/><path d="M628.69,206c-1.51-.44-6.14-.76-11.61-.76s-10.09.32-11.6.76c-.34-.1-.52-.2-.52-.31,0-.6,5.43-1.08,12.12-1.08s12.13.48,12.13,1.08C629.21,205.83,629,205.93,628.69,206Z"/><path d="M636,201.84v3.69c0,1.28-6.83,2.31-15.26,2.31s-15.25-1-15.25-2.31v-3.69Z"/><path d="M636,201.84v3.69c0,1.28-6.83,2.31-15.26,2.31s-15.25-1-15.25-2.31v-3.69Z"/><g class="cls-28"><rect x="634.92" y="200.31" width="0.72" height="8.46"/><rect x="633.05" y="200.31" width="0.72" height="8.46"/><rect x="630.91" y="200.31" width="0.72" height="8.46"/><rect x="628.24" y="200.31" width="0.72" height="8.46"/><rect x="625.31" y="200.31" width="0.72" height="8.46"/><rect x="622.11" y="200.31" width="0.72" height="8.46"/><rect x="605.81" y="200.31" width="0.72" height="8.46"/><rect x="607.68" y="200.31" width="0.72" height="8.46"/><rect x="609.82" y="200.31" width="0.72" height="8.46"/><rect x="612.48" y="200.31" width="0.72" height="8.46"/><rect x="615.42" y="200.31" width="0.72" height="8.46"/><rect x="618.61" y="200.31" width="0.72" height="8.46"/></g><path d="M605.47,201.77c0,1.28,6.83,2.31,15.25,2.31s15.26-1,15.26-2.31-6.83-2.32-15.26-2.32S605.47,200.49,605.47,201.77Z"/><path d="M608.6,201.53c0,.59,5.43,1.07,12.12,1.07s12.13-.48,12.13-1.07-5.43-1.08-12.13-1.08S608.6,200.93,608.6,201.53Z"/><path d="M632.33,201.84c-1.51-.44-6.14-.76-11.61-.76s-10.09.32-11.6.76c-.34-.1-.52-.21-.52-.31,0-.6,5.43-1.08,12.12-1.08s12.13.48,12.13,1.08C632.85,201.63,632.66,201.74,632.33,201.84Z"/><path d="M633,197.64v3.69c0,1.28-6.83,2.32-15.25,2.32s-15.25-1-15.25-2.32v-3.69Z"/><path d="M633,197.64v3.69c0,1.28-6.83,2.32-15.25,2.32s-15.25-1-15.25-2.32v-3.69Z"/><g class="cls-29"><rect x="631.98" y="196.11" width="0.72" height="8.46"/><rect x="630.1" y="196.11" width="0.72" height="8.46"/><rect x="627.97" y="196.11" width="0.72" height="8.46"/><rect x="625.3" y="196.11" width="0.72" height="8.46"/><rect x="622.37" y="196.11" width="0.72" height="8.46"/><rect x="619.17" y="196.11" width="0.72" height="8.46"/><rect x="602.86" y="196.11" width="0.72" height="8.46"/><rect x="604.74" y="196.11" width="0.72" height="8.46"/><rect x="606.87" y="196.11" width="0.72" height="8.46"/><rect x="609.54" y="196.11" width="0.72" height="8.46"/><rect x="612.47" y="196.11" width="0.72" height="8.46"/><rect x="615.67" y="196.11" width="0.72" height="8.46"/></g><path d="M602.53,197.57c0,1.28,6.83,2.32,15.25,2.32s15.25-1,15.25-2.32-6.83-2.31-15.25-2.31S602.53,196.3,602.53,197.57Z"/><ellipse cx="617.78" cy="197.33" rx="12.12" ry="1.07"/><path d="M629.38,197.64c-1.51-.44-6.13-.76-11.6-.76s-10.09.32-11.6.76c-.34-.1-.52-.2-.52-.31,0-.59,5.42-1.07,12.12-1.07s12.13.48,12.13,1.07C629.91,197.44,629.72,197.54,629.38,197.64Z"/><path d="M635.67,193.45v3.69c0,1.28-6.82,2.31-15.25,2.31s-15.25-1-15.25-2.31v-3.69Z"/><path d="M635.67,193.45v3.69c0,1.28-6.82,2.31-15.25,2.31s-15.25-1-15.25-2.31v-3.69Z"/><g class="cls-30"><rect x="634.62" y="191.92" width="0.72" height="8.46"/><rect x="632.75" y="191.92" width="0.72" height="8.46"/><rect x="630.61" y="191.92" width="0.72" height="8.46"/><rect x="627.94" y="191.92" width="0.72" height="8.46"/><rect x="625.01" y="191.92" width="0.72" height="8.46"/><rect x="621.81" y="191.92" width="0.72" height="8.46"/><rect x="605.51" y="191.92" width="0.72" height="8.46"/><rect x="607.38" y="191.92" width="0.72" height="8.46"/><rect x="609.51" y="191.92" width="0.72" height="8.46"/><rect x="612.18" y="191.92" width="0.72" height="8.46"/><rect x="615.11" y="191.92" width="0.72" height="8.46"/><rect x="618.31" y="191.92" width="0.72" height="8.46"/></g><path d="M605.17,193.38c0,1.28,6.83,2.32,15.25,2.32s15.25-1,15.25-2.32-6.82-2.32-15.25-2.32S605.17,192.1,605.17,193.38Z"/><path d="M608.3,193.14c0,.59,5.43,1.07,12.12,1.07s12.13-.48,12.13-1.07-5.43-1.08-12.13-1.08S608.3,192.54,608.3,193.14Z"/><path d="M632,193.45c-1.51-.44-6.13-.76-11.6-.76s-10.09.32-11.6.76c-.34-.1-.52-.2-.52-.31,0-.6,5.43-1.08,12.12-1.08s12.13.48,12.13,1.08C632.55,193.25,632.36,193.35,632,193.45Z"/></g><path class="cls-31" d="M620.52,220.66v3.69c0,1.28,6.83,2.31,15.26,2.31s15.25-1,15.25-2.31v-3.69Z"/><g class="cls-32"><rect class="cls-12" x="620.86" y="219.13" width="0.72" height="8.46"/><rect class="cls-12" x="622.73" y="219.13" width="0.72" height="8.46"/><rect class="cls-12" x="624.87" y="219.13" width="0.72" height="8.46"/><rect class="cls-12" x="627.53" y="219.13" width="0.72" height="8.46"/><rect class="cls-12" x="630.47" y="219.13" width="0.72" height="8.46"/><rect class="cls-12" x="633.66" y="219.13" width="0.72" height="8.46"/><rect class="cls-12" x="649.97" y="219.13" width="0.72" height="8.46"/><rect class="cls-12" x="648.1" y="219.13" width="0.72" height="8.46"/><rect class="cls-12" x="645.96" y="219.13" width="0.72" height="8.46"/><rect class="cls-12" x="643.29" y="219.13" width="0.72" height="8.46"/><rect class="cls-12" x="640.36" y="219.13" width="0.72" height="8.46"/><rect class="cls-12" x="637.17" y="219.13" width="0.72" height="8.46"/></g><path class="cls-13" d="M651,220.59c0,1.28-6.83,2.31-15.25,2.31s-15.26-1-15.26-2.31,6.83-2.32,15.26-2.32S651,219.31,651,220.59Z"/><ellipse class="cls-10" cx="635.78" cy="220.35" rx="12.12" ry="1.07"/><path class="cls-12" d="M624.17,220.66c1.51-.44,6.14-.76,11.61-.76s10.09.32,11.6.76c.34-.1.52-.21.52-.31,0-.6-5.43-1.08-12.12-1.08s-12.13.48-12.13,1.08C623.65,220.45,623.84,220.56,624.17,220.66Z"/><path class="cls-31" d="M618.32,216.49v3.69c0,1.28,6.82,2.32,15.25,2.32s15.25-1,15.25-2.32v-3.69Z"/><g class="cls-33"><rect class="cls-12" x="618.65" y="214.96" width="0.72" height="8.46"/><rect class="cls-12" x="620.52" y="214.96" width="0.72" height="8.46"/><rect class="cls-12" x="622.66" y="214.96" width="0.72" height="8.46"/><rect class="cls-12" x="625.33" y="214.96" width="0.72" height="8.46"/><rect class="cls-12" x="628.26" y="214.96" width="0.72" height="8.46"/><rect class="cls-12" x="631.45" y="214.96" width="0.72" height="8.46"/><rect class="cls-12" x="647.76" y="214.96" width="0.72" height="8.46"/><rect class="cls-12" x="645.89" y="214.96" width="0.72" height="8.46"/><rect class="cls-12" x="643.75" y="214.96" width="0.72" height="8.46"/><rect class="cls-12" x="641.09" y="214.96" width="0.72" height="8.46"/><rect class="cls-12" x="638.15" y="214.96" width="0.72" height="8.46"/><rect class="cls-12" x="634.96" y="214.96" width="0.72" height="8.46"/></g><path class="cls-13" d="M648.82,216.42c0,1.28-6.83,2.32-15.25,2.32s-15.25-1-15.25-2.32,6.82-2.31,15.25-2.31S648.82,215.14,648.82,216.42Z"/><path class="cls-10" d="M645.69,216.18c0,.59-5.43,1.07-12.12,1.07s-12.13-.48-12.13-1.07,5.43-1.08,12.13-1.08S645.69,215.59,645.69,216.18Z"/><path class="cls-12" d="M622,216.49c1.51-.44,6.13-.76,11.6-.76s10.09.32,11.6.76c.34-.1.52-.2.52-.31,0-.59-5.43-1.08-12.12-1.08s-12.13.49-12.13,1.08C621.44,216.29,621.63,216.39,622,216.49Z"/><path class="cls-31" d="M620.79,212.3V216c0,1.27,6.83,2.31,15.25,2.31s15.26-1,15.26-2.31V212.3Z"/><g class="cls-34"><rect class="cls-12" x="621.13" y="210.76" width="0.72" height="8.46"/><rect class="cls-12" x="623" y="210.76" width="0.72" height="8.46"/><rect class="cls-12" x="625.14" y="210.76" width="0.72" height="8.46"/><rect class="cls-12" x="627.8" y="210.76" width="0.72" height="8.46"/><rect class="cls-12" x="630.74" y="210.76" width="0.72" height="8.46"/><rect class="cls-12" x="633.93" y="210.76" width="0.72" height="8.46"/><rect class="cls-12" x="650.24" y="210.76" width="0.72" height="8.46"/><rect class="cls-12" x="648.37" y="210.76" width="0.72" height="8.46"/><rect class="cls-12" x="646.23" y="210.76" width="0.72" height="8.46"/><rect class="cls-12" x="643.56" y="210.76" width="0.72" height="8.46"/><rect class="cls-12" x="640.63" y="210.76" width="0.72" height="8.46"/><rect class="cls-12" x="637.44" y="210.76" width="0.72" height="8.46"/></g><path class="cls-13" d="M651.3,212.23c0,1.28-6.83,2.31-15.26,2.31s-15.25-1-15.25-2.31,6.83-2.32,15.25-2.32S651.3,211,651.3,212.23Z"/><path class="cls-10" d="M648.17,212c0,.6-5.43,1.08-12.13,1.08s-12.12-.48-12.12-1.08,5.43-1.07,12.12-1.07S648.17,211.39,648.17,212Z"/><path class="cls-12" d="M624.44,212.3c1.51-.44,6.14-.77,11.6-.77s10.1.33,11.61.77c.34-.1.52-.21.52-.32,0-.59-5.43-1.07-12.13-1.07s-12.12.48-12.12,1.07C623.92,212.09,624.1,212.2,624.44,212.3Z"/><path class="cls-31" d="M621.87,208.05v3.69c0,1.28,6.82,2.31,15.25,2.31s15.25-1,15.25-2.31v-3.69Z"/><g class="cls-35"><rect class="cls-12" x="622.2" y="206.52" width="0.72" height="8.46"/><rect class="cls-12" x="624.07" y="206.52" width="0.72" height="8.46"/><rect class="cls-12" x="626.21" y="206.52" width="0.72" height="8.46"/><rect class="cls-12" x="628.88" y="206.52" width="0.72" height="8.46"/><rect class="cls-12" x="631.81" y="206.52" width="0.72" height="8.46"/><rect class="cls-12" x="635.01" y="206.52" width="0.72" height="8.46"/><rect class="cls-12" x="651.31" y="206.52" width="0.72" height="8.46"/><rect class="cls-12" x="649.44" y="206.52" width="0.72" height="8.46"/><rect class="cls-12" x="647.3" y="206.52" width="0.72" height="8.46"/><rect class="cls-12" x="644.64" y="206.52" width="0.72" height="8.46"/><rect class="cls-12" x="641.7" y="206.52" width="0.72" height="8.46"/><rect class="cls-12" x="638.51" y="206.52" width="0.72" height="8.46"/></g><path class="cls-13" d="M652.37,208c0,1.28-6.83,2.32-15.25,2.32s-15.25-1-15.25-2.32,6.82-2.31,15.25-2.31S652.37,206.7,652.37,208Z"/><path class="cls-10" d="M649.24,207.74c0,.59-5.43,1.07-12.12,1.07S625,208.33,625,207.74s5.43-1.08,12.13-1.08S649.24,207.14,649.24,207.74Z"/><path class="cls-12" d="M625.52,208.05c1.51-.44,6.13-.76,11.6-.76s10.09.32,11.6.76c.34-.1.52-.2.52-.31,0-.6-5.43-1.08-12.12-1.08s-12.13.48-12.13,1.08C625,207.85,625.18,208,625.52,208.05Z"/><path class="cls-31" d="M618.23,203.86v3.69c0,1.27,6.82,2.31,15.25,2.31s15.25-1,15.25-2.31v-3.69Z"/><g class="cls-36"><rect class="cls-12" x="618.56" y="202.32" width="0.72" height="8.46"/><rect class="cls-12" x="620.43" y="202.32" width="0.72" height="8.46"/><rect class="cls-12" x="622.57" y="202.32" width="0.72" height="8.46"/><rect class="cls-12" x="625.24" y="202.32" width="0.72" height="8.46"/><rect class="cls-12" x="628.17" y="202.32" width="0.72" height="8.46"/><rect class="cls-12" x="631.37" y="202.32" width="0.72" height="8.46"/><rect class="cls-12" x="647.67" y="202.32" width="0.72" height="8.46"/><rect class="cls-12" x="645.8" y="202.32" width="0.72" height="8.46"/><rect class="cls-12" x="643.66" y="202.32" width="0.72" height="8.46"/><rect class="cls-12" x="641" y="202.32" width="0.72" height="8.46"/><rect class="cls-12" x="638.06" y="202.32" width="0.72" height="8.46"/><rect class="cls-12" x="634.87" y="202.32" width="0.72" height="8.46"/></g><path class="cls-13" d="M648.73,203.79c0,1.28-6.83,2.31-15.25,2.31s-15.25-1-15.25-2.31,6.82-2.32,15.25-2.32S648.73,202.51,648.73,203.79Z"/><path class="cls-10" d="M645.6,203.54c0,.6-5.43,1.08-12.12,1.08s-12.13-.48-12.13-1.08,5.43-1.07,12.13-1.07S645.6,203,645.6,203.54Z"/><path class="cls-12" d="M621.88,203.86c1.51-.44,6.13-.77,11.6-.77s10.09.33,11.6.77c.34-.1.52-.21.52-.32,0-.59-5.43-1.07-12.12-1.07s-12.13.48-12.13,1.07C621.35,203.65,621.54,203.76,621.88,203.86Z"/><path class="cls-31" d="M621.17,199.66v3.69c0,1.28,6.83,2.32,15.25,2.32s15.25-1,15.25-2.32v-3.69Z"/><g class="cls-37"><rect class="cls-12" x="621.5" y="198.13" width="0.72" height="8.46"/><rect class="cls-12" x="623.38" y="198.13" width="0.72" height="8.46"/><rect class="cls-12" x="625.51" y="198.13" width="0.72" height="8.46"/><rect class="cls-12" x="628.18" y="198.13" width="0.72" height="8.46"/><rect class="cls-12" x="631.11" y="198.13" width="0.72" height="8.46"/><rect class="cls-12" x="634.31" y="198.13" width="0.72" height="8.46"/><rect class="cls-12" x="650.62" y="198.13" width="0.72" height="8.46"/><rect class="cls-12" x="648.74" y="198.13" width="0.72" height="8.46"/><rect class="cls-12" x="646.61" y="198.13" width="0.72" height="8.46"/><rect class="cls-12" x="643.94" y="198.13" width="0.72" height="8.46"/><rect class="cls-12" x="641.01" y="198.13" width="0.72" height="8.46"/><rect class="cls-12" x="637.81" y="198.13" width="0.72" height="8.46"/></g><path class="cls-13" d="M651.67,199.59c0,1.28-6.83,2.32-15.25,2.32s-15.25-1-15.25-2.32,6.83-2.31,15.25-2.31S651.67,198.31,651.67,199.59Z"/><ellipse class="cls-10" cx="636.42" cy="199.35" rx="12.12" ry="1.07"/><path class="cls-12" d="M624.82,199.66c1.51-.44,6.13-.76,11.6-.76s10.09.32,11.6.76c.34-.1.53-.2.53-.31,0-.59-5.43-1.07-12.13-1.07s-12.12.48-12.12,1.07C624.3,199.46,624.48,199.56,624.82,199.66Z"/><path class="cls-31" d="M618.53,195.47v3.69c0,1.28,6.83,2.31,15.25,2.31s15.25-1,15.25-2.31v-3.69Z"/><g class="cls-38"><rect class="cls-12" x="618.86" y="193.94" width="0.72" height="8.46"/><rect class="cls-12" x="620.73" y="193.94" width="0.72" height="8.46"/><rect class="cls-12" x="622.87" y="193.94" width="0.72" height="8.46"/><rect class="cls-12" x="625.54" y="193.94" width="0.72" height="8.46"/><rect class="cls-12" x="628.47" y="193.94" width="0.72" height="8.46"/><rect class="cls-12" x="631.67" y="193.94" width="0.72" height="8.46"/><rect class="cls-12" x="647.97" y="193.94" width="0.72" height="8.46"/><rect class="cls-12" x="646.1" y="193.94" width="0.72" height="8.46"/><rect class="cls-12" x="643.97" y="193.94" width="0.72" height="8.46"/><rect class="cls-12" x="641.3" y="193.94" width="0.72" height="8.46"/><rect class="cls-12" x="638.37" y="193.94" width="0.72" height="8.46"/><rect class="cls-12" x="635.17" y="193.94" width="0.72" height="8.46"/></g><path class="cls-13" d="M649,195.4c0,1.28-6.83,2.31-15.25,2.31s-15.25-1-15.25-2.31,6.83-2.32,15.25-2.32S649,194.12,649,195.4Z"/><path class="cls-31" d="M645.9,195.16c0,.59-5.42,1.07-12.12,1.07s-12.12-.48-12.12-1.07,5.42-1.08,12.12-1.08S645.9,194.56,645.9,195.16Z"/><path class="cls-12" d="M622.18,195.47c1.51-.44,6.13-.76,11.6-.76s10.09.32,11.6.76c.34-.1.52-.21.52-.31,0-.6-5.42-1.08-12.12-1.08s-12.12.48-12.12,1.08C621.66,195.26,621.84,195.37,622.18,195.47Z"/><path class="cls-39" d="M629.33,226.45c-1.46-2-2.39-5.75-2.5-8.43-.43-9.85,4.28-16.43,12.14-18.23l2.95-.68,6.13,26.61c-2.78.57-3.26,6.2-5.2,5.81S629.33,226.45,629.33,226.45Z"/><path class="cls-10" d="M641.61,199.13l2.95-.68L652,230.93l-2.95.71c-7.85,1.8-15.89-4-18-13S633.75,200.94,641.61,199.13Z"/><g class="cls-40"><rect class="cls-12" x="632.14" y="232.85" width="19.85" height="0.83" transform="translate(-35.95 149.83) rotate(-12.95)"/><rect class="cls-12" x="631.66" y="230.76" width="19.85" height="0.83" transform="translate(-35.49 149.67) rotate(-12.95)"/><rect class="cls-12" x="631.11" y="228.37" width="19.85" height="0.83" transform="translate(-34.97 149.47) rotate(-12.95)"/><rect class="cls-12" x="630.43" y="225.39" width="19.85" height="0.83" transform="translate(-34.32 149.26) rotate(-12.95)"/><rect class="cls-12" x="629.67" y="222.11" width="19.85" height="0.83" transform="translate(-33.6 148.99) rotate(-12.95)"/><rect class="cls-12" x="628.85" y="218.54" width="19.85" height="0.83" transform="translate(-32.82 148.73) rotate(-12.95)"/><rect class="cls-12" x="624.66" y="200.31" width="19.85" height="0.83" transform="translate(-28.84 147.33) rotate(-12.95)"/><rect class="cls-12" x="625.14" y="202.41" width="19.85" height="0.83" transform="translate(-29.3 147.49) rotate(-12.95)"/><rect class="cls-12" x="625.69" y="204.8" width="19.85" height="0.83" transform="translate(-29.82 147.67) rotate(-12.95)"/><rect class="cls-12" x="626.37" y="207.78" width="19.85" height="0.83" transform="translate(-30.47 147.9) rotate(-12.95)"/><rect class="cls-12" x="627.13" y="211.05" width="19.85" height="0.83" transform="translate(-31.19 148.13) rotate(-12.95)"/><rect class="cls-12" x="627.95" y="214.63" width="19.85" height="0.83" transform="translate(-31.97 148.42) rotate(-12.95)"/></g><ellipse class="cls-41" cx="648.93" cy="214.56" rx="14.59" ry="16.68" transform="translate(-31.58 150.9) rotate(-12.95)"/><path class="cls-42" d="M662.72,211.94c-2.07-9-10.11-14.79-18-13a13.4,13.4,0,0,0-7.92,5.39,13.52,13.52,0,0,1,8.36-6c7.85-1.81,15.89,4,17.95,13a17.54,17.54,0,0,1-2.57,14.13A17.71,17.71,0,0,0,662.72,211.94Z"/><path class="cls-42" d="M651.78,227.56c5.85-1.35,9.3-8.11,7.7-15.08s-7.67-11.55-13.52-10.2-9.3,8.11-7.7,15.08S645.93,228.9,651.78,227.56Z"/><path class="cls-31" d="M651.84,227.2c5.85-1.35,9.31-8.11,7.7-15.08s-7.66-11.55-13.51-10.2S636.72,210,638.32,217,646,228.54,651.84,227.2Z"/><path class="cls-12" d="M650.56,226.79c5.85-1.35,9.3-8.11,7.7-15.08a13.55,13.55,0,0,0-7.9-9.75c4.26,1,8,4.92,9.18,10.16,1.61,7-1.85,13.73-7.7,15.08a9.55,9.55,0,0,1-5.62-.45A9.36,9.36,0,0,0,650.56,226.79Z"/><path class="cls-12" d="M648.52,207.9a5.3,5.3,0,0,1,2.8.55,3.78,3.78,0,0,1,.95.68,2.32,2.32,0,0,1,.55.82.33.33,0,0,1,0,.29.32.32,0,0,1-.2.18l-2.18.67a.86.86,0,0,1-.4,0,1,1,0,0,1-.35-.11l-.21-.12a1.92,1.92,0,0,0-.39-.14,1.82,1.82,0,0,0-.56-.07,2.62,2.62,0,0,0-.76.14,5.31,5.31,0,0,0-.6.22,2.37,2.37,0,0,0-.47.3.94.94,0,0,0-.29.37.61.61,0,0,0,0,.46.57.57,0,0,0,.28.36,1.38,1.38,0,0,0,.63.15,6.78,6.78,0,0,0,1.07,0l1.63-.15a8.67,8.67,0,0,1,1.75,0,4.06,4.06,0,0,1,1.36.36,2.82,2.82,0,0,1,1,.79,3.8,3.8,0,0,1,.64,1.29,3.19,3.19,0,0,1,.13,1.36,3.61,3.61,0,0,1-.43,1.27,4.79,4.79,0,0,1-.94,1.1,6.5,6.5,0,0,1-1.37.9l.37,1.18a.46.46,0,0,1,0,.36.47.47,0,0,1-.27.23L650,222a.42.42,0,0,1-.36,0,.47.47,0,0,1-.23-.27l-.37-1.23a6,6,0,0,1-1.61-.09,5.19,5.19,0,0,1-1.33-.43,3.45,3.45,0,0,1-1-.73,2.46,2.46,0,0,1-.58-.94.37.37,0,0,1,0-.29.32.32,0,0,1,.2-.18l2.19-.67a1,1,0,0,1,.38-.06,1,1,0,0,1,.32.09l.27.16a2.17,2.17,0,0,0,1.1.3,3.07,3.07,0,0,0,.88-.14,5.4,5.4,0,0,0,1.42-.65.74.74,0,0,0,.37-.87.52.52,0,0,0-.34-.35,2.38,2.38,0,0,0-.75-.11,11.31,11.31,0,0,0-1.19.06c-.48.06-1,.11-1.69.16a4.87,4.87,0,0,1-2.89-.45,3.41,3.41,0,0,1-1.49-2.05,3.21,3.21,0,0,1-.13-1.19,3.4,3.4,0,0,1,.32-1.19,4,4,0,0,1,.76-1.08,5.06,5.06,0,0,1,1.18-.93l-.38-1.24a.43.43,0,0,1,0-.35.46.46,0,0,1,.27-.24l2.19-.67a.47.47,0,0,1,.35,0,.41.41,0,0,1,.23.27Z"/><path class="cls-41" d="M648.86,207.59a5.83,5.83,0,0,1,1.52.11,4.76,4.76,0,0,1,1.27.45,3.67,3.67,0,0,1,1,.68,2.16,2.16,0,0,1,.54.82.37.37,0,0,1,0,.29.35.35,0,0,1-.2.18l-2.19.67a.82.82,0,0,1-.39.05,1.13,1.13,0,0,1-.36-.11l-.21-.12a1.61,1.61,0,0,0-.38-.14,1.91,1.91,0,0,0-.56-.07,2.68,2.68,0,0,0-.77.14,4.53,4.53,0,0,0-.59.22,2.46,2.46,0,0,0-.48.3.91.91,0,0,0-.28.37.66.66,0,0,0,0,.46.59.59,0,0,0,.29.36,1.53,1.53,0,0,0,.63.15,6.81,6.81,0,0,0,1.07,0l1.63-.15a8.67,8.67,0,0,1,1.75,0,4.06,4.06,0,0,1,1.36.36,2.82,2.82,0,0,1,1,.79,3.89,3.89,0,0,1,.64,1.29,3.36,3.36,0,0,1,.13,1.36,3.45,3.45,0,0,1-.44,1.26,4.36,4.36,0,0,1-.93,1.11,6.77,6.77,0,0,1-1.37.9l.36,1.18a.46.46,0,0,1,0,.36.46.46,0,0,1-.28.23l-2.18.67a.46.46,0,0,1-.36,0,.47.47,0,0,1-.23-.27l-.38-1.24a5.6,5.6,0,0,1-1.6-.08,4.91,4.91,0,0,1-1.34-.44,3.32,3.32,0,0,1-1-.72,2.7,2.7,0,0,1-.59-.94.37.37,0,0,1,0-.29.31.31,0,0,1,.21-.18l2.18-.68a1.22,1.22,0,0,1,.39,0,1.11,1.11,0,0,1,.32.09l.27.16a2.14,2.14,0,0,0,.45.2,2.4,2.4,0,0,0,.65.1,2.84,2.84,0,0,0,.88-.15,4.89,4.89,0,0,0,1.41-.64.74.74,0,0,0,.38-.87.52.52,0,0,0-.34-.35,2.12,2.12,0,0,0-.75-.11,11.19,11.19,0,0,0-1.19.06c-.48.05-1,.11-1.69.16a4.86,4.86,0,0,1-2.89-.45,3.41,3.41,0,0,1-1.49-2.05,3,3,0,0,1-.13-1.19,3.4,3.4,0,0,1,.32-1.19,4.22,4.22,0,0,1,.76-1.09,5.64,5.64,0,0,1,1.18-.93l-.38-1.23a.42.42,0,0,1,0-.36.47.47,0,0,1,.27-.23l2.18-.67a.5.5,0,0,1,.36,0,.44.44,0,0,1,.23.27Z"/><path class="cls-43" d="M700.13,168.66c.28-.12,0-.45-.24-.48h-.22c.49-.1.88-.2,1-.23.27-.11.07-.43-.18-.48a3,3,0,0,0,.4-.12c.34-.13.08-.46-.24-.47a3.66,3.66,0,0,0-.51.05l.27-.07c.28-.12.11-.43-.16-.45a3.19,3.19,0,0,0-.59.06c-.3,0-.64.05-.94.1s-1.62.08-1.93-.5c-.47-.89,1.35-.76,1.54-1.54.05-.24-1.3-.1-2,.09a8.32,8.32,0,0,0-1.5.48,10.35,10.35,0,0,1-1.22.63,5.77,5.77,0,0,1-1,0l-.25,2.46a8.24,8.24,0,0,1,1.89.26,5.67,5.67,0,0,0,3,.82,10.57,10.57,0,0,0,2-.28Z"/><path class="cls-44" d="M661.67,220.92a27.77,27.77,0,0,0,2.18,2.74c.68.63,2.9-1.34,2.82-1.93s-2.86-3.83-2.86-3.83"/><path class="cls-45" d="M667.81,221.8c.66.71,1.79,2.15,1.79,2.15l-1.86,2.37-.61-.17a5.16,5.16,0,0,1-.75,1.82,11.08,11.08,0,0,1-2,1.92c-2,1.37-3.81,1.78-4.1,1.55-1.22-1,1.43-2.82,1.91-3.27a4.24,4.24,0,0,0,1.19-4.16c-.24-.73-.47-.76-.09-.93a1,1,0,0,1,.77,0,1.74,1.74,0,0,0,2-.51,2,2,0,0,0,.46-1.19A1.26,1.26,0,0,1,667.81,221.8Z"/><path class="cls-44" d="M624.39,222.88a28.76,28.76,0,0,0-.73,3.43c0,.93,2.88,1.39,3.28,1s1.15-4.65,1.15-4.65"/><path class="cls-45" d="M627.61,228.19c-.13,1-.52,2.74-.52,2.74l-3,.08-.25-.58a5.16,5.16,0,0,1-1.89.57,11.56,11.56,0,0,1-2.75-.33c-2.33-.69-3.8-1.82-3.8-2.19,0-1.57,3.08-.69,3.74-.6a4.23,4.23,0,0,0,4-1.72c.41-.65.29-.84.66-.66a1,1,0,0,1,.51.58,1.74,1.74,0,0,0,1.64,1.2,2.14,2.14,0,0,0,1.22-.4A1.24,1.24,0,0,1,627.61,228.19Z"/><path class="cls-46" d="M637.71,169.77s-8.51,21.67-9.56,26.34-5,28.13-5,28.13,3.73,1.06,5.1.59c.94-3.86,10.57-33.65,16.85-41.65S637.71,169.77,637.71,169.77Z"/><path class="cls-46" d="M643.68,181.73A33.07,33.07,0,0,0,648.24,203a169.16,169.16,0,0,0,13.14,18.7,12.39,12.39,0,0,0,3.84-2.87c-2-2.7-10.81-18-10.81-24s2.3-20.16,2.3-20.16l-9.84-2.35Z"/><path class="cls-44" d="M692.35,168.15s-11.21.53-17-1.08-15.61-8.64-15.61-8.64l-11.61-8.89c-3-3.73-6.74-14.28-7.34-16.2s-2.71-15.07-2.71-15.07l2.47-.24s2.85,9.32,4.31,14.58c1.38,4.94,8.94,11.68,10.78,13.37h0l.31.26c1.14,1,.23,2.84.23,2.84l2,.74s2.13-1.09,3.46.09a3.61,3.61,0,0,1,.44.44c1.82,2,6.25,9,15.26,12.56a111.63,111.63,0,0,0,15.55,2.81C692.5,167.44,692.35,168.15,692.35,168.15Z"/><path class="cls-44" d="M662.07,150.36a4.66,4.66,0,0,1-4.82,1.43c-4.06-1.85-1.75-5.57-1.59-5.8l.31.26c1.14,1,2-1.37,2-1.37l4.1,2.26s-1.75,1.6-.42,2.78A3.61,3.61,0,0,1,662.07,150.36Z"/><path class="cls-47" d="M662.48,163.09a115.35,115.35,0,0,0-5,14.09A20.31,20.31,0,0,1,637.73,172a15.46,15.46,0,0,1-1.9-2.18s2.73-4.93,4.35-8.59,4.11-8.45,5.91-11.69c.09-.51-1.56-3-3.22-6.65,2.27-.93,5.9-4.62,5.9-4.62l6.89,7.76s-2.08,3.41.6,5.22,4.43.23,5.81-.85c1.09,1.49,6.85,6.66,10.37,9.09l-4.54,7.6S663.91,164.76,662.48,163.09Z"/><path class="cls-48" d="M660.66,134.36a1.82,1.82,0,0,0-1.63.57,1.8,1.8,0,0,0-.38,1.68,1,1,0,0,0-1.27.52,2.46,2.46,0,0,0-.06,1.52,2.27,2.27,0,0,0,.81,1.53,1.64,1.64,0,0,0,1.23.19,2.27,2.27,0,0,0,.85-.34,3.72,3.72,0,0,0,.71-.77l2.2-2.93a.92.92,0,0,0,.26-.68"/><path class="cls-44" d="M666.14,145.62a17.81,17.81,0,0,1-1.86,1.6,2.72,2.72,0,0,1-3.1.33,17.87,17.87,0,0,1-3.64-2.21,2.53,2.53,0,0,1-.72-3.43c.4-.89.78-1.78,1.2-2.67a43.55,43.55,0,0,1,3-5.44c.26-.4.57-1,1.15-.75a32,32,0,0,1,5.21,2.83,6.69,6.69,0,0,1,2.81,3,7.47,7.47,0,0,1-.11,4.16c0,.22-.15.49-.37.5"/><path class="cls-48" d="M666,142.67c.35-.34,1,0,1.08.5a2,2,0,0,1-.39,1.36,3.2,3.2,0,0,1-1.42,1.14c-.54.27-1.09.26-1.24-.32a1.58,1.58,0,0,0,.23,2.06,1.41,1.41,0,0,0,1.7-.08c1.73,2.23,4.48-.57,5.63-2.11a7.88,7.88,0,0,0,1.43-4.53,3.22,3.22,0,0,0-.86-2.24,3.1,3.1,0,0,0-.17-2.82,7.9,7.9,0,0,0-1.7-2.12,3.18,3.18,0,0,0-2.61-.55c-.61-1.15-1.79-1.15-2.6-1.54s-2.09-.21-2.2.68a2.15,2.15,0,0,0-3.49.85,2.33,2.33,0,0,0,2.49,2.75,2.69,2.69,0,0,0,1.32,2.53,5.19,5.19,0,0,0,2.9.67,2.12,2.12,0,0,0-1.06,1.5c-.09.66-.14,1.16.72,1.48,0,0-.81,1.14-.47,1.19S666,142.67,666,142.67Z"/><path class="cls-44" d="M636.61,111c.08-.29.44-.09.5.17a1.41,1.41,0,0,1,0,.22c0-.5.07-.9.09-1,.07-.28.41-.12.5.12a2.65,2.65,0,0,1,.06-.41c.08-.36.45-.15.5.16a3.07,3.07,0,0,1,0,.52,1,1,0,0,1,0-.28c.07-.29.4-.17.47.09a5.61,5.61,0,0,1,0,.6c0,.3,0,.64,0,.94s.15,1.62.77,1.84c1,.34.56-1.45,1.3-1.74.24-.09.29,1.27.2,2a8,8,0,0,1-.26,1.56,10.17,10.17,0,0,0-.45,1.29,6,6,0,0,0,.19,1l-2.4.59a7.9,7.9,0,0,0-.53-1.83,5.79,5.79,0,0,1-1.24-2.83,10.8,10.8,0,0,1,0-2S636.59,111.14,636.61,111Z"/><path class="cls-49" d="M657.45,177.18A20.31,20.31,0,0,1,637.73,172c10.53,8,17.52,4.37,18.63,4.14.31-2.48,5.14-14,5.14-14a6.89,6.89,0,0,0,1,1A115.35,115.35,0,0,0,657.45,177.18Z"/><path class="cls-5" d="M728.2,256.33c0,.88-11.86,1.67-26.49,1.77s-26.51-.53-26.51-1.4,11.85-1.68,26.49-1.78S728.19,255.45,728.2,256.33Z"/><path class="cls-44" d="M690.29,245.63a22.6,22.6,0,0,0,.17,4.4c.45,1.3.26,1.73.26,1.73l-5.12.33s2.07-1.43,1.12-6.62S690.29,245.63,690.29,245.63Z"/><path class="cls-48" d="M690.58,250.43a8,8,0,0,1-4.33.86,20.82,20.82,0,0,1-6.38,2.94c-2.28.65-1.58,2.5,2.35,1.63a49.62,49.62,0,0,1,7.62-1.14c.89-.05,2.32-.15,2.29-.77S691.27,250.11,690.58,250.43Z"/><path class="cls-44" d="M716.34,241.87a22.53,22.53,0,0,0,2,3.91c1,1,1,1.45,1,1.45l-4.48,2.49s1.25-2.18-1.82-6.46S716.34,241.87,716.34,241.87Z"/><path class="cls-48" d="M718.66,246.08a8,8,0,0,1-3.55,2.64,20.81,20.81,0,0,1-4.5,5.4c-1.78,1.55-.36,2.92,2.82.46a50.19,50.19,0,0,1,6.39-4.3c.79-.42,2-1.12,1.74-1.67S719.15,245.51,718.66,246.08Z"/><path class="cls-44" d="M682.43,146.08s1.47-2.67,2.16-3.77,3.69,1.61,3.69,1.61a1.86,1.86,0,0,1-1.18,2c-1.45.77-2.33.75-2.63,1.74s-2.07-.38-2.07-.38Z"/><path class="cls-44" d="M702.88,146.71s-1.36-2.9-2-4-3.76,1.44-3.76,1.44a1.85,1.85,0,0,0,1.09,2c1.41.84,2.29.86,2.55,1.86s2.09-.28,2.09-.28Z"/><path class="cls-10" d="M702,142.28l0,2c0,.7-3.75,1.18-8.34,1.08s-8.3-.75-8.28-1.45l0-2Z"/><g class="cls-50"><rect class="cls-12" x="699.24" y="143.55" width="4.61" height="0.39" transform="translate(542.11 841.89) rotate(-88.72)"/><rect class="cls-12" x="698.22" y="143.53" width="4.61" height="0.39" transform="translate(541.14 840.85) rotate(-88.72)"/><rect class="cls-12" x="697.05" y="143.5" width="4.61" height="0.39" transform="translate(540.02 839.66) rotate(-88.72)"/><rect class="cls-12" x="695.6" y="143.47" width="4.61" height="0.39" transform="translate(538.79 838.21) rotate(-88.73)"/><rect class="cls-12" x="694" y="143.43" width="4.61" height="0.39" transform="translate(537.11 836.54) rotate(-88.72)"/><rect class="cls-12" x="692.26" y="143.39" width="4.61" height="0.39" transform="translate(535.45 834.76) rotate(-88.72)"/><rect class="cls-12" x="683.38" y="143.19" width="4.61" height="0.39" transform="matrix(0.02, -1, 1, 0.02, 527, 825.69)"/><rect class="cls-12" x="684.4" y="143.22" width="4.61" height="0.39" transform="translate(527.94 826.73) rotate(-88.72)"/><rect class="cls-12" x="685.56" y="143.24" width="4.61" height="0.39" transform="matrix(0.02, -1, 1, 0.02, 529.05, 827.92)"/><rect class="cls-12" x="687.01" y="143.27" width="4.61" height="0.39" transform="translate(530.44 829.4) rotate(-88.72)"/><rect class="cls-12" x="688.61" y="143.31" width="4.61" height="0.39" transform="translate(531.96 831.03) rotate(-88.72)"/><rect class="cls-12" x="690.35" y="143.35" width="4.61" height="0.39" transform="translate(533.78 832.85) rotate(-88.73)"/></g><path class="cls-13" d="M685.33,141.88c0,.69,3.7,1.34,8.29,1.44s8.32-.38,8.33-1.07-3.69-1.35-8.28-1.45S685.35,141.18,685.33,141.88Z"/><path class="cls-10" d="M687,141.78c0,.32,3,.65,6.59.73s6.61-.11,6.62-.43-2.94-.66-6.59-.74S687.05,141.46,687,141.78Z"/><path class="cls-12" d="M700,142.24a32.92,32.92,0,0,0-6.31-.56,33.51,33.51,0,0,0-6.33.28c-.18-.06-.28-.12-.28-.18,0-.32,3-.52,6.62-.44s6.6.41,6.59.74C700.25,142.14,700.15,142.19,700,142.24Z"/><path class="cls-10" d="M700.4,140l0,2c0,.7-3.74,1.18-8.33,1.08s-8.3-.75-8.28-1.45l0-2Z"/><g class="cls-51"><rect class="cls-12" x="697.68" y="141.23" width="4.61" height="0.39" transform="translate(542.91 838.07) rotate(-88.72)"/><rect class="cls-12" x="696.66" y="141.2" width="4.61" height="0.39" transform="translate(542.1 837.06) rotate(-88.73)"/><rect class="cls-12" x="695.5" y="141.18" width="4.61" height="0.39" transform="translate(540.98 835.87) rotate(-88.73)"/><rect class="cls-12" x="694.05" y="141.15" width="4.61" height="0.39" transform="translate(539.44 834.35) rotate(-88.72)"/><rect class="cls-12" x="692.45" y="141.11" width="4.61" height="0.39" transform="translate(538.07 832.75) rotate(-88.73)"/><rect class="cls-12" x="690.71" y="141.07" width="4.61" height="0.39" transform="translate(536.4 830.97) rotate(-88.73)"/><rect class="cls-12" x="681.82" y="140.87" width="4.61" height="0.39" transform="translate(527.8 821.87) rotate(-88.72)"/><rect class="cls-12" x="682.84" y="140.9" width="4.61" height="0.39" transform="matrix(0.02, -1, 1, 0.02, 528.74, 822.91)"/><rect class="cls-12" x="684.01" y="140.92" width="4.61" height="0.39" transform="translate(530 824.13) rotate(-88.73)"/><rect class="cls-12" x="685.46" y="140.95" width="4.61" height="0.39" transform="translate(531.24 825.58) rotate(-88.72)"/><rect class="cls-12" x="687.06" y="140.99" width="4.61" height="0.39" transform="translate(532.76 827.21) rotate(-88.72)"/><rect class="cls-12" x="688.8" y="141.03" width="4.61" height="0.39" transform="translate(534.43 828.99) rotate(-88.72)"/></g><path class="cls-13" d="M683.78,139.55c0,.7,3.69,1.35,8.28,1.45s8.32-.38,8.34-1.07-3.69-1.35-8.28-1.45S683.8,138.86,683.78,139.55Z"/><path class="cls-10" d="M685.49,139.46c0,.32,2.94.65,6.59.73s6.61-.11,6.62-.43-3-.66-6.59-.74S685.5,139.14,685.49,139.46Z"/><path class="cls-12" d="M698.41,139.92a33,33,0,0,0-6.31-.56,32.64,32.64,0,0,0-6.33.28c-.18-.06-.28-.12-.28-.18,0-.32,3-.52,6.62-.44s6.6.41,6.59.74C698.7,139.81,698.6,139.87,698.41,139.92Z"/><path class="cls-10" d="M701.89,137.71l0,2c0,.7-3.74,1.18-8.33,1.08s-8.3-.75-8.28-1.45l0-2Z"/><g class="cls-52"><rect class="cls-12" x="699.17" y="138.97" width="4.61" height="0.39" transform="translate(546.62 837.35) rotate(-88.72)"/><rect class="cls-12" x="698.15" y="138.95" width="4.61" height="0.39" transform="translate(545.64 836.31) rotate(-88.72)"/><rect class="cls-12" x="696.99" y="138.93" width="4.61" height="0.39" transform="translate(544.54 835.12) rotate(-88.72)"/><rect class="cls-12" x="695.54" y="138.89" width="4.61" height="0.39" transform="translate(543.31 833.67) rotate(-88.73)"/><rect class="cls-12" x="693.94" y="138.86" width="4.61" height="0.39" transform="matrix(0.02, -1, 1, 0.02, 541.62, 832.01)"/><rect class="cls-12" x="692.2" y="138.82" width="4.61" height="0.39" transform="translate(539.96 830.23) rotate(-88.72)"/><rect class="cls-12" x="683.31" y="138.62" width="4.61" height="0.39" transform="translate(531.51 821.16) rotate(-88.72)"/><rect class="cls-12" x="684.33" y="138.64" width="4.61" height="0.39" transform="translate(532.45 822.19) rotate(-88.72)"/><rect class="cls-12" x="685.5" y="138.67" width="4.61" height="0.39" transform="translate(533.56 823.38) rotate(-88.72)"/><rect class="cls-12" x="686.95" y="138.7" width="4.61" height="0.39" transform="translate(535.1 824.9) rotate(-88.73)"/><rect class="cls-12" x="688.55" y="138.74" width="4.61" height="0.39" transform="translate(536.47 826.5) rotate(-88.72)"/><rect class="cls-12" x="690.29" y="138.78" width="4.61" height="0.39" transform="translate(538.14 828.28) rotate(-88.72)"/></g><path class="cls-13" d="M685.27,137.3c0,.7,3.69,1.35,8.28,1.45s8.32-.38,8.34-1.08-3.69-1.34-8.28-1.44S685.29,136.61,685.27,137.3Z"/><path class="cls-10" d="M687,137.21c0,.32,2.94.65,6.59.73s6.61-.11,6.62-.44-2.94-.65-6.59-.73S687,136.88,687,137.21Z"/><path class="cls-12" d="M699.9,137.67a48.34,48.34,0,0,0-12.64-.29c-.18,0-.28-.11-.28-.17,0-.33,3-.52,6.62-.44s6.6.41,6.59.73C700.19,137.56,700.09,137.62,699.9,137.67Z"/><path class="cls-44" d="M686.14,144.93s1-.24,1.17-.66.44-1.08.9-1,.08,1.48-.2,1.82"/><path class="cls-44" d="M699.23,145.22s-1-.28-1.14-.71-.4-1.1-.86-1,0,1.64.22,2"/><path class="cls-46" d="M692.5,202.18s4.5,16.29,7.2,20.62,14.56,23.13,14.56,23.13,2.14-1.17,3.35-1.76c-5.92-15.17-7.66-19.45-11.35-25.34-2.16-8.59-.76-20.15-6.12-27.51-1.63-2.25-9,2-9,2Z"/><path class="cls-46" d="M685,192.74s-.66,23.31-.67,27.73,2.22,28.1,2.22,28.1,1.61.75,4.26-.66c.09-5.44,1-13.51.25-26.28,2.83-12.13,4.55-24.09,4.55-24.09l-.27-6.33Z"/><path class="cls-48" d="M687.25,160.49s-2.55,2.23-1.55,7c.34,1.41-1.55,3.5-2.82,4.58a4.72,4.72,0,0,0-1.16,5.69c1.2,2.18,1.49,2.33.93,4.45s-.59,6.54,5.39,5.64S694,172.34,694,172.34l-.79-6.36Z"/><path class="cls-44" d="M696.22,168.8s-.25.14-.68.33c0,.22,0,.43,0,.62,0,1.24,0,2,0,2A2.87,2.87,0,0,1,692,173a.93.93,0,0,1-.22-.14,1,1,0,0,1-.4-1,8.08,8.08,0,0,0,.12-1.72,5.93,5.93,0,0,1-2.48-.42c-3.17-1.33-1.36-10-1.36-10s5.4-2.3,7.09-.07S696.22,168.8,696.22,168.8Z"/><path class="cls-53" d="M690.82,160.63a2.8,2.8,0,0,0,1.2,2.56c1.41.93,3.76,1.32,3.89,2.63a2.49,2.49,0,0,1-.54,1.54,9.31,9.31,0,0,0,1.57-.23c.07-.11.62-3.13.62-3.13s-3.28-3.14-3.67-3.3A22.13,22.13,0,0,0,690.82,160.63Z"/><path class="cls-53" d="M695.55,171.79A2.87,2.87,0,0,1,692,173l0,0c1.93.54,1.89-1.85,1.59-2.31s-1.25-.62-1.25-.62a17.79,17.79,0,0,0,1.92-.32,7.48,7.48,0,0,1,1.55-.28A10.41,10.41,0,0,1,695.55,171.79Z"/><path class="cls-48" d="M693.09,155.89a5.86,5.86,0,0,0-3.87,2.6c-.41.75,2,1.42,2.08,2.51.05,2.13,2.48,3,4.39,3.76.5.21,1.17,1.12,0,2.24a4.74,4.74,0,0,0-1.49,3.5c.17,1.62,3.17,1.35,3.17,1.35s-4.27,12.89-3.73,14.71c.28,1,8.58,6,14.29,1.22a5.7,5.7,0,0,0,.65-7.95c-1.51-1.76-1.51-3-1.38-3.4,1.53-5.53-1.28-9.32-4.44-10.85a3.9,3.9,0,0,1-2.24-3.27,6.69,6.69,0,0,0-1.78-4.59A6.45,6.45,0,0,0,693.09,155.89Z"/><path class="cls-48" d="M685.75,157.19a2.32,2.32,0,0,0,.13,3.72c1.3.87,3.41,1.39,6.58-.22,3.78-1.92,2.61-4.91.1-4.68C687.77,157.64,687.19,156,685.75,157.19Z"/><path class="cls-54" d="M691.36,172s.14,1.53,2.23,1.19a2.08,2.08,0,0,0,1.48-1.61,5,5,0,0,0,4.68-2.33c1.35-1.88,3.33-5.1,4.27-6.8a3,3,0,0,0,.29-2.26c-.93-3.57-4.41-12.38-4.41-12.38l3.45-1.25,5.29,13.11a5.37,5.37,0,0,1-.17,4.42c-1.88,3.75-5.5,10.15-7.2,13.44-.53,2,2.25,15.94,2.25,15.94s-7.61,4.69-18.57,1.24c0-4.19.47-11.89.36-16.21s-2.42-4-8.32-16.16a5.85,5.85,0,0,1-.45-3.73,41.57,41.57,0,0,1,5.89-12.51,11.57,11.57,0,0,1,2.7,1.42S682,155.23,681,158.44a2.54,2.54,0,0,0,.17,2C682.9,163.71,688.27,172,691.36,172Z"/><path class="cls-48" d="M647.47,181.73s-.22,2.37-.27,3.9c-.55,1-1,1.69-1,1.69A25.24,25.24,0,0,1,647.47,181.73Z"/><polygon class="cls-48" points="692.75 202.48 694 207.27 693.46 210.02 692.75 202.48"/><path class="cls-55" d="M533.26,0a5.51,5.51,0,0,0,3.13,2.31c-1.06.8-1,1.33-1.1,2.52a6.48,6.48,0,0,1-2.88-2.32A2.06,2.06,0,0,1,533.26,0Z"/><path class="cls-55" d="M611.11,1.42a5.47,5.47,0,0,0,3.13,2.3c-1.06.81-1,1.34-1.1,2.52a6.35,6.35,0,0,1-2.88-2.32A2.05,2.05,0,0,1,611.11,1.42Z"/><path class="cls-4" d="M482,21.7a5.51,5.51,0,0,0,3.76,1c-.67,1.14-.46,1.63-.07,2.74a6.3,6.3,0,0,1-3.54-1.07A2,2,0,0,1,482,21.7Z"/><path class="cls-55" d="M505.48,42.07a5.47,5.47,0,0,0,2.63-2.86c.69,1.13,1.22,1.18,2.39,1.36a6.37,6.37,0,0,1-2.61,2.61A2,2,0,0,1,505.48,42.07Z"/><path class="cls-4" d="M544.17,27.06a5.46,5.46,0,0,0,3.85-.48c-.21,1.31.17,1.68.94,2.58a6.38,6.38,0,0,1-3.68.3A2,2,0,0,1,544.17,27.06Z"/><path class="cls-4" d="M608.74,27.41a5.46,5.46,0,0,0,3,2.47c-1.09.75-1.1,1.28-1.23,2.46a6.46,6.46,0,0,1-2.75-2.47A2.06,2.06,0,0,1,608.74,27.41Z"/><path class="cls-4" d="M684.27,73.49a5.46,5.46,0,0,0,3,2.47c-1.09.75-1.11,1.28-1.23,2.46A6.47,6.47,0,0,1,683.29,76,2,2,0,0,1,684.27,73.49Z"/><path class="cls-55" d="M672.79,46.77a5.46,5.46,0,0,0,3,2.47c-1.1.75-1.11,1.28-1.24,2.46a6.38,6.38,0,0,1-2.74-2.47A2.05,2.05,0,0,1,672.79,46.77Z"/><path class="cls-55" d="M644.35,48.5a5.47,5.47,0,0,0,3.79-.85c-.08,1.32.33,1.66,1.18,2.48a6.4,6.4,0,0,1-3.63.66A2,2,0,0,1,644.35,48.5Z"/><path class="cls-55" d="M627.54,103.13a5.46,5.46,0,0,0,3.09-2.34c.47,1.23,1,1.37,2.11,1.77a6.41,6.41,0,0,1-3,2.1A2,2,0,0,1,627.54,103.13Z"/><path class="cls-4" d="M649.64,11.41a5.47,5.47,0,0,0,3.88.17c-.42,1.25-.11,1.69.5,2.7a6.39,6.39,0,0,1-3.68-.31A2.06,2.06,0,0,1,649.64,11.41Z"/><path class="cls-55" d="M574.2,11.41a5.51,5.51,0,0,0,3.88.18c-.43,1.25-.12,1.68.48,2.7a6.28,6.28,0,0,1-3.67-.33A2,2,0,0,1,574.2,11.41Z"/><path class="cls-55" d="M453.89,80.64a5.44,5.44,0,0,0,3.88.18c-.43,1.25-.12,1.69.49,2.71a6.48,6.48,0,0,1-3.68-.33A2,2,0,0,1,453.89,80.64Z"/><path class="cls-55" d="M481.39,116.08a5.5,5.5,0,0,0,1.55,3.56c-1.31.17-1.56.63-2.21,1.63a6.42,6.42,0,0,1-1.33-3.45A2,2,0,0,1,481.39,116.08Z"/><path class="cls-4" d="M474.15,62A5.46,5.46,0,0,0,477,59.36c.59,1.18,1.12,1.27,2.27,1.55a6.4,6.4,0,0,1-2.81,2.39A2,2,0,0,1,474.15,62Z"/><path class="cls-4" d="M663.51,111a5.5,5.5,0,0,0,3.4-1.87c.29,1.29.78,1.5,1.83,2a6.38,6.38,0,0,1-3.31,1.64A2,2,0,0,1,663.51,111Z"/><path class="cls-5" d="M483.05,260.45c0,.88-11.86,1.67-26.49,1.77s-26.5-.53-26.51-1.41,11.85-1.67,26.49-1.77S483,259.57,483.05,260.45Z"/><path class="cls-56" d="M486.43,131.64c0-.33-.45-.17-.55.1a.88.88,0,0,0-.06.23,10.19,10.19,0,0,0,0-1.07c0-.3-.41-.19-.54,0,0-.21,0-.37,0-.44,0-.39-.46-.23-.56.1,0,.07-.05.27-.09.54a1.43,1.43,0,0,0,0-.3c0-.32-.41-.23-.51,0a5.93,5.93,0,0,0-.11.63c0,.32-.13.67-.17,1s-.39,1.69-1.08,1.84c-1.05.22-.38-1.62-1.13-2-.23-.13-.48,1.3-.5,2.1a8.38,8.38,0,0,0,.06,1.69,13.92,13.92,0,0,1,.29,1.43,5.93,5.93,0,0,1-.6,1.42l2.67.6a10.83,10.83,0,0,1,1-1.8,6.15,6.15,0,0,0,1.62-2.86,12.21,12.21,0,0,0,.3-2.16S486.44,131.74,486.43,131.64Z"/><path class="cls-56" d="M461.33,154s8.47-.07,13.06-5.22c3.67-5.14,7.21-10.83,7.48-11.35.72.27,2.27,1,2.27,1s-4.85,10.84-6.73,13.32-5.6,6.53-13.45,8.54C460.2,155.9,461.33,154,461.33,154Z"/><path class="cls-43" d="M466.85,255a5.68,5.68,0,0,1,.46,1.85c0,.75-2.39.9-2.68.53a21.17,21.17,0,0,1-.57-3.79"/><path class="cls-45" d="M464,258.08a15.62,15.62,0,0,0,.3,2l2.73-.11.11-.46a4.53,4.53,0,0,0,1.6.39l2.31-.1c1.68-.07,2.63-.32,2.66-.62.13-1.25-1.88-1.11-2.41-1.09-1.5.06-3.16-.57-3.55-1.32-.28-.55-.17-.69-.48-.58a.81.81,0,0,0-.45.43,1.38,1.38,0,0,1-1.39.83,1.58,1.58,0,0,1-.94-.41A1,1,0,0,0,464,258.08Z"/><path class="cls-43" d="M440.19,253.54a22.88,22.88,0,0,1-.73,2.7c-.3.68-2.55-.05-2.68-.51a21.15,21.15,0,0,1,.87-3.72"/><path class="cls-45" d="M436,256.14c-.26.74-.63,2.15-.63,2.15l2.12,1.15.4-.33a3.93,3.93,0,0,0,1.13,1.1,9,9,0,0,0,2.09.76c1.9.36,3.35.09,3.49-.18.58-1.11-1.95-1.61-2.44-1.78a3.38,3.38,0,0,1-2.2-2.67c-.06-.61.09-.7-.24-.71a.75.75,0,0,0-.57.23,1.39,1.39,0,0,1-1.6.26,1.71,1.71,0,0,1-.73-.73A1,1,0,0,0,436,256.14Z"/><path class="cls-46" d="M447.58,199.9s-4.07-8.73,2.13-15.44c0,0,5.63,2.24,10.06,2.36a22,22,0,0,0,5.24-.34,112.91,112.91,0,0,1,1,16.58Z"/><path class="cls-46" d="M463.83,256h.33a19,19,0,0,0,3.6-.39l0-.67c-.54-10.16,0-26.83,0-32.09a6.11,6.11,0,0,0-.07-1c-.56-3.83-4.51-3.17-6,.44a14,14,0,0,0-.83,2.75,25.35,25.35,0,0,0-.46,3.86C460,237.7,462.88,249.47,463.83,256Z"/><path class="cls-46" d="M454.78,203.71c0,.1.05.21.07.33,1.07,4.59,4.44,17,6,21h0a2.45,2.45,0,0,0,1.8,1.21c2,.46,5-.41,5.07-4.4a10.42,10.42,0,0,0-.08-1.44c-.4-3.23-1.85-21.09-2.06-22.81s-.62-4.23-1.55-4.51C459.39,191.69,453.32,197.29,454.78,203.71Z"/><path class="cls-57" d="M459.78,222a22.49,22.49,0,0,1,.58,6.94c-.34,3.46,1.52-3.09,1.52-3.09l-1.22-2.28Z"/><path class="cls-58" d="M464.16,256s-1-10.36-2.22-17.51a28.61,28.61,0,0,1,.68-12.24c.16-.57.28-.88.28-.88l-1.25-3.08c-1.41-4-1.84-13.54-1.84-13.54,2.76-6.82,2.84-15.27,2.84-15.27l-2.58.46-4.43,5.77-.79,4.34c.87,3.72,3.25,12.56,4.93,17.91h0a22.49,22.49,0,0,1,.58,6.94,3.58,3.58,0,0,0,0,.92c-.19,8.7,2.57,19.88,3.49,26.19Z"/><path class="cls-46" d="M446.48,222.64c3-3,7.3-1.83,5.48,2.75-1.94,4.89-8,18.51-11.2,28.17l-.22.63a19.51,19.51,0,0,1-3.8-1.06c1.45-6.25,2.25-16.94,5.49-24.5A20.35,20.35,0,0,1,446.48,222.64Z"/><path class="cls-46" d="M462.65,193.47c.31-7.18-8.41-2.06-12.59.48-1.76,1.06-2.33,3.08-2.5,5s-1.68,21.25-2,24.78c-.72,8,6,3.35,6.59,1.13C453.57,219.21,462.49,197.38,462.65,193.47Z"/><path class="cls-46" d="M446,218.75a19.13,19.13,0,0,1-3.12,8.62s5.12-2.63,5.36-3a20.48,20.48,0,0,0,.88-4.46C449,219.53,446,218.75,446,218.75Z"/><g id="_Group_" data-name="&lt;Group&gt;"><path class="cls-56" d="M461.47,148.22c0,.54,0,2.65-1.09,3.16s-1.84.73-1.81.9.13.45.25.81a1.64,1.64,0,0,0,.65,1l.16,2.71-2,2-.66.65-1-.9-3.22-2.94a3.3,3.3,0,0,0,.41-3.4c-.13-.25-1.6-1.87-2.78-3.51a8.85,8.85,0,0,1-1.41-2.61c-.42-1.88-.78-3.86.3-5s8.46-6,9.94-.34a28.38,28.38,0,0,0,2.24,3.62.85.85,0,0,1-.08,1.45C460.88,146.09,461.45,147.68,461.47,148.22Z"/><path class="cls-59" d="M459.63,156.82l-2,2-.61.29-1-.54-3.22-2.94a3.3,3.3,0,0,0,.41-3.4c-.13-.25-1.6-1.87-2.78-3.51l-.13-1.13s2.29-.64,2.38-.64a8.21,8.21,0,0,1,1.14,1.22c0,.07-.17,1.4-.17,1.4s.3,1.74.66,3.06a1.84,1.84,0,0,0,1.66,1.27,6,6,0,0,0,1.4,0,2.61,2.61,0,0,0,1.51-.78,1.64,1.64,0,0,0,.65,1Z"/><path id="_Path_" data-name="&lt;Path&gt;" class="cls-48" d="M452.73,146.58s-.18,3.85,2.54,5.44,6.46-.17,6.93-.71,1.67-3.92-.38-5.05-4,.81-4,.81-1.13,1.28-1.59,1.29-1.74-1.14-1.92-3.55a.29.29,0,0,1,.22-.29c.52-.15,1.67-.76,1.08-3.08a.36.36,0,0,1,.32-.42,26.58,26.58,0,0,1,2.65-.27,3.81,3.81,0,0,1,.51,0,.29.29,0,0,1,.19.13l.46.82.73,1.25a.78.78,0,0,0,.27-.71,11.31,11.31,0,0,1-.43-1.53c.05-.22.68-.48.68-1,0-1.13-.43-5.45-3.86-2.79a6.68,6.68,0,0,1-1.24.91c-.52.19-1.11-.18-2.24-.1-1.58.11-8.36,1.7-6.18,7.73s5.74,6.89,5.74,6.89S452.05,147.35,452.73,146.58Z"/></g><path id="_Path_2" data-name="&lt;Path&gt;" class="cls-59" d="M452.73,146.58s-.34-1-1.21-.74c-1.16.4-1,3.33,1.48,2.94A7.59,7.59,0,0,1,452.73,146.58Z"/><path class="cls-47" d="M467.18,188.17a54.19,54.19,0,0,1-20.7.11,132.2,132.2,0,0,0,1-13.26v-.41c.09-2.6.14-4.45.2-4.52s-.29-8.44.39-11.68a2.19,2.19,0,0,1,.49-1.19,24.87,24.87,0,0,1,4.71-3.18s4.12,4.44,6.23-.47c2.31-.21,3.49.26,4.16,2.58C467.36,169,467.18,188.17,467.18,188.17Z"/><path class="cls-47" d="M461.21,153.6a20.36,20.36,0,0,0,7.75-1.67c2.18,2.57,3.5,7.25,3.5,7.25s-5.28,3.35-9.13,3.67A53.89,53.89,0,0,0,461.21,153.6Z"/><path class="cls-60" d="M462,154.41a18.53,18.53,0,0,1,3.15,8.12,23.65,23.65,0,0,0,7.35-3.35c-1.17.37-6.17,2.23-6.85.69A24.09,24.09,0,0,0,462,154.41Z"/><path class="cls-31" d="M461,157.29,477.81,159l-3.07,6.77-14.55-6.75a.71.71,0,0,1-.42-1l.19-.35A1,1,0,0,1,461,157.29Z"/><path class="cls-61" d="M461,157.29,477.81,159l-3.07,6.77-14.55-6.75a.71.71,0,0,1-.42-1l.19-.35A1,1,0,0,1,461,157.29Z"/><path class="cls-31" d="M477.55,162.83c-.9,1.85-2.21,3.17-2.93,2.95s-.58-1.92.32-3.77,2.21-3.17,2.93-2.95S478.45,161,477.55,162.83Z"/><path class="cls-61" d="M477.55,162.83c-.9,1.85-2.21,3.17-2.93,2.95s-.58-1.92.32-3.77,2.21-3.17,2.93-2.95S478.45,161,477.55,162.83Z"/><path class="cls-61" d="M477.55,162.83c-.9,1.85-2.21,3.17-2.93,2.95s-.58-1.92.32-3.77,2.21-3.17,2.93-2.95S478.45,161,477.55,162.83Z"/><path class="cls-56" d="M446,170.06s1.78,6.12,6.39,9a3.22,3.22,0,0,0,4.09-.81c3.16-3.53,6.32-11.49,7.33-14.5-1.85-1-2.45-.83-2.45-.83s-4.48,6.22-7.05,10.39L452.41,170"/><path class="cls-56" d="M461.25,163.16a6.08,6.08,0,0,0,.86-2.34c0-1-.44-2.76.54-3.66a4.17,4.17,0,0,1,3.08-.62c2.14.35,2.72,1,2.6,1.43s-1.59.61-2,1.38-.17,1.25-.27,2.09c-.14,1.27-1.91,1.8-2.29,2.43C463.51,164.32,461.25,163.16,461.25,163.16Z"/><path class="cls-60" d="M448.32,185.42c.53-1.84.79-8.32.84-9.93a8.5,8.5,0,0,0,5.86-3.82,34.55,34.55,0,0,0-4.89-7.65l-1.61-6s-.18.14-.46.41c-.68,3.24-.27,11.52-.39,11.68s-.11,1.92-.2,4.52V175h0a132.2,132.2,0,0,1-1,13.26,54.19,54.19,0,0,0,20.7-.11C455.67,189.16,447.72,187.52,448.32,185.42Z"/><path class="cls-47" d="M449.61,156.37s-4.75,3.12-5,8.42c-.15,4.1,2.56,10.08,2.56,10.08s4.7.52,7.17-3.32a29.18,29.18,0,0,0-2.78-5.74"/><path class="cls-31" d="M577.2,165l.31-53.94-12-.06-.28,49h0s0,.11,0,.24l0,4c-.28,7-2,20.17-11.34,20.12l34.47.19C579.29,184.46,577.49,172.13,577.2,165Z"/><path class="cls-31" d="M519.33,55.79a23.58,23.58,0,0,1,7,5.71c5.06,6.1,6,13.8,2.51,20.61a11.92,11.92,0,0,1-10.29,6.49,13.21,13.21,0,0,1-11.48-5.91,9.61,9.61,0,0,1,.08-10,4.48,4.48,0,0,1,7.75,4.5c-.32.54-.23.69-.14.89a4.39,4.39,0,0,0,3.51,1.51,2.8,2.8,0,0,0,2.6-1.63,1.24,1.24,0,0,0,.15-.33,9.18,9.18,0,0,0-1-9.74c-.19-.26-.37-.49-.55-.71-3.64-4.38-9.91-6.47-14.92-5C498.79,64,495,70.28,493.9,80,491.79,98.75,505,111.52,513,117.44c8.77,6.42,17.47,9.75,23.36,11,3.38.71,5.81.74,6.83.3a4.49,4.49,0,0,1,5.66,6.36,4.22,4.22,0,0,1-2.07,1.83,11.12,11.12,0,0,1-3.61.88c-8.8,1-23.55-4.32-35.48-13.13C491.14,112.42,483.08,96.22,485,79c2.07-18.27,11.53-23.75,17-25.35A23,23,0,0,1,519.33,55.79Z"/><path class="cls-62" d="M549.1,131a4.4,4.4,0,0,1-.21,4.06,4.22,4.22,0,0,1-2.07,1.83,11.12,11.12,0,0,1-3.61.88,61.09,61.09,0,0,1-6.81-9.37c3.38.71,5.81.74,6.83.3A4.44,4.44,0,0,1,549.1,131Z"/><path class="cls-62" d="M519.33,55.79a23.58,23.58,0,0,1,7,5.71c5.06,6.1,6,13.8,2.51,20.61a11.52,11.52,0,0,1-6.31,5.69c-.57-3.47-1.08-6.88-1.51-10.13a9.18,9.18,0,0,0-1-9.74C519.61,63.1,519.43,59,519.33,55.79Z"/><path class="cls-31" d="M622,55.73a23.74,23.74,0,0,0-7.21,5.49c-5.23,6-6.42,13.62-3.12,20.52a11.91,11.91,0,0,0,10.08,6.8A13.22,13.22,0,0,0,633.39,83a9.6,9.6,0,0,0,.22-10,4.48,4.48,0,1,0-7.88,4.26c.3.55.21.7.11.89a4.42,4.42,0,0,1-3.55,1.41,2.8,2.8,0,0,1-2.55-1.71,1.4,1.4,0,0,1-.15-.33,9.2,9.2,0,0,1,1.34-9.71c.2-.25.38-.48.57-.69,3.77-4.27,10.1-6.17,15.06-4.54,5.71,1.9,9.32,8.33,10.11,18.08,1.55,18.81-12,31.17-20.25,36.84a62.82,62.82,0,0,1-23.68,10.26c-3.4.61-5.83.57-6.83.09A4.45,4.45,0,0,0,590,130a4.37,4.37,0,0,0,.09,4.06,4.27,4.27,0,0,0,2,1.9,11.12,11.12,0,0,0,3.58,1c8.77,1.23,23.67-3.6,35.86-12.06,17-11.71,25.5-27.66,24.1-44.93-1.52-18.31-10.81-24.08-16.21-25.84A23,23,0,0,0,622,55.73Z"/><path class="cls-62" d="M590,130a4.37,4.37,0,0,0,.09,4.06,4.27,4.27,0,0,0,2,1.9,11.12,11.12,0,0,0,3.58,1,60.37,60.37,0,0,0,7.09-9.16c-3.4.61-5.83.57-6.83.09A4.45,4.45,0,0,0,590,130Z"/><path class="cls-62" d="M622,55.73a23.74,23.74,0,0,0-7.21,5.49c-5.23,6-6.42,13.62-3.12,20.52a11.47,11.47,0,0,0,6.13,5.88c.68-3.45,1.29-6.84,1.81-10.07a9.2,9.2,0,0,1,1.34-9.71C621.48,63,621.79,58.89,622,55.73Z"/><path class="cls-41" d="M616.64,49.26s0,3.23-.25,8.52c-1.07,21-6.84,74.5-37.55,89.71l-1.49,1.28a10.07,10.07,0,0,1-6.81,2.33L569,151a10,10,0,0,1-5.9-2.21l-1.75-1.43C531.22,132,525.83,79.58,524.89,58.05c-.24-5.77-.18-9.32-.18-9.32,0-5.16,6.07-6.48,6.07-6.48l79.82.47S616.67,44.1,616.64,49.26Z"/><path class="cls-63" d="M611.93,56.09l-82.61-.47a9.22,9.22,0,0,1-9.14-9.25h0a9.22,9.22,0,0,1,9.24-9.14L612,37.7A9.23,9.23,0,0,1,621.18,47h0A9.23,9.23,0,0,1,611.93,56.09Z"/><path class="cls-64" d="M616.64,49.26s0,3.23-.25,8.52a8.88,8.88,0,0,1-5.13,1.58l-82.61-.47a9.24,9.24,0,0,1-3.76-.84c-.24-5.77-.18-9.32-.18-9.32,0-5.16,6.07-6.48,6.07-6.48l79.82.47S616.67,44.1,616.64,49.26Z"/><path class="cls-31" d="M611.93,56.09l-82.61-.47a9.22,9.22,0,0,1-9.14-9.25h0a9.22,9.22,0,0,1,9.24-9.14L612,37.7A9.23,9.23,0,0,1,621.18,47h0A9.23,9.23,0,0,1,611.93,56.09Z"/><path class="cls-31" d="M611.93,56.09l-82.61-.47a9.22,9.22,0,0,1-9.14-9.25h0a9.22,9.22,0,0,1,9.24-9.14L612,37.7A9.23,9.23,0,0,1,621.18,47h0A9.23,9.23,0,0,1,611.93,56.09Z"/><path class="cls-31" d="M539,189.13h63.78a6.65,6.65,0,0,1,6.65,6.65v34.36a0,0,0,0,1,0,0H532.39a0,0,0,0,1,0,0V195.78A6.65,6.65,0,0,1,539,189.13Z" transform="translate(1.2 -3.25) rotate(0.33)"/><rect class="cls-31" x="527.1" y="223.55" width="87.45" height="6.59" rx="1.06" ry="1.06" transform="translate(1.3 -3.25) rotate(0.33)"/><rect class="cls-61" x="527.1" y="223.55" width="87.45" height="6.59" rx="1.06" ry="1.06" transform="translate(1.3 -3.25) rotate(0.33)"/><rect class="cls-41" x="546.86" y="198" width="48.16" height="19.69" rx="3.16" ry="3.16" transform="translate(1.19 -3.25) rotate(0.33)"/><rect class="cls-31" x="551.75" y="184.41" width="38.56" height="4.72" rx="0.76" ry="0.76" transform="translate(1.07 -3.25) rotate(0.33)"/><rect class="cls-61" x="551.75" y="184.41" width="38.56" height="4.72" rx="0.76" ry="0.76" transform="translate(1.07 -3.25) rotate(0.33)"/><path class="cls-65" d="M544.7,68c-1.37,16-1.8,51.7,17.8,74.6a1.28,1.28,0,0,1-1.77,1.83c-10.8-8.66-25.4-25.53-29.6-55.29a129.72,129.72,0,0,1-.61-22.36,7.09,7.09,0,0,1,6.63-6.49h0A7.11,7.11,0,0,1,544.7,68Z"/><path class="cls-64" d="M593.85,67.32c.52,16.07-1,51.73-21.74,73.56a1.28,1.28,0,0,0,1.68,1.92c11.24-8.08,26.71-24.15,32.48-53.64a129.38,129.38,0,0,0,1.8-22.3A7.09,7.09,0,0,0,601.8,60h0A7.1,7.1,0,0,0,593.85,67.32Z"/><polygon class="cls-31" points="558.61 206.06 562.36 206.74 559.54 209.3 560.05 213.08 556.75 211.19 553.32 212.84 554.09 209.11 551.46 206.36 555.24 205.95 557.05 202.59 558.61 206.06"/><polygon class="cls-31" points="572.63 206.06 576.38 206.74 573.56 209.3 574.07 213.08 570.76 211.19 567.34 212.84 568.11 209.11 565.48 206.36 569.26 205.95 571.07 202.59 572.63 206.06"/><polygon class="cls-31" points="586.65 206.06 590.4 206.74 587.58 209.3 588.09 213.08 584.79 211.19 581.36 212.84 582.13 209.11 579.5 206.36 583.28 205.95 585.09 202.59 586.65 206.06"/><text class="cls-66" transform="translate(556.91 113.56)">1</text><path class="cls-5" d="M534,238c0,.88-11.87,1.55-26.51,1.5s-26.5-.8-26.49-1.67,11.87-1.55,26.5-1.51S534,237.15,534,238Z"/><path class="cls-48" d="M504.3,142s.56-4.42,2.4-6c2.4-2.09,7.54-1.54,9.55.47a9,9,0,0,1,1.48,10c3.61,2.11,3.41,6.77.38,7.21l1.06,5.61a6.65,6.65,0,0,1-5.53,7.6l-6.72,1.35s-11.5-1.08-12.38-6.76,4.36-8.32,4.36-8.32-2.52-4.77.12-8.13S504.3,142,504.3,142Z"/><path class="cls-44" d="M520.73,158.76s10.36,1.64,13.17,1.51c2.21.13,5.83-11.93,6.15-12.67a4.11,4.11,0,0,0,2.17-3.44c0-.83-2.27-1.54-2.49-1.12.38-1.1.46-1.45.56-1.83.21-.78-.39-1.38-1.25,1.58a30.59,30.59,0,0,0-1,3.47c-1.39,2.66-5,8.88-5.21,9.82-4.64-.11-12.5-1.92-12.5-1.92Z"/><path class="cls-44" d="M504.87,158.84s-8.09,6.61-10.43,8c-1.69,1.31-12.27-6.66-13-7.08-2.12.08-3-.67-3.52-1.36s.84-2.47,1.28-2.26c-1-.68-1.3-.91-1.62-1.16-.68-.52-.58-1.33,2,.58s2.18,1.54,3,2.26c2.83,1.38,9.72,4.43,10.52,5,3.66-2.62,8.82-8.39,8.82-8.39Z"/><path class="cls-44" d="M517.22,230.82a16.23,16.23,0,0,1,.42,3.47c-.21,1.07,0,1.38,0,1.38l4.39-.34s-1.94-.88-1.8-5.06S517.22,230.82,517.22,230.82Z"/><path class="cls-48" d="M517.59,234.61a7.31,7.31,0,0,0,3.79.16,19.05,19.05,0,0,0,5.8,1.56c2,.23,1.66,1.76-1.79,1.55a45.17,45.17,0,0,0-6.62,0c-.76.07-2,.16-2-.33S517,234.45,517.59,234.61Z"/><path class="cls-67" d="M518.92,177.05s2.82,25.41,3,28.71a40.17,40.17,0,0,1,0,6.47c-.17,2,1.28,19,1.28,19s-6.58,1.47-8.25.16c0,0,.27-18.49-.57-21.65s-4.11-19.2-4.11-19.2L514,174.13Z"/><path class="cls-68" d="M504.85,201.41s-.51,5.39-1.59,6.39c-.67,1.62-.67,1.62.38,2.27,1.6,1,4.84,2.87,5.64,2.07,3-3,3.13-4,3.84-7.91.24-.89,4.43-26.49,4.43-26.49s-13.35-1.86-13.4,1.8S505.52,197.15,504.85,201.41Z"/><path class="cls-44" d="M488.4,224.25a18.37,18.37,0,0,1-2.74,2.41c-1.05.5-1.19.84-1.19.84l3,3s-.42-1.95,3.26-4.39S488.4,224.25,488.4,224.25Z"/><path class="cls-48" d="M485.35,226.82a6.31,6.31,0,0,0,2.17,2.88,15.5,15.5,0,0,0,2.18,5.19c1,1.62-.52,2.29-2.43-.37a39.31,39.31,0,0,0-4-4.84c-.52-.52-1.35-1.36-.95-1.7S485.11,226.26,485.35,226.82Z"/><path class="cls-68" d="M503.76,207c-5.83,7.27-15.69,12.75-18.47,17-.5,1.35,6,4.79,6,4.79s13.44-12.17,16.19-14.84a26.74,26.74,0,0,0,3-3C507.79,210.11,505.39,204.93,503.76,207Z"/><path class="cls-54" d="M516.25,162.21c-.39.92,2.61,13.67,3.11,16.61l-.18,0c-1.31-.19-9.29-1.24-15.73,1.44l-.59-18,0-.67s0-.68.06-1.73h0c.15-2.14.59-5.76,2-8.08a3.93,3.93,0,0,1,2.95-2.19c4-.4,4,1.25,7.7,2.17l6,1.49s-.67,4.69,0,6.08h-4.19S516.64,161.28,516.25,162.21Z"/><path class="cls-44" d="M515.19,138.13s2.54,5.9.62,8.59a5.41,5.41,0,0,1-4,2.07v2.91a1.42,1.42,0,0,1-.8.28c-.88.05-3.22-1.37-3.22-1.37V139.18Z"/><path class="cls-69" d="M505.81,159.18c-1.37,1.37-2.32,2.36-2.95,3l0-.67s0-6.35,2-9.82a2.61,2.61,0,0,1,.94-.1C509,151.85,508.84,156.17,505.81,159.18Z"/><path class="cls-69" d="M521.56,159.27s-2.83-.11-3.16-.65-1.44-2.93-3.17-3.75c0,0,2.43,2.36,2.14,4.4Z"/><path class="cls-69" d="M519.18,178.78c-1.31-.19-9.29-1.24-15.73,1.44l-.59-18,0-.67s0-.68.06-1.73l1.54.47s0,15.78.82,16.77,7.68.24,9.47.52A37.19,37.19,0,0,1,519.18,178.78Z"/><path class="cls-54" d="M497.44,157.41s5.17-6.72,8.38-6.49,3,4.56,0,7.57-4,4.18-4,4.18S498.11,161,497.44,157.41Z"/><path class="cls-48" d="M515.42,137.46s-1.19,5.27-4,6.66-.67,4.81-3.31,7.37a2.84,2.84,0,0,1-2.83.36,3.64,3.64,0,0,0-3.63.82,1.49,1.49,0,0,0-.23.28c-3.42-2.26,5.24-14.82,5.24-14.82Z"/><circle class="cls-70" cx="239.24" cy="130.76" r="84.67"/></g></g></g></svg>