<svg xmlns="http://www.w3.org/2000/svg" viewBox="0 0 27 27"><defs><style>.cls-1{fill:#022a3a;}</style></defs><title>Asset 3</title><g id="Layer_2" data-name="Layer 2"><g id="Layer_3" data-name="Layer 3"><path class="cls-1" d="M22.48,5.23a.81.81,0,0,1-.77-1.07,3.14,3.14,0,0,0,.18-1.06,3.08,3.08,0,0,0-3-3.1c-1.09,0-3.41,1.4-4.78,2.88a.8.8,0,0,1-1.17,0C11.51,1.42,9.2.06,8.15.06a3.08,3.08,0,0,0-3,3.1,3.13,3.13,0,0,0,.17,1,.8.8,0,0,1-.76,1H.8A.8.8,0,0,0,0,6v5.81a.8.8,0,0,0,.8.8h0a.8.8,0,0,1,.8.8V26.2a.8.8,0,0,0,.8.8H24.59a.8.8,0,0,0,.8-.8V13.44a.8.8,0,0,1,.8-.8h0a.8.8,0,0,0,.8-.8V6a.8.8,0,0,0-.8-.8ZM18.85,1.15a1.94,1.94,0,0,1,1.9,2,2,2,0,0,1-1.43,1.95l-.21,0H14.66a.78.78,0,0,1-.32-.07c-.16-.07-.21-.14-.21-.19,0-1,3.44-3.74,4.71-3.74Zm-10.69,0c1.21,0,4.71,2.76,4.71,3.74,0,0-.06.09-.13.14a.78.78,0,0,1-.41.11H7.91l-.21,0A2,2,0,0,1,6.27,3.16a2,2,0,0,1,1.89-2Zm1.09,24.7H3.56a.8.8,0,0,1-.8-.8V13.44a.8.8,0,0,1,.8-.8H9.25a.8.8,0,0,1,.8.8V25A.8.8,0,0,1,9.25,25.85Zm.8-14.3H2a.8.8,0,0,1-.8-.8V7.18a.8.8,0,0,1,.8-.8h7.3a.8.8,0,0,1,.8.8v4.37ZM15,25.85H12a.8.8,0,0,1-.8-.8V7.18a.8.8,0,0,1,.8-.8h3a.8.8,0,0,1,.8.8V25A.8.8,0,0,1,15,25.85Zm8.45,0H17.75a.8.8,0,0,1-.8-.8V13.44a.8.8,0,0,1,.8-.8h5.69a.8.8,0,0,1,.8.8V25A.8.8,0,0,1,23.44,25.85Zm2.41-14.3h-8.1a.8.8,0,0,1-.8-.8V7.18a.8.8,0,0,1,.8-.8H25a.8.8,0,0,1,.8.8v4.37Zm0,0"/></g></g></svg>