<svg xmlns="http://www.w3.org/2000/svg" viewBox="0 0 391.89 97.97"><defs><style>.cls-1{fill:#022a3a;}</style></defs><title>Asset 1</title><g id="Layer_2" data-name="Layer 2"><g id="Layer_3" data-name="Layer 3"><path class="cls-1" d="M49,68.22h0ZM28,66.91c-3.28,3.25-7.35,9.16-7.82,10.84,1.7-.47,7.59-4.53,10.85-7.82,3.81-3.84,4.27-7.19,4.29-7.31S31.94,63,28,66.91m7.32-4.3h0ZM49,68.22c-.1.06-2.18,1.51-1.87,9.58C47.23,80.5,47.58,96,49,98h0c1.4-2,1.75-17.47,1.85-20.16.31-8.08-1.76-9.52-1.85-9.58M33.43,71.81a27.67,27.67,0,0,0,10.64,4.43l.42-2.52a25.26,25.26,0,0,1-9.59-4ZM68.22,49h0Zm9.58-1.86c-8.08-.31-9.52,1.76-9.58,1.86s1.5,2.18,9.58,1.87C80.5,50.75,96,50.39,98,49h0c-2-1.4-17.47-1.75-20.17-1.85M76.23,53.9l-2.52-.41a25,25,0,0,1-4,9.58l2.09,1.48A28,28,0,0,0,76.23,53.9M62.63,62.62S63,66,66.91,69.93c3.25,3.28,9.15,7.35,10.85,7.82-.47-1.68-4.55-7.6-7.82-10.84C66,63,62.63,62.62,62.63,62.62M53.5,73.72l.41,2.52A28.13,28.13,0,0,0,64.6,71.91l-1.48-2.09a24.93,24.93,0,0,1-9.62,3.9M26.07,64.6l2.08-1.48a25.23,25.23,0,0,1-3.89-9.62l-2.52.41A27.63,27.63,0,0,0,26.07,64.6M49,29.75c.1-.06,2.17-1.51,1.87-9.59C50.74,17.46,50.39,2,49,0h0c-1.39,2-1.75,17.46-1.85,20.16-.31,8.08,1.76,9.53,1.86,9.59m15.57-3.58A27.9,27.9,0,0,0,53.9,21.75l-.42,2.52a25.27,25.27,0,0,1,9.59,4ZM49,29.75h0Zm21,1.32c3.27-3.25,7.35-9.15,7.82-10.85-1.69.47-7.6,4.55-10.85,7.81C63,32,62.63,35.36,62.63,35.36S66,35,69.94,31.08m3.77,13.4,2.52-.4a27.77,27.77,0,0,0-4.33-10.7l-2.08,1.48a25.27,25.27,0,0,1,3.89,9.61M29.75,49c-.06-.1-1.5-2.18-9.59-1.87C17.46,47.22,2,47.58,0,49H0c2,1.4,17.46,1.76,20.15,1.85,8.09.31,9.53-1.76,9.59-1.86M44.48,24.27l-.41-2.52a27.76,27.76,0,0,0-10.69,4.33l1.48,2.08a25,25,0,0,1,9.62-3.89M29.75,49h0Zm-8-4.91,2.52.41a25.3,25.3,0,0,1,4-9.59l-2.08-1.47a27.9,27.9,0,0,0-4.42,10.64m13.62-8.73S35,32,31.07,28c-3.25-3.26-9.15-7.34-10.85-7.8.47,1.69,4.53,7.6,7.82,10.84,3.92,3.9,7.32,4.29,7.32,4.29M37.3,49A11.69,11.69,0,1,0,49,37.3,11.68,11.68,0,0,0,37.3,49"/><path class="cls-1" d="M258.81,24.62h-3.58V45.09h3.58Zm7.72,50.65c0,1.85-1.51,2.83-4,2.83h-6V72.43h5.75c2.86,0,4.24,1,4.24,2.77Zm-10-11.38h5.22c2.33,0,3.62,1,3.62,2.62v.06c0,1.89-1.56,2.8-3.89,2.8h-5Zm9.53,6.69A4.91,4.91,0,0,0,269,66v-.06a4.6,4.6,0,0,0-1.39-3.42,7.42,7.42,0,0,0-5.39-1.83H253V81.31h9.55c4.6,0,7.64-2,7.64-5.66v-.06c0-2.8-1.68-4.19-4.1-5m8.39,10.73h3.63V60.67h-3.63Zm-39.37-8.2,3.53-8.25,3.57,8.25ZM237,60.52l-9.08,20.78h3.71l2.12-5h9.76l2.09,5h3.83l-9.08-20.78Zm59-27.55a5.88,5.88,0,0,1,1,3.8v8.32h29.45V29.28h-3.58v12.6H300.62V36.77a14.92,14.92,0,0,0-.34-3.38,6,6,0,0,0-1.21-2.53,5.27,5.27,0,0,0-2.28-1.57,10.1,10.1,0,0,0-3.46-.52,19.35,19.35,0,0,0-2.54.17c-.83.11-1.72.27-2.63.47l-.23,0V41.88h-3.84a17.41,17.41,0,0,1-4.81-.55,7.23,7.23,0,0,1-2.91-1.53,5.22,5.22,0,0,1-1.45-2.29,10.23,10.23,0,0,1-.42-3,16,16,0,0,1,.19-2.57c.12-.76.24-1.51.4-2.34l.08-.54h-3.7l-.05.2c-.11.6-.25,1.59-.37,2.46l-.1.77a14.11,14.11,0,0,0-.2,2.41,12.9,12.9,0,0,0,.7,4.17,8,8,0,0,0,2.24,3.23,10.62,10.62,0,0,0,4,2.06,20.54,20.54,0,0,0,5.84.72h8V31.92c.16,0,.36,0,.6-.06l.93,0a3.78,3.78,0,0,1,3,1.14m-75.54,8.91h-2a4.44,4.44,0,0,1-3.44-1.3,5.67,5.67,0,0,1-1.2-3.92,5.09,5.09,0,0,1,.42-2.14,5,5,0,0,1,1-1.51,4.14,4.14,0,0,1,1.39-.88,4.07,4.07,0,0,1,1.45-.3l.52,0,.71,0c.25,0,.48,0,.72.06l.37.06Zm25.87,0H224.09V29.33l-.25,0c-.93-.16-1.8-.28-2.57-.37a24.54,24.54,0,0,0-2.72-.14,8.73,8.73,0,0,0-3.55.69,7.78,7.78,0,0,0-2.65,1.88,8.15,8.15,0,0,0-1.65,2.73,9.35,9.35,0,0,0-.56,3.25,9.51,9.51,0,0,0,.43,2.85,6.82,6.82,0,0,0,1.39,2.49,7,7,0,0,0,2.47,1.76,9.1,9.1,0,0,0,3.67.67h2.41c-.17,3.15-2.14,4.68-6,4.68a15.17,15.17,0,0,1-2.29-.18c-.77-.12-1.54-.27-2.28-.44l-.39-.09.27,3.92.23,0c.55.09,1.23.17,2,.24s1.82.1,2.42.1a10.72,10.72,0,0,0,4.36-.79,8.41,8.41,0,0,0,3-2,7.71,7.71,0,0,0,1.65-2.76,11,11,0,0,0,.56-2.68H250V29.25h-3.58Zm1.45,9.06a2.08,2.08,0,0,0,.55-1.45,2,2,0,0,0-.56-1.42,1.92,1.92,0,0,0-1.45-.59,2,2,0,0,0-1.48.59,1.94,1.94,0,0,0-.59,1.42,2,2,0,0,0,.59,1.45,2,2,0,0,0,1.48.62,1.9,1.9,0,0,0,1.45-.63M385,69.34c-3.95-.95-4.89-1.65-4.89-3.25V66c0-1.36,1.24-2.45,3.36-2.45a9.37,9.37,0,0,1,5.6,2.12L391,63a11.43,11.43,0,0,0-7.49-2.6c-4.1,0-7,2.45-7,6v.06c0,3.8,2.48,5.1,6.87,6.16,3.83.88,4.66,1.68,4.66,3.15v.06c0,1.56-1.41,2.6-3.66,2.6a9.49,9.49,0,0,1-6.51-2.69l-2.18,2.6a12.7,12.7,0,0,0,8.61,3.3c4.33,0,7.37-2.3,7.37-6.16v-.06c0-3.42-2.27-5-6.63-6m-80.28-1.62c0,2.15-1.71,3.68-4.45,3.68h-4.22V64h4.22c2.71,0,4.45,1.27,4.45,3.69Zm-4.16-7h-8.14V81.31h3.63V74.67h4.1c4.54,0,8.25-2.42,8.25-7v-.06c0-4.16-3-6.9-7.84-6.9m-79.8,8.58h-9.85V60.67h-3.63V81.31h3.63V72.61h9.85v8.69h3.63V60.67h-3.63Zm167.5-31.34a4.51,4.51,0,0,1-4.54,4.77,4.66,4.66,0,0,1-4.57-4.83v-.06A4.5,4.5,0,0,1,383.67,33a4.62,4.62,0,0,1,4.6,4.83Zm-38.57,4h-2a4.44,4.44,0,0,1-3.44-1.3,5.68,5.68,0,0,1-1.2-3.92,5.08,5.08,0,0,1,.42-2.14,4.89,4.89,0,0,1,1-1.51,4.12,4.12,0,0,1,1.39-.88,4.07,4.07,0,0,1,1.45-.3l.52,0,.71,0c.24,0,.49,0,.72.06l.37.06Zm34-12a8.05,8.05,0,0,0-8.18,7.81v.07h.07l-.07.07v.13a6.74,6.74,0,0,1-.26,1.87,3.49,3.49,0,0,1-.68,1.28,2.15,2.15,0,0,1-.94.63,3.59,3.59,0,0,1-1.13.18H353.28V29.33l-.25,0c-.93-.16-1.8-.28-2.57-.37a24.61,24.61,0,0,0-2.72-.14,8.74,8.74,0,0,0-3.55.69,7.8,7.8,0,0,0-2.65,1.88,8.15,8.15,0,0,0-1.65,2.73,9.35,9.35,0,0,0-.57,3.25,9.62,9.62,0,0,0,.43,2.85,6.88,6.88,0,0,0,1.39,2.49,7,7,0,0,0,2.47,1.76,9.09,9.09,0,0,0,3.67.67h2.41c-.18,3.15-2.15,4.68-6,4.68a15.16,15.16,0,0,1-2.29-.18c-.77-.12-1.53-.27-2.28-.44l-.39-.09L339,53l.23,0c.55.09,1.22.17,2,.24s1.52.1,2.17.1a12,12,0,0,0,4.62-.79,8.41,8.41,0,0,0,3-2,7.72,7.72,0,0,0,1.65-2.76,10.82,10.82,0,0,0,.56-2.68h19.13a5.62,5.62,0,0,0,3.14-.94A4.89,4.89,0,0,0,377,42.44a8.26,8.26,0,0,0,14.93-4.59v-.06a8,8,0,0,0-8.16-8M356.91,64h6.54V81.31h3.66V64h6.54V60.67H356.91ZM329,71a7,7,0,0,1-7,7.28A7.07,7.07,0,0,1,315,71v-.06a7,7,0,0,1,7-7.28A7.07,7.07,0,0,1,329,71Zm-7-10.73A10.57,10.57,0,0,0,311.2,71V71A10.79,10.79,0,0,0,332.78,71v-.06A10.47,10.47,0,0,0,322,60.32m9.74-15.22h3.58V20.24h-3.58Zm9,25.81V64h5.28c2.68,0,4.28,1.21,4.28,3.42v.06c0,2.09-1.65,3.45-4.25,3.45ZM354,67.24v-.06a6.22,6.22,0,0,0-1.71-4.45,8.3,8.3,0,0,0-6-2.06h-9.2V81.31h3.63V74.11h4.54l5.07,7.19h4.27l-5.57-7.81c2.89-.83,4.92-2.86,4.92-6.25m-94.82-47h-1.48a1.81,1.81,0,0,1-1.29-.37,1.14,1.14,0,0,1-.37-.83.86.86,0,0,1,.31-.71,1.57,1.57,0,0,1,1-.26l.39,0,.55,0h.08l.44-1.77-.1,0-.82-.1-.72,0a3.8,3.8,0,0,0-2.34.7,2.3,2.3,0,0,0-.93,1.92,2.48,2.48,0,0,0,.19,1.05l0,.05.06.08.16.24-.29,0h-1.59v2.08h6.71ZM145.38,75.27c0,1.85-1.5,2.83-4,2.83h-6V72.43h5.75c2.86,0,4.24,1,4.24,2.77Zm-10-11.38h5.22c2.33,0,3.63,1,3.63,2.62v.06c0,1.89-1.56,2.8-3.89,2.8h-5Zm9.53,6.69a4.92,4.92,0,0,0,2.95-4.6v-.06a4.62,4.62,0,0,0-1.39-3.42,7.44,7.44,0,0,0-5.4-1.83h-9.26V81.31h9.55c4.6,0,7.63-2,7.63-5.66v-.06c0-2.8-1.68-4.19-4.1-5m-23.79-19a2,2,0,0,0,1.64-.82,2.07,2.07,0,0,0-.18-2.66,2.08,2.08,0,0,0-2.93,0,2.08,2.08,0,0,0,0,2.87,2,2,0,0,0,1.47.61m6.38-.62a2.08,2.08,0,0,0,.56-1.45,2,2,0,0,0-.56-1.42,1.92,1.92,0,0,0-1.45-.59,2,2,0,0,0-1.48.59A2,2,0,0,0,124,49.5a2,2,0,0,0,.59,1.45,2,2,0,0,0,1.48.62,1.89,1.89,0,0,0,1.45-.63M113.94,73.11l3.54-8.25L121,73.11Zm1.92-12.59-9.08,20.78h3.71l2.12-5h9.76l2.09,5h3.84l-9.08-20.78ZM195.44,27a1.9,1.9,0,0,0,1.46-.63,2.08,2.08,0,0,0,.55-1.44,2,2,0,0,0-.56-1.42,1.93,1.93,0,0,0-1.45-.59,2,2,0,0,0-1.48.59,1.94,1.94,0,0,0-.59,1.43,2,2,0,0,0,.59,1.45,2,2,0,0,0,1.48.62m129.3,0a1.89,1.89,0,0,0,1.45-.63,2.08,2.08,0,0,0,.55-1.44,2,2,0,0,0-.56-1.42,1.93,1.93,0,0,0-1.45-.59,2,2,0,0,0-1.48.59,1.94,1.94,0,0,0-.59,1.43,2,2,0,0,0,.59,1.45,2,2,0,0,0,1.48.62M203,41.88h-12.3A25,25,0,0,1,192.56,38a18.45,18.45,0,0,1,2.35-3.24,10.68,10.68,0,0,1,2.47-2,4.53,4.53,0,0,1,2.22-.69,3.24,3.24,0,0,1,1.6.36,3,3,0,0,1,1.06,1,4.64,4.64,0,0,1,.6,1.58,10.36,10.36,0,0,1,.19,2.09Zm-2.87-13.13a7.09,7.09,0,0,0-3.31.85,12.86,12.86,0,0,0-3,2.17,19,19,0,0,0-2.49,3c-.38.56-.73,1.14-1,1.69,0-.16,0-.33.05-.51.06-.54.1-1.19.15-2s.06-1.58.06-2.39V20.23H187V41.88H164.71V29.25h-3.58V41.88H138.74V36.77a15,15,0,0,0-.34-3.38,6.13,6.13,0,0,0-1.2-2.53,5.32,5.32,0,0,0-2.28-1.57,10.11,10.11,0,0,0-3.47-.52,19.31,19.31,0,0,0-2.54.17c-.83.11-1.72.27-2.63.47l-.23,0V41.88h-3.84a17.39,17.39,0,0,1-4.81-.55,7.16,7.16,0,0,1-2.91-1.53A5.21,5.21,0,0,1,113,37.51a10.25,10.25,0,0,1-.42-3A15.56,15.56,0,0,1,112.8,32l0-.1c.12-.73.24-1.47.39-2.28l.09-.54h-3.7l-.05.2c-.11.6-.25,1.59-.37,2.47l-.1.76a14,14,0,0,0-.2,2.41,13,13,0,0,0,.7,4.17,8,8,0,0,0,2.24,3.23,10.62,10.62,0,0,0,4,2.06,20.51,20.51,0,0,0,5.84.72h8V31.92c.16,0,.37,0,.59-.06l.93,0a3.77,3.77,0,0,1,3,1.14,5.87,5.87,0,0,1,1,3.8v8.32h71.62V36.61c0-2.58-.6-4.56-1.78-5.87a6.22,6.22,0,0,0-4.84-2m76.53-5.11H275.2a1.78,1.78,0,0,1-1.29-.37,1.13,1.13,0,0,1-.37-.83.85.85,0,0,1,.31-.71,1.58,1.58,0,0,1,1-.26h.36l.56,0h.08l.44-1.77-.1,0-.82-.1c-.26,0-.5,0-.72,0a3.77,3.77,0,0,0-2.34.7,2.28,2.28,0,0,0-.93,1.91,2.5,2.5,0,0,0,.19,1.05l.05.09,0,.07.16.24-.29,0H270v2.06h6.72ZM199.11,71c0,4-2.83,7-7.17,7h-4.07V64h4.07a6.77,6.77,0,0,1,7.17,7Zm-7.17-10.37h-7.69V81.31h7.69c6.49,0,11-4.51,11-10.32v-.06c0-5.81-4.48-10.26-11-10.26m-27.53-9.73A2.1,2.1,0,0,0,165,49.5a2,2,0,0,0-.56-1.42,1.92,1.92,0,0,0-1.45-.59,2,2,0,0,0-1.48.59,1.92,1.92,0,0,0-.6,1.42,2,2,0,0,0,.59,1.45,2,2,0,0,0,1.48.62,1.9,1.9,0,0,0,1.46-.63m2.4,21.61c0,3.8-2,5.75-5.19,5.75s-5.22-2.06-5.22-5.9V60.67h-3.63V72.55c0,6,3.42,9.08,8.78,9.08s8.88-3.1,8.88-9.26V60.67h-3.63Z"/></g></g></svg>