<svg xmlns="http://www.w3.org/2000/svg" viewBox="0 0 24.22 28"><defs><style>.cls-1{fill:#022a3a;}</style></defs><title>Asset 2</title><g id="Layer_2" data-name="Layer 2"><g id="Layer_3" data-name="Layer 3"><path class="cls-1" d="M24.13,23.45,22.05,20a10.3,10.3,0,0,1-1.47-5.3v-3a8.48,8.48,0,0,0-17,0v3A10.3,10.3,0,0,1,2.17,20L.09,23.45a.6.6,0,0,0,.52.92h23a.6.6,0,0,0,.52-.92ZM1.68,23.16,3.2,20.61a11.5,11.5,0,0,0,1.64-5.92v-3a7.26,7.26,0,0,1,14.53,0v3A11.51,11.51,0,0,0,21,20.61l1.53,2.55Zm0,0"/><path class="cls-1" d="M12.11,0A2.42,2.42,0,0,0,9.69,2.42V3.78a.61.61,0,0,0,1.21,0V2.42a1.21,1.21,0,1,1,2.42,0V3.78a.61.61,0,0,0,1.21,0V2.42A2.42,2.42,0,0,0,12.11,0Zm0,0"/><path class="cls-1" d="M14.73,23.46a.61.61,0,1,0-1,.61,1.82,1.82,0,1,1-3.15,0,.61.61,0,1,0-1-.61,3,3,0,1,0,5.24,0Zm0,0"/></g></g></svg>