<svg xmlns="http://www.w3.org/2000/svg" viewBox="0 0 31.85 21.38"><defs><style>.cls-1{fill:#b2b2b2;}</style></defs><title>Access and Messages</title><g id="Layer_2" data-name="Layer 2"><g id="Layer_1-2" data-name="Layer 1"><path class="cls-1" d="M31.6.86v0a.48.48,0,0,0,0-.12v0a.47.47,0,0,0-.06-.15s0,0,0,0h0l0,0A.63.63,0,0,0,31.4.35h0L31.25.27H31L.67,6.52A.52.52,0,0,0,.25,7a.51.51,0,0,0,.28.53l8.68,4.58,1.52,8.45v.15a.13.13,0,0,1,0,.06.84.84,0,0,0,.06.14s0,0,0,0h0s0,0,0,0l.08.08h0s0,0,0,0a.33.33,0,0,0,.1.06h0l.14,0h0a.53.53,0,0,0,.37-.17l5.78-3.85L23.49,21a.51.51,0,0,0,.28.09.47.47,0,0,0,.17,0,.51.51,0,0,0,.32-.32L31.57,1l0,0v0ZM25.55,4.19,13,13.4l0,0,0,0,0,0,0,0a.47.47,0,0,0-.05.1v0h0L11.4,18.33,10.26,12ZM12.21,19.34l1.42-4.71,2.22,1.45.63.41ZM27.42,2.06,9.68,11.14,2.3,7.25ZM23.51,19.81l-8-5.23-1.22-.79L30,2.22Z"/><path class="cls-1" d="M23.77,21.38a.76.76,0,0,1-.41-.13l-5.92-3.84-5.65,3.76a.71.71,0,0,1-.51.21h0a.65.65,0,0,1-.21,0l-.06,0-.12-.06-.1-.07h0l-.1-.1L10.57,21V21a.77.77,0,0,1-.07-.16v-.09a1.09,1.09,0,0,1,0-.17L9,12.24.41,7.72a.77.77,0,0,1-.4-.8.75.75,0,0,1,.61-.64L31,0h.12l.13,0h.08a.62.62,0,0,1,.2.1.81.81,0,0,1,.21.2l.08.08v0a.83.83,0,0,1,.05.18V.71a.61.61,0,0,1,0,.14l0,.13L24.5,20.87a.8.8,0,0,1-.48.47A1.18,1.18,0,0,1,23.77,21.38Zm-12.71-.47v.18l.07-.24.09,0h0a.25.25,0,0,0,.22-.08l6-4,6.2,4a.24.24,0,0,0,.14.05l.1,0A.25.25,0,0,0,24,20.7L31.35.78V.7a.11.11,0,0,0,0-.06v0l0,0,0,0-.06,0H31L.72,6.77A.27.27,0,0,0,.5,7a.28.28,0,0,0,.14.28l8.8,4.64L11,20.55v.09a.19.19,0,0,0,0,.1l.1.12Zm-.11,0,0,.12.06-.12Zm12.69-.7L13.81,13.8,30.51,1.52Zm-9-6.41,8.69,5.65L29.47,2.91Zm-2.92,6.15,1.72-5.69,3.45,2.24Zm2-4.9-1.12,3.71L16,16.49Zm-2.43,4.36L10,11.88,25.44,4l.26.42L13.09,13.72v0l0,0Zm-.8-7.23.92,5.12,1.17-3.76a1.17,1.17,0,0,1,0-.11l.05-.06,0-.06.09-.09,10-7.37Zm-.86-.74L1.57,7.15l27.6-5.71ZM3,7.35l6.66,3.51,16-8.18Z"/></g></g></svg>