<svg xmlns="http://www.w3.org/2000/svg" viewBox="0 0 19.15 20.16"><defs><style>.cls-1{fill:#002a3a;}</style></defs><title>Calender</title><g id="Layer_2" data-name="Layer 2"><g id="Layer_1-2" data-name="Layer 1"><path class="cls-1" d="M16.15,1.2H13.76V.6a.6.6,0,0,0-1.2,0v.6h-6V.6A.57.57,0,0,0,6,0a.57.57,0,0,0-.6.6v.6H3a3,3,0,0,0-3,3v13a3,3,0,0,0,3,3H16.15a3,3,0,0,0,3-3v-13a3,3,0,0,0-3-3ZM1.2,4.19A1.84,1.84,0,0,1,3,2.39H5.38V3a.57.57,0,0,0,.6.6.57.57,0,0,0,.6-.6v-.6h6V3a.6.6,0,0,0,1.2,0v-.6h2.39A1.85,1.85,0,0,1,18,4.19v4H1.2ZM18,17.17A1.84,1.84,0,0,1,16.15,19H3A1.83,1.83,0,0,1,1.2,17.17V9.39H18Z"/><rect class="cls-1" x="3.66" y="11.61" width="4.47" height="4.18" rx="1.1" ry="1.1"/></g></g></svg>