<svg xmlns="http://www.w3.org/2000/svg" viewBox="0 0 28.34 26.05"><defs><style>.cls-1{fill:#002a3a;}</style></defs><title>Comms Module-S</title><g id="Layer_2" data-name="Layer 2"><g id="Layer_1-2" data-name="Layer 1"><path class="cls-1" d="M4.89,10.92h6a.47.47,0,0,0,0-.93h-6a.47.47,0,0,0,0,.93Z"/><path class="cls-1" d="M10.92,11.17h-6a.72.72,0,0,1,0-1.43h6a.72.72,0,0,1,0,1.43Zm-6-.93a.21.21,0,0,0-.21.22.21.21,0,0,0,.21.21h6a.21.21,0,0,0,.21-.21.21.21,0,0,0-.21-.22Z"/><path class="cls-1" d="M17,12.78H4.89a.46.46,0,1,0,0,.92H17a.46.46,0,1,0,0-.92Z"/><path class="cls-1" d="M17,14H4.89a.71.71,0,0,1,0-1.42H17A.71.71,0,1,1,17,14ZM4.89,13a.21.21,0,0,0,0,.42H17A.21.21,0,1,0,17,13Z"/><path class="cls-1" d="M17,15.56H4.89a.47.47,0,0,0,0,.93H17a.47.47,0,1,0,0-.93Z"/><path class="cls-1" d="M17,16.74H4.89a.72.72,0,0,1,0-1.43H17a.72.72,0,1,1,0,1.43ZM4.89,15.81a.21.21,0,0,0-.21.21.21.21,0,0,0,.21.22H17a.22.22,0,1,0,0-.43Z"/><path class="cls-1" d="M25.34.28,9.5.25A2.76,2.76,0,0,0,6.74,3V5.38H3A2.75,2.75,0,0,0,.25,8.14V18A2.75,2.75,0,0,0,3,20.7H5.82v4.64a.47.47,0,0,0,.29.43l.17,0a.45.45,0,0,0,.34-.15l4.51-4.95,7.71,0a2.75,2.75,0,0,0,2.75-2.75v-.05L24,20.54a.47.47,0,0,0,.34.16.47.47,0,0,0,.17,0,.48.48,0,0,0,.3-.44V15.59h.49a2.76,2.76,0,0,0,2.76-2.75V3A2.76,2.76,0,0,0,25.34.28ZM20.66,17.91a1.82,1.82,0,0,1-1.82,1.83l-7.92,0a.43.43,0,0,0-.34.15L6.74,24.13v-3.9a.46.46,0,0,0-.46-.46H3a1.82,1.82,0,0,1-1.82-1.83V8.14A1.82,1.82,0,0,1,3,6.31H7.21l11.63,0a1.82,1.82,0,0,1,1.82,1.83Zm6.5-5.07a1.83,1.83,0,0,1-1.83,1.83h-1a.46.46,0,0,0-.46.46V19l-2.32-2.55V8.11a2.76,2.76,0,0,0-2.75-2.76l-11.17,0V3A1.83,1.83,0,0,1,9.49,1.18l15.84,0h0A1.83,1.83,0,0,1,27.16,3Z"/><path class="cls-1" d="M6.28,26.05A.75.75,0,0,1,6,26a.72.72,0,0,1-.45-.66V21H3a3,3,0,0,1-3-3V8.14a3,3,0,0,1,3-3H6.5V3a3,3,0,0,1,3-3L25.34,0a3,3,0,0,1,3,3v9.81a3,3,0,0,1-3,3h-.24v4.39a.71.71,0,0,1-1.24.48l-2.06-2.26a3,3,0,0,1-2.95,2.46l-7.6,0L6.81,25.82A.76.76,0,0,1,6.28,26.05ZM9.5.5A2.5,2.5,0,0,0,7,3V5.63H3A2.5,2.5,0,0,0,.5,8.14V18A2.5,2.5,0,0,0,3,20.45H6.07v4.89a.22.22,0,0,0,.14.2.25.25,0,0,0,.23-.06l4.57-5,7.83,0a2.5,2.5,0,0,0,2.5-2.5v-.64l.44.42,2.44,2.69a.22.22,0,0,0,.23.05.22.22,0,0,0,.14-.2V15.34h.74a2.51,2.51,0,0,0,2.51-2.5V3a2.51,2.51,0,0,0-2.5-2.5h0Zm-3,24.28V20.23A.21.21,0,0,0,6.28,20H3A2.08,2.08,0,0,1,.93,17.94V8.14A2.08,2.08,0,0,1,3,6.06L18.84,6A2.07,2.07,0,0,1,20.91,8.1v9.81A2.07,2.07,0,0,1,18.84,20l-7.92,0a.2.2,0,0,0-.16.07ZM18.84,6.53,3,6.56A1.57,1.57,0,0,0,1.43,8.14v9.8A1.57,1.57,0,0,0,3,19.52H6.28a.72.72,0,0,1,.72.71v3.26l3.39-3.74a.72.72,0,0,1,.53-.23l7.92,0a1.57,1.57,0,0,0,1.57-1.57V8.1A1.57,1.57,0,0,0,18.84,6.53Zm5.32,13.15-2.82-3.1V8.1a2.51,2.51,0,0,0-2.5-2.5l-11.42,0V3A2.07,2.07,0,0,1,9.49.93L25.33,1A2.08,2.08,0,0,1,27.41,3v9.81a2.08,2.08,0,0,1-2.08,2.08h-1a.21.21,0,0,0-.21.21Zm-2.32-3.3,1.82,2V15.13a.71.71,0,0,1,.71-.71h1a1.58,1.58,0,0,0,1.58-1.58V3a1.58,1.58,0,0,0-1.57-1.57l-15.85,0A1.57,1.57,0,0,0,7.92,3V5.13l10.92,0a3,3,0,0,1,3,3Z"/></g></g></svg>