<svg xmlns="http://www.w3.org/2000/svg" viewBox="0 0 26.34 26.21"><defs><style>.cls-1{fill:#b2b2b2;}</style></defs><title>Content Manager</title><g id="Layer_2" data-name="Layer 2"><g id="Layer_1-2" data-name="Layer 1"><path class="cls-1" d="M24.21,16.42a.65.65,0,0,0-.65.65v5.77a2,2,0,0,1-1.95,1.95H3.37a2,2,0,0,1-1.95-1.95V5.9A2,2,0,0,1,3.37,4H9.15a.65.65,0,1,0,0-1.3H3.37A3.25,3.25,0,0,0,.13,5.9V22.84a3.25,3.25,0,0,0,3.24,3.25H21.61a3.25,3.25,0,0,0,3.25-3.25V17.07a.65.65,0,0,0-.65-.65Z"/><path class="cls-1" d="M21.61,26.21H3.37A3.38,3.38,0,0,1,0,22.84V5.9A3.38,3.38,0,0,1,3.37,2.53H9.15a.78.78,0,0,1,0,1.55H3.37A1.83,1.83,0,0,0,1.55,5.9V22.84a1.83,1.83,0,0,0,1.82,1.82H21.61a1.84,1.84,0,0,0,1.83-1.82V17.07a.77.77,0,0,1,.77-.78.78.78,0,0,1,.78.78v5.77A3.39,3.39,0,0,1,21.61,26.21ZM3.37,2.78A3.12,3.12,0,0,0,.25,5.9V22.84A3.12,3.12,0,0,0,3.37,26H21.61a3.14,3.14,0,0,0,3.13-3.12V17.07a.53.53,0,0,0-.53-.53.52.52,0,0,0-.52.53v5.77a2.09,2.09,0,0,1-2.08,2.07H3.37A2.07,2.07,0,0,1,1.3,22.84V5.9A2.07,2.07,0,0,1,3.37,3.83H9.15a.52.52,0,0,0,.52-.53.52.52,0,0,0-.52-.52Z"/><path class="cls-1" d="M24.6,1a2.92,2.92,0,0,0-4.13,0L8.87,12.58a.56.56,0,0,0-.16.28L7.18,18.37a.65.65,0,0,0,.17.63.64.64,0,0,0,.63.17l5.5-1.53a.66.66,0,0,0,.29-.17L25.37,5.88a2.93,2.93,0,0,0,0-4.14ZM10.29,13l9.49-9.49,3.06,3.06-9.49,9.49Zm-.61,1.22,2.44,2.45-3.38.94ZM24.45,5l-.69.69L20.7,2.59l.69-.69a1.62,1.62,0,0,1,2.29,0l.77.76a1.64,1.64,0,0,1,0,2.3Z"/><path class="cls-1" d="M7.81,19.31a.75.75,0,0,1-.55-.22.79.79,0,0,1-.2-.76l1.52-5.5a.83.83,0,0,1,.2-.34L20.38.89a3,3,0,0,1,4.31,0l.76.76a3.06,3.06,0,0,1,0,4.32L13.86,17.56a.66.66,0,0,1-.34.2L8,19.29A.65.65,0,0,1,7.81,19.31ZM22.54.25a2.76,2.76,0,0,0-2,.82L9,12.66a.56.56,0,0,0-.13.24L7.3,18.4a.51.51,0,0,0,.14.51.55.55,0,0,0,.51.14l5.5-1.53a.48.48,0,0,0,.23-.13l11.6-11.6a2.81,2.81,0,0,0,0-4l-.77-.76A2.75,2.75,0,0,0,22.54.25Zm-14,17.54,1-3.81,2.75,2.75Zm1.18-3.33-.82,3,3-.82Zm3.61,1.78L10.11,13l9.67-9.67L23,6.57ZM10.46,13l2.89,2.88,9.31-9.31L19.78,3.68Zm13.3-7.17L20.52,2.59l.78-.78a1.75,1.75,0,0,1,2.47,0l.77.76a1.76,1.76,0,0,1,0,2.48ZM20.87,2.59l2.89,2.88.6-.6a1.51,1.51,0,0,0,0-2.12L23.6,2a1.5,1.5,0,0,0-2.13,0Z"/></g></g></svg>