<svg xmlns="http://www.w3.org/2000/svg" viewBox="0 0 27.84 27.84"><defs><style>.cls-1{fill:#b2b2b2;}</style></defs><title>Design</title><g id="Layer_2" data-name="Layer 2"><g id="Layer_1-2" data-name="Layer 1"><path class="cls-1" d="M26.72,8.07a3.8,3.8,0,0,0,0-5.38L24,0,21.67,2.36A13.71,13.71,0,0,0,13.85,0a13.92,13.92,0,0,0,.07,27.84,14.58,14.58,0,0,0,2.19-.17,3.5,3.5,0,0,0,2.54-1.82,3.55,3.55,0,0,0,.08-3.19,8.49,8.49,0,0,1,.51-8.09,8.52,8.52,0,0,1,2.36-2.46L22.08,26h0A2,2,0,0,0,26,26l.48-14a1.34,1.34,0,0,0,.28-.83V8.92a1.32,1.32,0,0,0-.19-.69,1.21,1.21,0,0,0,.16-.16Zm-5.41.85v1.44a10.1,10.1,0,0,0-5,8.72,10.08,10.08,0,0,0,.94,4.27,1.89,1.89,0,0,1,0,1.73,1.87,1.87,0,0,1-1.36,1,12.36,12.36,0,0,1-1.93.15A12.31,12.31,0,0,1,1.63,13.94,12.32,12.32,0,0,1,13.86,1.63a12.17,12.17,0,0,1,6.79,2,3.7,3.7,0,0,0-.42,1.74,3.77,3.77,0,0,0,1.11,2.69l.16.16a1.32,1.32,0,0,0-.19.69Zm3.05,17a.34.34,0,0,1-.33.31.33.33,0,0,1-.32-.31l-.47-13.45h1.58Zm.76-15.08H22.94V9.19h2.18Zm.45-3.9a2.17,2.17,0,0,1-3.08,0h0a2.2,2.2,0,0,1,0-3.08L24,2.31l1.54,1.53a2.17,2.17,0,0,1,0,3.08Z"/><path class="cls-1" d="M11.47,18.81a2.45,2.45,0,1,0,2.45,2.45,2.45,2.45,0,0,0-2.45-2.45Zm0,3.26a.81.81,0,0,1-.81-.81.82.82,0,0,1,.81-.82.82.82,0,0,1,.82.82.82.82,0,0,1-.82.81Z"/><path class="cls-1" d="M6.74,14.3a2.45,2.45,0,1,0,2.45,2.45A2.45,2.45,0,0,0,6.74,14.3Zm0,3.26a.81.81,0,0,1-.81-.81.82.82,0,0,1,.81-.82.82.82,0,0,1,.82.82.82.82,0,0,1-.82.81Z"/><path class="cls-1" d="M7.88,7.77a2.45,2.45,0,1,0,2.45,2.45A2.45,2.45,0,0,0,7.88,7.77Zm0,3.27a.82.82,0,0,1-.81-.82.81.81,0,0,1,.81-.81.82.82,0,0,1,.82.81.82.82,0,0,1-.82.82Z"/><path class="cls-1" d="M12.94,4a2.45,2.45,0,1,0,2.45,2.45A2.45,2.45,0,0,0,12.94,4Zm0,3.27a.82.82,0,1,1,.82-.82.82.82,0,0,1-.82.82Z"/></g></g></svg>