<svg xmlns="http://www.w3.org/2000/svg" viewBox="0 0 21.7 20.15"><defs><style>.cls-1{fill:#002a3a;stroke:#002a3a;stroke-miterlimit:10;stroke-width:0.5px;}</style></defs><title>DownloadPDF</title><g id="Layer_2" data-name="Layer 2"><g id="Layer_1-2" data-name="Layer 1"><path class="cls-1" d="M20.85,9.83a.61.61,0,0,0-.61.61V16a2.72,2.72,0,0,1-2.72,2.73H4.19A2.72,2.72,0,0,1,1.47,16V10.35a.61.61,0,0,0-1.22,0V16A3.94,3.94,0,0,0,4.19,19.9H17.52A3.94,3.94,0,0,0,21.45,16V10.44a.61.61,0,0,0-.6-.61Z"/><path class="cls-1" d="M10.42,15.08a.66.66,0,0,0,.43.18.6.6,0,0,0,.43-.18l3.86-3.86a.61.61,0,1,0-.86-.86l-2.82,2.82V.86a.61.61,0,0,0-1.22,0V13.18L7.42,10.36a.61.61,0,1,0-.86.86Z"/></g></g></svg>