<svg xmlns="http://www.w3.org/2000/svg" viewBox="0 0 31 23.32"><defs><style>.cls-1{fill:#002a3a;}</style></defs><title>E-Learning Module-S</title><g id="Layer_2" data-name="Layer 2"><g id="Layer_1-2" data-name="Layer 1"><path class="cls-1" d="M30.64,7.54,15.79.07a.66.66,0,0,0-.58,0L.36,7.54a.66.66,0,0,0,0,1.17l4.91,2.47v5c0,3.07,4.5,5.47,10.23,5.47s10.23-2.4,10.23-5.47v-5l1.71-.86v4.74a2,2,0,0,0-.21,3.74l-1.38,3.64a.67.67,0,0,0,.08.6.63.63,0,0,0,.53.28h3.26a.63.63,0,0,0,.53-.28.64.64,0,0,0,.07-.6L29,18.8a2,2,0,0,0-.22-3.74V9.67l1.91-1a.66.66,0,0,0,0-1.17ZM22,19a14.92,14.92,0,0,1-6.49,1.34A14.92,14.92,0,0,1,9,19c-1.55-.79-2.44-1.82-2.44-2.83V11.83l8.64,4.35a.64.64,0,0,0,.58,0l8.64-4.35v4.32c0,1-.89,2-2.44,2.83Zm5.4,3,.7-1.84L28.78,22ZM28.8,17a.72.72,0,1,1-.72-.72h0a.72.72,0,0,1,.71.72ZM28,8.61,15.56,7.48a.64.64,0,0,0-.7.59.64.64,0,0,0,.58.7l10.32.94L15.5,14.88,2.09,8.13,15.5,1.38,28.91,8.13Z"/></g></g></svg>