<svg xmlns="http://www.w3.org/2000/svg" viewBox="0 0 28.54 28.54"><defs><style>.cls-1{fill:#002a3a;}</style></defs><title>Extra Features-S</title><g id="Layer_2" data-name="Layer 2"><g id="Layer_1-2" data-name="Layer 1"><path class="cls-1" d="M11.64.49a.44.44,0,0,0-.47-.11L3.57,2.91,1.21.55a.47.47,0,0,0-.66.66L2.91,3.57.37,11.17a.45.45,0,0,0,.12.47l16.4,16.41a.47.47,0,0,0,.66,0l10.5-10.5a.47.47,0,0,0,0-.66Zm5.58,26.58L1.34,11.19,3.64,4.3l1.8,1.8a2.32,2.32,0,1,0,.66-.66L4.3,3.64l6.89-2.3L27.07,17.22ZM7.05,7.71a.47.47,0,0,0,.66-.66l-.93-.93a1.4,1.4,0,1,1-.14,2.45,1.4,1.4,0,0,1-.52-1.79Z"/><path class="cls-1" d="M17.22,28.54a.78.78,0,0,1-.57-.24L.24,11.89a.8.8,0,0,1-.2-.83l2.47-7.4L.31,1.46A.81.81,0,0,1,1.45.3L3.66,2.51,11.06,0a.8.8,0,0,1,.83.2L28.3,16.65a.8.8,0,0,1,.24.57.84.84,0,0,1-.24.58L17.8,28.3A.82.82,0,0,1,17.22,28.54ZM.89.77a.09.09,0,0,0-.08,0A.11.11,0,0,0,.8,1l2.51,2.5L.71,11.28a.11.11,0,0,0,0,.12L17.14,27.8a.1.1,0,0,0,.16,0L27.8,17.3v-.16L11.39.73a.09.09,0,0,0-.11,0L3.47,3.31,1,.8A.11.11,0,0,0,.89.77ZM17.22,27.56.94,11.29,3.49,3.65l2.4,2.4-.16.24a2,2,0,1,0,.56-.56l-.24.16-2.4-2.4L11.28.94,27.56,17.22ZM1.75,11.1,17.22,26.57l9.35-9.35L11.09,1.75,5,3.8,6.15,5A2.67,2.67,0,1,1,5,6.15L3.79,5Zm5.63-2a1.7,1.7,0,0,1-.92-.27,1.74,1.74,0,0,1-.65-2.24L6,6.18,7.29,7.46a.11.11,0,0,0,.16,0,.1.1,0,0,0,0-.16L6.19,6l.44-.22A1.75,1.75,0,0,1,8.75,8.47,1.75,1.75,0,0,1,7.38,9.14Zm-1-1.65a1,1,0,1,0,1.78-.85,1.12,1.12,0,0,0-.63-.3L8,6.8A.81.81,0,0,1,6.81,8h0Z"/><path class="cls-1" d="M15.05,10.33v3.45h3.44v.88H15.05V18.1h-.89V14.66H10.72v-.88h3.44V10.33Z"/><path class="cls-1" d="M15.4,18.45H13.81V15H10.37V13.43h3.44V10H15.4v3.45h3.44V15H15.4Zm-.89-.7h.19V14.31h3.44v-.18H14.7V10.68h-.19v3.45H11.07v.18h3.44Z"/></g></g></svg>