<svg xmlns="http://www.w3.org/2000/svg" viewBox="0 0 28.24 28.23"><defs><style>.cls-1{fill:#b2b2b2;}</style></defs><title>Languages Module</title><g id="Layer_2" data-name="Layer 2"><g id="Layer_1-2" data-name="Layer 1"><path class="cls-1" d="M14.13.2A13.92,13.92,0,0,0,1.33,8.64l-.17.06.07.2A13.91,13.91,0,1,0,14.13.2ZM25,21.13l-.71-.71V18.75a.46.46,0,0,0,0-.2l-1.81-3.62V13.19a.49.49,0,0,0-.2-.39l-1.4-.93a.47.47,0,0,0-.37-.06l-1.7.43L15.94,11l-.4-2.76,1.09-1.09H19l.79,1.18a.44.44,0,0,0,.31.2L22.86,9a.55.55,0,0,0,.22,0l2.56-.86a13,13,0,0,1-.6,13ZM23.13,4.77l-.76.5-2.1-.42L18.91,4.4a.46.46,0,0,0-.26,0l-1.73.43-.75-.25.56-1.12H18.3a.46.46,0,0,0,.2-.05l1.61-.8a13.15,13.15,0,0,1,3,2.17ZM9,2.16l1.12.75a.48.48,0,0,0,.18.07l2.24.37L12.37,4l-1.18.39a.49.49,0,0,0-.25.2L9.61,6.82,7.47,8.1l-3.15.45a.47.47,0,0,0-.4.46V10.4a.47.47,0,0,0,.13.33l.8.79v.8L2.92,11l-.7-2.1A13.08,13.08,0,0,1,9,2.16ZM7.72,17.37,5.63,17,4.85,15.4V14.31l1.72-1.73.64,1.28a.47.47,0,0,0,.42.26h3l1.26,2.09a.45.45,0,0,0,.4.22h1.29l-.33,1.63-1.75,1.76a.44.44,0,0,0-.14.33V21.3L9.67,22.56a.44.44,0,0,0-.19.37V24.6l-.57-.19-.82-2V17.83a.47.47,0,0,0-.37-.46ZM6.33,24.5A13,13,0,0,1,1.7,10.32l.39,1.16a.43.43,0,0,0,.18.24l2.31,1.54-.53.53a.47.47,0,0,0-.13.33v1.39a.46.46,0,0,0,.05.2l.93,1.86a.45.45,0,0,0,.32.25l2,.39v4.25a.57.57,0,0,0,0,.18L8.13,25a.45.45,0,0,0,.28.26l1.39.47.15,0a.47.47,0,0,0,.46-.46V23.16l1.67-1.25a.47.47,0,0,0,.19-.37v-1.2L14,18.62a.46.46,0,0,0,.12-.24l.47-2.32a.46.46,0,0,0-.37-.54H12.53l-1.26-2.1a.44.44,0,0,0-.39-.22h-3l-.8-1.6a.46.46,0,0,0-.34-.25.42.42,0,0,0-.4.13l-.61.6v-.74A.51.51,0,0,0,5.64,11l-.79-.79V9.42L7.69,9A.48.48,0,0,0,7.87,9l2.32-1.39a.61.61,0,0,0,.16-.16l1.3-2.18,1.23-.41a.42.42,0,0,0,.29-.29l.46-1.39a.46.46,0,0,0-.29-.59h-.07l-2.68-.45-.47-.32A12.92,12.92,0,0,1,19,2.1l-.85.42H16.44a.48.48,0,0,0-.42.26L15.1,4.63a.46.46,0,0,0,.21.62l.06,0,1.39.46a.46.46,0,0,0,.26,0l1.72-.43L20,5.74l.06,0,2.32.46a.44.44,0,0,0,.35-.07l1.05-.7a13.31,13.31,0,0,1,1.4,1.86l-2.28.76-2.47-.41-.82-1.22a.47.47,0,0,0-.38-.21H16.44a.47.47,0,0,0-.33.14L14.72,7.76a.47.47,0,0,0-.13.39l.47,3.25a.44.44,0,0,0,.27.36l3.25,1.39a.44.44,0,0,0,.3,0l1.65-.41,1,.68V15a.5.5,0,0,0,.05.21l1.81,3.61v1.75a.47.47,0,0,0,.14.33l1,1A13,13,0,0,1,6.33,24.5Z"/><path class="cls-1" d="M14.11,28.23a14.2,14.2,0,0,1-5.3-1A14.12,14.12,0,0,1,1,8.89l-.1-.32.28-.09A14.08,14.08,0,0,1,14.12,0h0a14.12,14.12,0,0,1,0,28.23ZM1.41,8.82l0,.08,0,.07a13.7,13.7,0,0,0,12.7,18.86h0A13.72,13.72,0,1,0,14.13.4h0A13.68,13.68,0,0,0,1.52,8.72l0,.08ZM14.09,27.3a13.07,13.07,0,0,1-7.88-2.64h0a13.21,13.21,0,0,1-4.7-14.4l.18-.59.59,1.75a.26.26,0,0,0,.1.13L4.9,13.23l-.7.7a.26.26,0,0,0-.08.19v1.39a.27.27,0,0,0,0,.12l.92,1.85a.3.3,0,0,0,.19.14L7.37,18v4.42a.16.16,0,0,0,0,.1l.92,2.32a.26.26,0,0,0,.17.15l1.39.47a.27.27,0,0,0,.34-.25V23.06L12,21.75a.26.26,0,0,0,.11-.21V20.25l1.78-1.77a.37.37,0,0,0,.07-.14L14.38,16a.26.26,0,0,0-.21-.31H12.42L11.1,13.52a.26.26,0,0,0-.22-.13H7.79l-.85-1.71a.25.25,0,0,0-.19-.14.25.25,0,0,0-.23.07l-.95.94V11.33a.24.24,0,0,0-.07-.18l-.85-.85V9.24l3-.43.09,0,2.32-1.4a.2.2,0,0,0,.09-.09l1.35-2.23,1.29-.44A.23.23,0,0,0,13,4.46l.46-1.39a.26.26,0,0,0-.16-.34l-2.8-.48L9.66,1.7l.39-.13a13.2,13.2,0,0,1,9.06.34l.41.17-1.33.64H16.44a.23.23,0,0,0-.24.15l-.92,1.85a.23.23,0,0,0,0,.2.24.24,0,0,0,.13.15l1.43.48a.26.26,0,0,0,.15,0l1.78-.45,1.32.44L22.42,6a.24.24,0,0,0,.2,0l1.2-.8.11.12a13,13,0,0,1,1.42,1.9l.13.21-2.57.86-2.6-.44-.87-1.29a.25.25,0,0,0-.22-.12H16.44a.25.25,0,0,0-.18.08L14.86,7.9a.29.29,0,0,0-.07.22l.46,3.25a.27.27,0,0,0,.16.2L18.66,13a.32.32,0,0,0,.17,0l1.74-.44,1.17.79V15a.21.21,0,0,0,0,.12l1.83,3.7v1.75a.27.27,0,0,0,.08.19l1.09,1.09-.1.14A13.16,13.16,0,0,1,16,27.17,13.34,13.34,0,0,1,14.09,27.3ZM1.72,11A12.82,12.82,0,0,0,6.45,24.34h0a12.79,12.79,0,0,0,17.79-2.41l-.85-.85a.68.68,0,0,1-.19-.47v-1.7l-1.79-3.57a.78.78,0,0,1-.07-.3v-1.5L20.49,13l-1.57.39a.67.67,0,0,1-.42,0l-3.24-1.39a.64.64,0,0,1-.4-.51l-.47-3.25a.64.64,0,0,1,.19-.56L16,6.22A.68.68,0,0,1,16.44,6h2.79a.66.66,0,0,1,.55.3l.76,1.15,2.34.39,2-.67a12.34,12.34,0,0,0-1.12-1.49l-.91.61a.68.68,0,0,1-.5.1L20,6l-.08,0-1.21-.4L17.06,6a.67.67,0,0,1-.37,0L15.3,5.47a.2.2,0,0,1-.08,0,.67.67,0,0,1-.34-.38.69.69,0,0,1,0-.51l.93-1.85a.65.65,0,0,1,.59-.37h1.7l.4-.2a12.82,12.82,0,0,0-8-.29l.08.06,2.64.44.1,0a.69.69,0,0,1,.39.34.62.62,0,0,1,0,.5l-.46,1.39a.63.63,0,0,1-.42.42l-1.16.39L10.52,7.5a.84.84,0,0,1-.23.23L8,9.12a1.06,1.06,0,0,1-.25.09l-2.67.38v.54l.73.73a.7.7,0,0,1,.19.47v.26l.27-.26a.61.61,0,0,1,.57-.19.7.7,0,0,1,.49.36L8,13h2.84a.64.64,0,0,1,.56.32l1.2,2h1.61a.66.66,0,0,1,.52.78l-.46,2.32a.7.7,0,0,1-.18.34l-1.66,1.66v1.12a.68.68,0,0,1-.27.53l-1.59,1.19v2a.67.67,0,0,1-.66.66.76.76,0,0,1-.21,0l-1.39-.47A.65.65,0,0,1,7.94,25L7,22.71a.53.53,0,0,1,0-.25V18.37L5.18,18a.66.66,0,0,1-.46-.35L3.79,15.8a.59.59,0,0,1-.07-.29V14.12a.67.67,0,0,1,.19-.47l.36-.36L2.16,11.88a.63.63,0,0,1-.26-.34Zm8,13.87-.92-.31-.87-2.19V17.83a.26.26,0,0,0-.21-.26l-2.19-.44L4.65,15.4V14.22l2-2,.76,1.53a.28.28,0,0,0,.24.15h3.1L12,16.11a.27.27,0,0,0,.23.12H13.8l-.38,1.93L11.62,20a.27.27,0,0,0-.08.19v1.26L9.79,22.72a.26.26,0,0,0-.11.21Zm-.62-.63.22.08v-1.4a.65.65,0,0,1,.27-.53l1.59-1.19V20.15a.67.67,0,0,1,.19-.47L13.05,18l.26-1.33h-1a.67.67,0,0,1-.57-.32l-1.2-2H7.63A.67.67,0,0,1,7,14l-.52-1L5.05,14.39v1l.71,1.42,2,.41a.66.66,0,0,1,.53.65v4.51Zm16-2.8-.95-.95V18.75a.27.27,0,0,0,0-.12l-1.83-3.7V13.19a.25.25,0,0,0-.12-.22L20.76,12a.3.3,0,0,0-.21,0l-1.77.45-3-1.3-.42-3L16.55,7h2.53l.85,1.27a.32.32,0,0,0,.18.12l2.78.46a.29.29,0,0,0,.13,0l2.72-.91.08.15a13.16,13.16,0,0,1-.61,13.2Zm-.55-1.12.48.48a12.74,12.74,0,0,0,.53-12.43l-2.4.8a.69.69,0,0,1-.32,0L20,8.74a.64.64,0,0,1-.44-.29l-.73-1.09H16.72l-1,1,.37,2.55L18.82,12l1.63-.41a.64.64,0,0,1,.54.09l1.39.93a.66.66,0,0,1,.29.55v1.7l1.79,3.57a.6.6,0,0,1,.07.3ZM5.05,12.69l-2.3-1.53L2,8.92l0-.07A13.22,13.22,0,0,1,9,2l.1,0,1.21.8.1,0,2.48.41-.33,1-1.26.42a.33.33,0,0,0-.15.11L9.71,7,7.5,8.3l-3.15.45A.27.27,0,0,0,4.12,9V10.4a.27.27,0,0,0,.08.19l.85.85Zm-2-1.78,1.57,1v-.34l-.74-.74a.67.67,0,0,1-.19-.47V9a.65.65,0,0,1,.57-.65L7.4,7.91,9.47,6.67l1.3-2.17a.65.65,0,0,1,.36-.29l1.08-.36.11-.34-2-.34a.64.64,0,0,1-.26-.1L9,2.39A12.81,12.81,0,0,0,2.43,8.94ZM22.42,5.49l-2.19-.44-1.39-.46a.22.22,0,0,0-.14,0L16.92,5l-1-.35.72-1.43H18.3l.12,0,1.69-.85.09,0a12.89,12.89,0,0,1,3.07,2.21l.18.17ZM18.76,4.17a.78.78,0,0,1,.21,0l1.37.45,2,.4.48-.32a12.85,12.85,0,0,0-2.7-1.92l-1.52.76a.73.73,0,0,1-.29.07H16.85l-.4.8.48.16,1.67-.42Z"/></g></g></svg>