<svg xmlns="http://www.w3.org/2000/svg" viewBox="0 0 29.49 34.09"><defs><style>.cls-1{fill:#002a3a;}</style></defs><title>Notification</title><g id="Layer_2" data-name="Layer 2"><g id="Layer_1-2" data-name="Layer 1"><path class="cls-1" d="M29.38,28.55l-2.53-4.22a12.48,12.48,0,0,1-1.79-6.44v-3.7a10.32,10.32,0,0,0-20.64,0v3.7a12.47,12.47,0,0,1-1.78,6.44L.11,28.55a.77.77,0,0,0,0,.75.76.76,0,0,0,.65.37h28a.74.74,0,0,0,.63-1.12ZM2,28.2,3.9,25.09a14,14,0,0,0,2-7.2v-3.7a8.85,8.85,0,1,1,17.69,0v3.7a14,14,0,0,0,2,7.2l1.87,3.11Z"/><path class="cls-1" d="M14.74,0a3,3,0,0,0-3,3V4.61a.74.74,0,0,0,1.48,0V3a1.48,1.48,0,1,1,2.95,0V4.61a.74.74,0,0,0,1.47,0V3a3,3,0,0,0-3-2.95Z"/><path class="cls-1" d="M17.93,28.56a.74.74,0,0,0-1.27.75,2.19,2.19,0,0,1,.3,1.1,2.22,2.22,0,0,1-4.43,0,2.19,2.19,0,0,1,.3-1.1.74.74,0,0,0-.26-1,.73.73,0,0,0-1,.26,3.64,3.64,0,0,0-.5,1.85,3.69,3.69,0,0,0,7.37,0,3.64,3.64,0,0,0-.5-1.85Z"/></g></g></svg>