<svg xmlns="http://www.w3.org/2000/svg" viewBox="0 0 28.34 28.09"><defs><style>.cls-1{fill:#b2b2b2;}</style></defs><title>Performance Module</title><g id="Layer_2" data-name="Layer 2"><g id="Layer_1-2" data-name="Layer 1"><path class="cls-1" d="M6.9,12.62H.81a.56.56,0,0,0-.56.57V27.27a.56.56,0,0,0,.56.57H6.9a.56.56,0,0,0,.56-.57V13.19a.56.56,0,0,0-.56-.57ZM6.33,26.71h-5v-13h5v13Z"/><path class="cls-1" d="M6.9,28.09H.81A.82.82,0,0,1,0,27.27V13.19a.82.82,0,0,1,.81-.82H6.9a.82.82,0,0,1,.81.82V27.27A.82.82,0,0,1,6.9,28.09ZM.81,12.87a.31.31,0,0,0-.31.32V27.27a.31.31,0,0,0,.31.32H6.9a.31.31,0,0,0,.31-.32V13.19a.31.31,0,0,0-.31-.32ZM6.59,27H1.12V13.5H6.59Zm-5-.5H6.09V14H1.62Z"/><path class="cls-1" d="M17.21.25H11.12a.56.56,0,0,0-.56.56V27.27a.56.56,0,0,0,.56.56h6.09a.56.56,0,0,0,.57-.56V.81a.57.57,0,0,0-.57-.56Zm-.56,26.46h-5V1.38h5Z"/><path class="cls-1" d="M17.21,28.08H11.12a.81.81,0,0,1-.81-.81V.81A.81.81,0,0,1,11.12,0h6.09A.82.82,0,0,1,18,.81V27.27A.82.82,0,0,1,17.21,28.08ZM11.12.5a.31.31,0,0,0-.31.31V27.27a.31.31,0,0,0,.31.31h6.09a.31.31,0,0,0,.32-.31V.81A.31.31,0,0,0,17.21.5ZM16.9,27H11.44V1.13H16.9Zm-5-.5H16.4V1.63H11.94Z"/><path class="cls-1" d="M27.52,27.84a.56.56,0,0,0,.57-.57V9.36a.56.56,0,0,0-.57-.56H21.44a.56.56,0,0,0-.56.56V27.27a.56.56,0,0,0,.56.56h6.08ZM22,9.92h5V26.71H22Z"/><path class="cls-1" d="M27.52,28.09H21.44a.81.81,0,0,1-.81-.81V9.36a.81.81,0,0,1,.81-.81h6.08a.82.82,0,0,1,.82.81V27.27A.82.82,0,0,1,27.52,28.09Zm-6.08-19a.31.31,0,0,0-.31.31V27.27a.31.31,0,0,0,.31.31h6.14a.31.31,0,0,0,.26-.31V9.36a.31.31,0,0,0-.32-.31ZM27.22,27H21.75V9.67h5.47Zm-5-.5h4.47V10.17H22.25Z"/></g></g></svg>