<svg xmlns="http://www.w3.org/2000/svg" viewBox="0 0 26.85 25.75"><defs><style>.cls-1{fill:#002a3a;}</style></defs><title>Recognition Module-S</title><g id="Layer_2" data-name="Layer 2"><g id="Layer_1-2" data-name="Layer 1"><path class="cls-1" d="M25.9,11.71a1.87,1.87,0,0,0-1-3.2L18.55,7.6a.82.82,0,0,1-.62-.46L15.1,1.42a1.86,1.86,0,0,0-3.35,0L8.92,7.14a.82.82,0,0,1-.62.46L2,8.52A1.85,1.85,0,0,0,.47,9.79a1.88,1.88,0,0,0,.47,1.92l4.57,4.45a.82.82,0,0,1,.24.74L4.67,23.19A1.87,1.87,0,0,0,5.42,25a1.85,1.85,0,0,0,2,.14l5.65-3a.81.81,0,0,1,.77,0l5.65,3a1.9,1.9,0,0,0,.87.22,1.88,1.88,0,0,0,1.85-2.19L21.1,16.9a.84.84,0,0,1,.23-.74Zm-5.83,5.36,1.07,6.29a.8.8,0,0,1-.32.81.83.83,0,0,1-.87.07l-5.66-3a1.91,1.91,0,0,0-1.74,0l-5.65,3A.83.83,0,0,1,6,24.17a.82.82,0,0,1-.33-.81l1.08-6.29a1.87,1.87,0,0,0-.54-1.66L1.67,11a.82.82,0,0,1-.21-.85.81.81,0,0,1,.67-.56l6.32-.92a1.87,1.87,0,0,0,1.41-1l2.82-5.73a.83.83,0,0,1,1.48,0L17,7.61a1.87,1.87,0,0,0,1.41,1l6.32.92a.82.82,0,0,1,.67.56.84.84,0,0,1-.21.85L20.6,15.41a1.86,1.86,0,0,0-.53,1.66Z"/><path class="cls-1" d="M6.52,25.75a2.19,2.19,0,0,1-1.32-.43,2.25,2.25,0,0,1-.9-2.2l1.08-6.29a.43.43,0,0,0-.13-.4L.68,12A2.24,2.24,0,0,1,1.93,8.14l6.31-.92A.47.47,0,0,0,8.59,7l2.82-5.73a2.25,2.25,0,0,1,4,0L18.26,7a.45.45,0,0,0,.34.24l6.32.92a2.23,2.23,0,0,1,1.81,1.53,2.21,2.21,0,0,1-.56,2.3L21.6,16.43a.48.48,0,0,0-.14.4l1.09,6.29a2.24,2.24,0,0,1-.9,2.2,2.28,2.28,0,0,1-2.36.17l-5.65-3a.45.45,0,0,0-.42,0l-5.66,3A2.17,2.17,0,0,1,6.52,25.75Zm6.9-25a1.5,1.5,0,0,0-1.34.83L9.26,7.31A1.22,1.22,0,0,1,8.35,8L2,8.89a1.49,1.49,0,0,0-.83,2.55l4.58,4.45A1.21,1.21,0,0,1,6.12,17L5,23.25a1.5,1.5,0,0,0,2.17,1.58l5.66-3a1.15,1.15,0,0,1,1.11,0l5.65,3a1.52,1.52,0,0,0,1.58-.12,1.5,1.5,0,0,0,.6-1.46L20.73,17a1.21,1.21,0,0,1,.34-1.07l4.57-4.45A1.46,1.46,0,0,0,26,9.91a1.51,1.51,0,0,0-1.21-1L18.49,8a1.19,1.19,0,0,1-.9-.66L14.77,1.58A1.5,1.5,0,0,0,13.42.75Zm-6.91,24a1.22,1.22,0,0,1-.7-.23,1.21,1.21,0,0,1-.48-1.18L6.41,17A1.5,1.5,0,0,0,6,15.68L1.41,11.23A1.2,1.2,0,0,1,1.1,10a1.17,1.17,0,0,1,1-.82l6.32-.92a1.5,1.5,0,0,0,1.13-.82l2.83-5.73A1.19,1.19,0,0,1,13.42,1a1.2,1.2,0,0,1,1.08.67l2.83,5.73a1.51,1.51,0,0,0,1.12.82l6.32.92a1.18,1.18,0,0,1,1,.81,1.2,1.2,0,0,1-.3,1.24l-4.58,4.45A1.49,1.49,0,0,0,20.44,17h0l1.07,6.29A1.18,1.18,0,0,1,21,24.48a1.21,1.21,0,0,1-1.27.09l-5.65-3a1.49,1.49,0,0,0-1.39,0l-5.65,3A1.33,1.33,0,0,1,6.51,24.71ZM13.42,1.79A.45.45,0,0,0,13,2L10.19,7.77A2.21,2.21,0,0,1,8.5,9l-6.32.92a.43.43,0,0,0-.36.31.42.42,0,0,0,.11.46l4.58,4.46a2.22,2.22,0,0,1,.64,2L6.07,23.43a.45.45,0,0,0,.18.44.42.42,0,0,0,.48,0l5.65-3a2.27,2.27,0,0,1,2.09,0l5.65,3a.42.42,0,0,0,.47,0,.42.42,0,0,0,.18-.44L19.7,17.14a2.22,2.22,0,0,1,.64-2l4.57-4.46a.45.45,0,0,0,.12-.47.44.44,0,0,0-.37-.3L18.34,9a2.19,2.19,0,0,1-1.68-1.23L13.83,2.05A.45.45,0,0,0,13.42,1.79Z"/></g></g></svg>