<svg xmlns="http://www.w3.org/2000/svg" viewBox="0 0 28.34 27.36"><defs><style>.cls-1{fill:#b2b2b2;}</style></defs><title>Rewards Module</title><g id="Layer_2" data-name="Layer 2"><g id="Layer_1-2" data-name="Layer 1"><path class="cls-1" d="M28.09,5.62H20.63a3.41,3.41,0,0,0-.38-4.37,3.42,3.42,0,0,0-4.83,0L14,2.63,12.65,1.25A3.42,3.42,0,0,0,6.82,3.67a3.35,3.35,0,0,0,.62,2H.25v6.84H2.69V27.11H26.13V12.46h2Zm-12-3.68a2.44,2.44,0,0,1,3.45,0,2.45,2.45,0,0,1,0,3.45l-.23.23H12.42l2.3-2.3ZM8.51,5.39a2.45,2.45,0,0,1,0-3.45,2.46,2.46,0,0,1,3.46,0l1.37,1.38L11.62,5.05c-.1.1-.19.21-.29.33l-.07.12-.09.12H8.74ZM1.23,11.48V6.6H13.92v4.88Zm12.69,1v5.86H3.67V12.46ZM3.67,19.3H13.92v6.83H3.67ZM14.9,26.13V19.3H25.16v6.83Zm10.26-7.81H14.9V12.46H25.16Zm1.95-6.84H14.9V6.6H27.11Z"/><path class="cls-1" d="M26.38,27.36H2.44V12.71H0V5.37H7A3.66,3.66,0,0,1,10.24,0a3.64,3.64,0,0,1,2.59,1.07L14,2.28l1.2-1.21a3.67,3.67,0,0,1,6.26,2.6,3.69,3.69,0,0,1-.42,1.7h7.26v7.34h-2Zm-23.44-.5H25.88V12.21h2V5.87H20.15l.28-.39a3.17,3.17,0,0,0-4.84-4.05L14,3,12.48,1.43A3.16,3.16,0,0,0,10.24.5,3.18,3.18,0,0,0,7.07,3.67a3.16,3.16,0,0,0,.57,1.81l.28.39H.5v6.34H2.94Zm22.47-.48H14.65V19.05H25.41Zm-10.26-.5h9.76V19.55H15.15Zm-1,.5H3.42V19.05H14.17Zm-10.25-.5h9.75V19.55H3.92Zm21.49-7.31H14.65V12.21H25.41Zm-10.26-.5h9.76V12.71H15.15Zm-1,.5H3.42V12.21H14.17Zm-10.25-.5h9.75V12.71H3.92Zm23.44-6.34H14.65V6.35H27.36Zm-12.21-.5H26.86V6.85H15.15Zm-1,.5H1V6.35H14.17Zm-12.69-.5H13.67V6.85H1.48Zm18-5.36H11.82l4.11-4.11a2.69,2.69,0,0,1,3.81,3.81ZM13,5.37h6.2l.15-.15A2.17,2.17,0,0,0,20,3.67a2.14,2.14,0,0,0-.64-1.55,2.17,2.17,0,0,0-3.09,0Zm-1.72.5H8.64l-.31-.3a2.69,2.69,0,0,1,3.81-3.81L13.7,3.32l-1.9,1.9a2.85,2.85,0,0,0-.27.32l-.06.09-.09.12Zm-2.47-.5H11l.09-.13a2.89,2.89,0,0,1,.31-.37L13,3.32l-1.2-1.2A2.19,2.19,0,0,0,8.05,3.67a2.21,2.21,0,0,0,.64,1.55Z"/></g></g></svg>