<svg xmlns="http://www.w3.org/2000/svg" viewBox="0 0 28.34 28.34"><defs><style>.cls-1{fill:#002a3a;}</style></defs><title>Settings-S</title><g id="Layer_2" data-name="Layer 2"><g id="Layer_1-2" data-name="Layer 1"><path class="cls-1" d="M26.66,11.25l-1.95-.34A11.6,11.6,0,0,0,23.92,9l1.15-1.61a1.72,1.72,0,0,0-.18-2.22L23.15,3.46A1.69,1.69,0,0,0,21,3.27L19.33,4.43a10.21,10.21,0,0,0-2-.81L17,1.69A1.72,1.72,0,0,0,15.34.25H12.89a1.72,1.72,0,0,0-1.7,1.44l-.33,2A10.51,10.51,0,0,0,9,4.46L7.37,3.31a1.7,1.7,0,0,0-1-.32,1.72,1.72,0,0,0-1.22.5L3.41,5.23a1.72,1.72,0,0,0-.18,2.21L4.39,9.08A10.09,10.09,0,0,0,3.62,11l-1.93.32A1.72,1.72,0,0,0,.25,13v2.45a1.72,1.72,0,0,0,1.44,1.7l2,.34a11.16,11.16,0,0,0,.8,1.89L3.31,21a1.72,1.72,0,0,0,.19,2.21l1.73,1.74a1.74,1.74,0,0,0,1.22.5,1.67,1.67,0,0,0,1-.32l1.64-1.16a10.86,10.86,0,0,0,1.83.76l.33,1.95a1.72,1.72,0,0,0,1.7,1.44h2.45a1.72,1.72,0,0,0,1.7-1.44l.33-1.95a11.71,11.71,0,0,0,1.9-.79l1.61,1.15a1.72,1.72,0,0,0,2.21-.18l1.74-1.74a1.72,1.72,0,0,0,.18-2.21l-1.15-1.62a11.11,11.11,0,0,0,.79-1.89l1.95-.33a1.72,1.72,0,0,0,1.44-1.7V12.94a1.7,1.7,0,0,0-1.43-1.69Zm-.13,4.14a.14.14,0,0,1-.13.15L24,16a.77.77,0,0,0-.63.58,9.39,9.39,0,0,1-1,2.43.79.79,0,0,0,0,.86l1.44,2a.17.17,0,0,1,0,.2L22,23.77a.15.15,0,0,1-.11.05.12.12,0,0,1-.09,0l-2-1.44a.77.77,0,0,0-.85,0,9.32,9.32,0,0,1-2.44,1A.77.77,0,0,0,16,24l-.42,2.44a.14.14,0,0,1-.15.13H12.94a.15.15,0,0,1-.15-.13L12.39,24a.8.8,0,0,0-.58-.63,9.87,9.87,0,0,1-2.38-1,.85.85,0,0,0-.4-.1.73.73,0,0,0-.45.14l-2,1.45a.16.16,0,0,1-.09,0,.17.17,0,0,1-.11-.05L4.61,22.09a.16.16,0,0,1,0-.2l1.43-2a.79.79,0,0,0,0-.86A9.42,9.42,0,0,1,5,16.6.81.81,0,0,0,4.41,16L2,15.6a.14.14,0,0,1-.13-.15V13A.15.15,0,0,1,2,12.85l2.42-.41A.8.8,0,0,0,5,11.86,9.07,9.07,0,0,1,6,9.42a.77.77,0,0,0,0-.85l-1.45-2a.17.17,0,0,1,0-.2L6.26,4.61a.15.15,0,0,1,.2,0L8.47,6a.79.79,0,0,0,.86,0,9.14,9.14,0,0,1,2.43-1,.8.8,0,0,0,.57-.63l.42-2.46a.16.16,0,0,1,.15-.13h2.45a.15.15,0,0,1,.15.13l.41,2.43a.77.77,0,0,0,.58.63A9.74,9.74,0,0,1,19,6a.77.77,0,0,0,.85,0l2-1.44a.13.13,0,0,1,.08,0,.14.14,0,0,1,.11,0L23.78,6.3a.15.15,0,0,1,0,.2l-1.43,2a.81.81,0,0,0,0,.86,9.42,9.42,0,0,1,1,2.43.76.76,0,0,0,.62.58l2.45.41a.15.15,0,0,1,.12.15v2.45Z"/><path class="cls-1" d="M15.39,28.34H12.94A2,2,0,0,1,11,26.69l-.3-1.8a10.21,10.21,0,0,1-1.59-.66L7.59,25.31a2,2,0,0,1-2.53-.22L3.32,23.36a2,2,0,0,1-.21-2.54l1.06-1.46a11.83,11.83,0,0,1-.7-1.65L1.64,17.4A2,2,0,0,1,0,15.45V13a2,2,0,0,1,1.64-1.94l1.78-.3A10.51,10.51,0,0,1,4.1,9.1L3,7.59a2,2,0,0,1,.22-2.54L5,3.32a2,2,0,0,1,2.53-.21L9,4.17a10.89,10.89,0,0,1,1.65-.7L11,1.64A2,2,0,0,1,12.89,0h2.45a2,2,0,0,1,1.94,1.65l.3,1.77a12.33,12.33,0,0,1,1.73.71L20.8,3.07a2,2,0,0,1,2.53.21L25.06,5a2,2,0,0,1,.22,2.53L24.21,9a12,12,0,0,1,.69,1.65l1.8.31A2,2,0,0,1,28.34,13v2.44a2,2,0,0,1-1.65,1.95l-1.8.3a11.57,11.57,0,0,1-.69,1.65l1.07,1.49a2,2,0,0,1-.22,2.54l-1.73,1.73a2,2,0,0,1-2.54.22L19.3,24.2a12.09,12.09,0,0,1-1.66.69l-.3,1.8A2,2,0,0,1,15.39,28.34ZM9.06,23.65l.13.07a11.13,11.13,0,0,0,1.8.74l.15,0,.35,2.11a1.47,1.47,0,0,0,1.45,1.23h2.45a1.47,1.47,0,0,0,1.45-1.23l.36-2.11.15,0a10.76,10.76,0,0,0,1.85-.77l.14-.07,1.73,1.24A1.51,1.51,0,0,0,23,24.7L24.7,23a1.47,1.47,0,0,0,.16-1.9l-1.24-1.74.07-.13a11.26,11.26,0,0,0,.77-1.86l0-.15,2.11-.35a1.47,1.47,0,0,0,1.23-1.45V12.94a1.45,1.45,0,0,0-1.22-1.45h0l-2.11-.35,0-.15a10.76,10.76,0,0,0-.77-1.85L23.63,9l1.24-1.74a1.46,1.46,0,0,0-.16-1.89L23,3.64a1.49,1.49,0,0,0-1.89-.16L19.35,4.72l-.14-.07a10.22,10.22,0,0,0-1.92-.79l-.15,0-.35-2.08A1.47,1.47,0,0,0,15.34.5H12.89a1.47,1.47,0,0,0-1.45,1.23l-.36,2.13-.15,0a11,11,0,0,0-1.85.78L9,4.75,7.22,3.51a1.49,1.49,0,0,0-1.89.16L3.59,5.4a1.47,1.47,0,0,0-.16,1.9L4.68,9.06l-.07.13a10.8,10.8,0,0,0-.75,1.86l0,.15-2.08.35A1.47,1.47,0,0,0,.5,13v2.45A1.47,1.47,0,0,0,1.73,16.9l2.13.37,0,.14a10.68,10.68,0,0,0,.78,1.85l.07.13L3.52,21.11A1.46,1.46,0,0,0,3.68,23l1.73,1.73a1.49,1.49,0,0,0,1.89.16Zm6.33,3.13H12.94a.4.4,0,0,1-.39-.34L12.14,24a.54.54,0,0,0-.39-.43,9.79,9.79,0,0,1-2.45-1,.55.55,0,0,0-.57,0L6.69,24a.38.38,0,0,1-.52,0L4.43,22.27a.42.42,0,0,1,0-.51l1.44-2a.55.55,0,0,0,0-.59,9.55,9.55,0,0,1-1-2.49.53.53,0,0,0-.42-.39l-2.46-.42a.4.4,0,0,1-.34-.4V13a.4.4,0,0,1,.34-.4l2.42-.4a.54.54,0,0,0,.43-.4,9.55,9.55,0,0,1,1-2.51.53.53,0,0,0,0-.57l-1.45-2a.42.42,0,0,1,0-.52L6.09,4.43a.42.42,0,0,1,.52,0l2,1.42a.53.53,0,0,0,.59,0,9.42,9.42,0,0,1,2.5-1,.57.57,0,0,0,.39-.43l.42-2.46a.39.39,0,0,1,.39-.34h2.45a.41.41,0,0,1,.4.34l.41,2.43a.53.53,0,0,0,.39.43,9.53,9.53,0,0,1,2.56,1,.55.55,0,0,0,.59,0l2-1.45a.39.39,0,0,1,.52,0L24,6.12a.41.41,0,0,1,.06.51l-1.45,2a.53.53,0,0,0,0,.58,9.5,9.5,0,0,1,1,2.5.5.5,0,0,0,.42.39l2.45.42a.39.39,0,0,1,.33.39v2.7h-.09a.41.41,0,0,1-.25.15L24,16.2a.53.53,0,0,0-.43.39,9.5,9.5,0,0,1-1,2.5.51.51,0,0,0,0,.58l1.43,2a.41.41,0,0,1,0,.52L22.21,24a.44.44,0,0,1-.52,0l-2-1.43a.53.53,0,0,0-.58,0,9.71,9.71,0,0,1-2.51,1,.53.53,0,0,0-.39.43l-.41,2.44A.41.41,0,0,1,15.39,26.78Zm-.09-.42Zm-2.26,0Zm0-.08h2.28l.4-2.36a1,1,0,0,1,.76-.83,9,9,0,0,0,2.37-1,1,1,0,0,1,1.13,0l2,1.39,1.62-1.62-1.39-2a1,1,0,0,1,0-1.12,9.07,9.07,0,0,0,1-2.38,1,1,0,0,1,.83-.76l2.36-.39V13l-2.36-.4a1,1,0,0,1-.83-.76,8.85,8.85,0,0,0-1-2.37,1,1,0,0,1,.05-1.13l1.38-1.95L21.91,4.79,20,6.19a1,1,0,0,1-1.13,0,9.23,9.23,0,0,0-2.43-1,1,1,0,0,1-.77-.83l-.39-2.35H13l-.4,2.38a1.06,1.06,0,0,1-.76.83,8.73,8.73,0,0,0-2.36,1,1,1,0,0,1-1.14,0L6.38,4.84,4.76,6.46l1.4,2a1,1,0,0,1,.06,1.12,8.82,8.82,0,0,0-1,2.37,1,1,0,0,1-.84.77l-2.34.39v2.29l2.38.4a1.07,1.07,0,0,1,.83.76,8.9,8.9,0,0,0,1,2.37,1.05,1.05,0,0,1,0,1.13L4.84,22,6.48,23.6l1.95-1.41a1.05,1.05,0,0,1,1.12-.05,9.69,9.69,0,0,0,2.32.95,1,1,0,0,1,.76.83Zm8.83-2.68Zm.12,0h0Zm1.61-1.72ZM2,15.35ZM2,13.1ZM26.36,13h0ZM4.71,6.51h0Zm18.89,0h0ZM6.32,4.79ZM15.26,2h0ZM13,2Z"/><path class="cls-1" d="M14.17,8.16a6,6,0,1,0,6,6,6,6,0,0,0-6-6Zm0,10.44a4.44,4.44,0,1,1,4.44-4.43,4.44,4.44,0,0,1-4.44,4.43Z"/><path class="cls-1" d="M14.17,20.42a6.26,6.26,0,1,1,6.26-6.25A6.26,6.26,0,0,1,14.17,20.42Zm0-12a5.76,5.76,0,1,0,5.76,5.76A5.77,5.77,0,0,0,14.17,8.41Zm0,10.44a4.69,4.69,0,1,1,4.69-4.68A4.69,4.69,0,0,1,14.17,18.85Zm0-8.87a4.19,4.19,0,1,0,4.19,4.19A4.2,4.2,0,0,0,14.17,10Z"/></g></g></svg>