<svg xmlns="http://www.w3.org/2000/svg" viewBox="0 0 143.93 201.36"><defs><style>.cls-1{fill:#44566a;}.cls-2{opacity:0.08;}.cls-3{fill:silver;}.cls-4{fill:#fff;}</style></defs><title>Asset 6</title><g id="Layer_2" data-name="Layer 2"><g id="Layer_1-2" data-name="Layer 1"><path class="cls-1" d="M107.36,75.21H36.57V196.93a4.42,4.42,0,0,0,7.55,3.13l24.71-24.71a4.42,4.42,0,0,1,6.26,0L99.8,200.05a4.42,4.42,0,0,0,7.55-3.13Z"/><path class="cls-2" d="M107.36,75.21H36.57v80.53c5-.09,10.58-1.1,14.88.29,6.89,2.24,12.88,12.08,20.51,12.08S85.59,158.27,92.48,156c4.3-1.4,9.84-.39,14.88-.29Z"/><path class="cls-3" d="M138.32,75.21c0-7.64,7.42-16.36,5.18-23.25-2.32-7.14-13.53-9.82-17.85-15.76s-3.48-17.47-9.48-21.84-16.56,0-23.7-2.28C85.59,9.84,79.6,0,72,0S58.34,9.84,51.45,12.08c-7.14,2.32-17.75-2-23.7,2.28S22.64,30.2,18.27,36.2,2.74,44.82.42,52c-2.24,6.89,5.19,15.61,5.19,23.25S-1.82,91.56.42,98.45c2.32,7.14,13.53,9.82,17.85,15.76s3.48,17.47,9.48,21.84,16.56,0,23.7,2.28c6.89,2.24,12.88,12.08,20.51,12.08s13.62-9.84,20.51-12.08c7.14-2.32,17.75,2,23.7-2.28s5.11-15.84,9.48-21.84,15.53-8.62,17.85-15.76C145.75,91.56,138.32,82.84,138.32,75.21Z"/><circle class="cls-4" cx="71.97" cy="75.21" r="53.09"/><circle class="cls-3" cx="71.97" cy="75.21" r="44.24"/><path class="cls-4" d="M72.77,47.52l8.32,18.23L101,68a.88.88,0,0,1,.5,1.53L86.74,83.12l4,19.64a.88.88,0,0,1-1.3.95L72,93.85l-17.45,9.86a.88.88,0,0,1-1.3-.95l4-19.64L42.43,69.57a.88.88,0,0,1,.5-1.53l19.91-2.28,8.32-18.23A.88.88,0,0,1,72.77,47.52Z"/></g></g></svg>